<svg width="24" height="24" viewBox="0 0 24 24" fill="none" xmlns="http://www.w3.org/2000/svg">
<g id="emojione:oncoming-automobile">
<path id="Vector" d="M20.7746 12.4125C20.7746 12.4125 18.7871 7.275 18.0746 6.8625C16.9871 6.1875 13.4621 6 11.9996 6C10.5371 6 7.01211 6.1875 5.92461 6.8625C5.21211 7.275 3.22461 12.4125 3.22461 12.4125H20.7746Z" fill="#428BC1"/>
<path id="Vector_2" d="M2.17578 18.8625V22.5C2.17578 22.9125 2.47578 23.25 2.88828 23.25H4.31328C4.68828 23.25 5.02578 22.9125 5.02578 22.5V18.825H2.17578V18.8625ZM19.0508 18.8625V22.5C19.0508 22.9125 19.3508 23.25 19.7633 23.25H21.1883C21.5633 23.25 21.9008 22.9125 21.9008 22.5V18.825H19.0508V18.8625Z" fill="#3E4347"/>
<path id="Vector_3" d="M22.6878 18.9375C22.5003 19.3125 21.9753 19.6125 21.5253 19.6125H2.47532C2.02532 19.6125 1.53782 19.3125 1.31282 18.9375L1.23782 18.75C1.05032 18.375 1.05032 17.925 1.27532 17.7375C1.50032 17.55 2.02532 17.3625 2.47532 17.3625H21.5253C21.9753 17.3625 22.5003 17.5125 22.7253 17.7375C22.9503 17.925 22.9503 18.4125 22.7628 18.75L22.6878 18.9375Z" fill="#428BC1"/>
<path id="Vector_4" d="M21.0745 18.1125C21.262 18.3 21.112 18.4875 20.737 18.4875H3.26197C2.88697 18.4875 2.73697 18.3375 2.92447 18.1125C3.11197 17.925 3.56197 17.7375 3.93697 17.7375H20.062C20.437 17.7375 20.887 17.925 21.0745 18.1125Z" fill="#42ADE2"/>
<path id="Vector_5" d="M22.3125 12.8625C21.4875 12.45 20.4375 12 20.4375 12H3.5625C3.5625 12 2.475 12.45 1.6875 12.8625C1.0875 13.1625 0.75 13.35 0.75 13.9125L1.1625 16.6125C1.275 17.25 2.1 17.7375 3 17.7375H21C21.9 17.7375 22.725 17.2125 22.8375 16.6125L23.25 13.9125C23.25 13.35 22.9125 13.1625 22.3125 12.8625Z" fill="#428BC1"/>
<path id="Vector_6" d="M19.3498 11.4C19.3498 11.4 18.1498 7.875 17.5123 7.5C16.5373 6.9375 13.3123 6.75 11.9998 6.75C10.6873 6.75 7.4623 6.9375 6.4873 7.5C5.8498 7.875 4.6498 11.4 4.6498 11.4C4.4998 11.6625 4.7623 11.8875 5.2123 11.8875H18.7873C19.2373 11.8875 19.4998 11.6625 19.3498 11.4Z" fill="#3E4347"/>
<path id="Vector_7" d="M15.7883 11.8125C15.0758 11.1375 14.2508 11.1375 13.8383 11.1375H10.1633C9.75078 11.1375 8.85078 11.1375 8.21328 11.8125L7.42578 12.6H16.5758L15.7883 11.8125Z" fill="#42ADE2"/>
<path id="Vector_8" d="M15.2242 12.3C14.9992 12.075 14.8867 11.8875 13.8742 11.8875H9.82422C9.11172 11.8875 9.07422 12.075 8.81172 12.3C8.73672 12.375 8.51172 12.6375 8.51172 12.6375H15.5617L15.2242 12.3Z" fill="#3E4347"/>
<path id="Vector_9" d="M2.84961 19.575C2.84961 19.575 2.92461 20.175 2.99961 20.4C3.11211 20.775 3.63711 21.075 4.04961 21.075H19.9496C20.3621 21.075 20.8871 20.8125 20.9996 20.4C21.0746 20.2125 21.1496 19.575 21.1496 19.575H2.84961Z" fill="#42ADE2"/>
<path id="Vector_10" d="M16.5754 21.3751C14.6254 21.9376 9.37539 21.9376 7.42539 21.3751C7.27539 21.3376 7.08789 21.0376 7.08789 21.0376H16.9129C16.9129 21.0376 16.7254 21.3376 16.5754 21.3751Z" fill="#3E4347"/>
<path id="Vector_11" d="M22.1249 15.5626C21.9749 16.3501 21.2249 16.9876 20.4374 16.9876H3.56237C2.77487 16.9876 2.02487 16.3501 1.87487 15.5626L1.72487 14.7751C1.57487 13.9876 2.09987 13.3501 2.84987 13.3501H21.1499C21.9374 13.3501 22.4249 13.9876 22.2749 14.7751L22.1249 15.5626Z" fill="#42ADE2"/>
<path id="Vector_12" d="M9.71211 15.8249C9.37461 16.0499 8.81211 16.2749 8.39961 16.2749H3.22461C2.81211 16.2749 2.47461 15.9374 2.47461 15.5249V14.7749C2.47461 14.3624 2.81211 14.0249 3.22461 14.0249H8.36211C8.77461 14.0249 9.37461 14.2124 9.67461 14.4749L9.97461 14.6999C10.3121 14.9249 10.3121 15.3374 9.97461 15.5624L9.71211 15.8249Z" fill="#3E4347"/>
<g id="Group">
<path id="Vector_13" d="M4.27461 16.2751C4.85451 16.2751 5.32461 15.7882 5.32461 15.1876C5.32461 14.587 4.85451 14.1001 4.27461 14.1001C3.69471 14.1001 3.22461 14.587 3.22461 15.1876C3.22461 15.7882 3.69471 16.2751 4.27461 16.2751Z" fill="#F9F3D9"/>
<path id="Vector_14" d="M7.425 16.2751C8.0049 16.2751 8.475 15.7882 8.475 15.1876C8.475 14.587 8.0049 14.1001 7.425 14.1001C6.8451 14.1001 6.375 14.587 6.375 15.1876C6.375 15.7882 6.8451 16.2751 7.425 16.2751Z" fill="#F9F3D9"/>
</g>
<path id="Vector_15" d="M14.2875 15.8249C14.625 16.0499 15.1875 16.2749 15.6 16.2749H20.7375C21.15 16.2749 21.4875 15.9374 21.4875 15.5249V14.7749C21.4875 14.3624 21.15 14.0249 20.7375 14.0249H15.6C15.1875 14.0249 14.5875 14.2124 14.2875 14.4749L13.9875 14.6999C13.65 14.9249 13.65 15.3374 13.9875 15.5624L14.2875 15.8249Z" fill="#3E4347"/>
<g id="Group_2">
<path id="Vector_16" d="M19.7258 16.2751C20.3057 16.2751 20.7758 15.7882 20.7758 15.1876C20.7758 14.587 20.3057 14.1001 19.7258 14.1001C19.1459 14.1001 18.6758 14.587 18.6758 15.1876C18.6758 15.7882 19.1459 16.2751 19.7258 16.2751Z" fill="#F9F3D9"/>
<path id="Vector_17" d="M16.5754 16.2751C17.1553 16.2751 17.6254 15.7882 17.6254 15.1876C17.6254 14.587 17.1553 14.1001 16.5754 14.1001C15.9955 14.1001 15.5254 14.587 15.5254 15.1876C15.5254 15.7882 15.9955 16.2751 16.5754 16.2751Z" fill="#F9F3D9"/>
</g>
<path id="Vector_18" d="M3.56218 11.8875C3.59968 12.075 3.48718 12.2625 3.26218 12.2625H2.06218C1.87468 12.2625 1.64968 12.1125 1.61218 11.8875L1.46218 11.1375C1.42468 10.95 1.53718 10.7625 1.76218 10.7625H2.92468C3.14968 10.7625 3.33718 10.9125 3.37468 11.1375L3.56218 11.8875ZM20.4372 11.8875C20.3997 12.075 20.5122 12.2625 20.7372 12.2625H21.8997C22.0872 12.2625 22.3122 12.1125 22.3497 11.8875L22.4997 11.1375C22.5372 10.95 22.4247 10.7625 22.1997 10.7625H21.0372C20.8497 10.7625 20.6247 10.9125 20.5872 11.1375L20.4372 11.8875Z" fill="#428BC1"/>
<path id="Vector_19" d="M14.4754 13.3501H9.52539L10.2379 12.6001H13.7629L14.4754 13.3501ZM9.52539 19.5751H14.4379V21.0376H9.52539V19.5751Z" fill="#B4D7EE"/>
<path id="Vector_20" d="M11.5508 12.6001H12.2633V13.3501H11.5508V12.6001ZM11.5508 19.5751H12.2633V21.0376H11.5508V19.5751Z" fill="#428BC1"/>
</g>
</svg>
