<svg width="24" height="24" viewBox="0 0 24 24" fill="none" xmlns="http://www.w3.org/2000/svg">
<g id="fluent-emoji:baby-angel-medium">
<g id="Group">
<g id="Group_2" filter="url(#filter0_d_201_251)">
<path id="Vector" d="M11.9798 2.63696C13.5998 2.63696 15.1748 2.91446 16.2923 3.39446C17.2298 3.79946 17.5823 4.23446 17.5823 4.41446C17.5823 4.59446 17.2298 5.02946 16.2923 5.43446C15.1748 5.91446 13.6073 6.19196 11.9798 6.19196C10.3523 6.19196 8.78477 5.92196 7.67477 5.44196C6.72977 5.03696 6.38477 4.59446 6.38477 4.41446C6.38477 4.23446 6.73727 3.79946 7.67477 3.39446C8.78477 2.91446 10.3598 2.63696 11.9798 2.63696ZM11.9798 1.51196C8.26727 1.51196 5.25977 2.80946 5.25977 4.41446C5.25977 6.01946 8.26727 7.31696 11.9873 7.31696C15.7073 7.31696 18.7148 6.01946 18.7148 4.41446C18.7148 2.80946 15.6998 1.51196 11.9798 1.51196Z" fill="url(#paint0_radial_201_251)"/>
<path id="Vector_2" d="M11.9798 2.63696C13.5998 2.63696 15.1748 2.91446 16.2923 3.39446C17.2298 3.79946 17.5823 4.23446 17.5823 4.41446C17.5823 4.59446 17.2298 5.02946 16.2923 5.43446C15.1748 5.91446 13.6073 6.19196 11.9798 6.19196C10.3523 6.19196 8.78477 5.92196 7.67477 5.44196C6.72977 5.03696 6.38477 4.59446 6.38477 4.41446C6.38477 4.23446 6.73727 3.79946 7.67477 3.39446C8.78477 2.91446 10.3598 2.63696 11.9798 2.63696ZM11.9798 1.51196C8.26727 1.51196 5.25977 2.80946 5.25977 4.41446C5.25977 6.01946 8.26727 7.31696 11.9873 7.31696C15.7073 7.31696 18.7148 6.01946 18.7148 4.41446C18.7148 2.80946 15.6998 1.51196 11.9798 1.51196Z" fill="url(#paint1_radial_201_251)"/>
<path id="Vector_3" d="M11.9798 2.63696C13.5998 2.63696 15.1748 2.91446 16.2923 3.39446C17.2298 3.79946 17.5823 4.23446 17.5823 4.41446C17.5823 4.59446 17.2298 5.02946 16.2923 5.43446C15.1748 5.91446 13.6073 6.19196 11.9798 6.19196C10.3523 6.19196 8.78477 5.92196 7.67477 5.44196C6.72977 5.03696 6.38477 4.59446 6.38477 4.41446C6.38477 4.23446 6.73727 3.79946 7.67477 3.39446C8.78477 2.91446 10.3598 2.63696 11.9798 2.63696ZM11.9798 1.51196C8.26727 1.51196 5.25977 2.80946 5.25977 4.41446C5.25977 6.01946 8.26727 7.31696 11.9873 7.31696C15.7073 7.31696 18.7148 6.01946 18.7148 4.41446C18.7148 2.80946 15.6998 1.51196 11.9798 1.51196Z" fill="url(#paint2_radial_201_251)"/>
<path id="Vector_4" d="M11.9798 2.63696C13.5998 2.63696 15.1748 2.91446 16.2923 3.39446C17.2298 3.79946 17.5823 4.23446 17.5823 4.41446C17.5823 4.59446 17.2298 5.02946 16.2923 5.43446C15.1748 5.91446 13.6073 6.19196 11.9798 6.19196C10.3523 6.19196 8.78477 5.92196 7.67477 5.44196C6.72977 5.03696 6.38477 4.59446 6.38477 4.41446C6.38477 4.23446 6.73727 3.79946 7.67477 3.39446C8.78477 2.91446 10.3598 2.63696 11.9798 2.63696ZM11.9798 1.51196C8.26727 1.51196 5.25977 2.80946 5.25977 4.41446C5.25977 6.01946 8.26727 7.31696 11.9873 7.31696C15.7073 7.31696 18.7148 6.01946 18.7148 4.41446C18.7148 2.80946 15.6998 1.51196 11.9798 1.51196Z" fill="url(#paint3_radial_201_251)"/>
<path id="Vector_5" d="M11.9798 2.63696C13.5998 2.63696 15.1748 2.91446 16.2923 3.39446C17.2298 3.79946 17.5823 4.23446 17.5823 4.41446C17.5823 4.59446 17.2298 5.02946 16.2923 5.43446C15.1748 5.91446 13.6073 6.19196 11.9798 6.19196C10.3523 6.19196 8.78477 5.92196 7.67477 5.44196C6.72977 5.03696 6.38477 4.59446 6.38477 4.41446C6.38477 4.23446 6.73727 3.79946 7.67477 3.39446C8.78477 2.91446 10.3598 2.63696 11.9798 2.63696ZM11.9798 1.51196C8.26727 1.51196 5.25977 2.80946 5.25977 4.41446C5.25977 6.01946 8.26727 7.31696 11.9873 7.31696C15.7073 7.31696 18.7148 6.01946 18.7148 4.41446C18.7148 2.80946 15.6998 1.51196 11.9798 1.51196Z" fill="url(#paint4_radial_201_251)"/>
<path id="Vector_6" d="M11.9798 2.63696C13.5998 2.63696 15.1748 2.91446 16.2923 3.39446C17.2298 3.79946 17.5823 4.23446 17.5823 4.41446C17.5823 4.59446 17.2298 5.02946 16.2923 5.43446C15.1748 5.91446 13.6073 6.19196 11.9798 6.19196C10.3523 6.19196 8.78477 5.92196 7.67477 5.44196C6.72977 5.03696 6.38477 4.59446 6.38477 4.41446C6.38477 4.23446 6.73727 3.79946 7.67477 3.39446C8.78477 2.91446 10.3598 2.63696 11.9798 2.63696ZM11.9798 1.51196C8.26727 1.51196 5.25977 2.80946 5.25977 4.41446C5.25977 6.01946 8.26727 7.31696 11.9873 7.31696C15.7073 7.31696 18.7148 6.01946 18.7148 4.41446C18.7148 2.80946 15.6998 1.51196 11.9798 1.51196Z" fill="url(#paint5_radial_201_251)"/>
</g>
<path id="Vector_7" d="M11.9798 2.63696C13.5998 2.63696 15.1748 2.91446 16.2923 3.39446C17.2298 3.79946 17.5823 4.23446 17.5823 4.41446C17.5823 4.59446 17.2298 5.02946 16.2923 5.43446C15.1748 5.91446 13.6073 6.19196 11.9798 6.19196C10.3523 6.19196 8.78477 5.92196 7.67477 5.44196C6.72977 5.03696 6.38477 4.59446 6.38477 4.41446C6.38477 4.23446 6.73727 3.79946 7.67477 3.39446C8.78477 2.91446 10.3598 2.63696 11.9798 2.63696ZM11.9798 1.51196C8.26727 1.51196 5.25977 2.80946 5.25977 4.41446C5.25977 6.01946 8.26727 7.31696 11.9873 7.31696C15.7073 7.31696 18.7148 6.01946 18.7148 4.41446C18.7148 2.80946 15.6998 1.51196 11.9798 1.51196Z" fill="url(#paint6_radial_201_251)"/>
<path id="Vector_8" d="M20.1422 21.312C20.1422 21.2155 20.1039 21.123 20.0357 21.0548C19.9675 20.9866 19.875 20.9482 19.7785 20.9482H15.8125V22.4775H18.9775C19.621 22.4775 20.1422 21.9555 20.1422 21.312Z" fill="#FDEDEB"/>
<path id="Vector_9" d="M20.1422 21.312C20.1422 21.2155 20.1039 21.123 20.0357 21.0548C19.9675 20.9866 19.875 20.9482 19.7785 20.9482H15.8125V22.4775H18.9775C19.621 22.4775 20.1422 21.9555 20.1422 21.312Z" fill="url(#paint7_linear_201_251)"/>
<path id="Vector_10" d="M20.1422 21.312C20.1422 21.2155 20.1039 21.123 20.0357 21.0548C19.9675 20.9866 19.875 20.9482 19.7785 20.9482H15.8125V22.4775H18.9775C19.621 22.4775 20.1422 21.9555 20.1422 21.312Z" fill="url(#paint8_radial_201_251)"/>
<path id="Vector_11" d="M20.1422 21.312C20.1422 21.2155 20.1039 21.123 20.0357 21.0548C19.9675 20.9866 19.875 20.9482 19.7785 20.9482H15.8125V22.4775H18.9775C19.621 22.4775 20.1422 21.9555 20.1422 21.312Z" fill="url(#paint9_radial_201_251)"/>
<path id="Vector_12" d="M20.1422 21.312C20.1422 21.2155 20.1039 21.123 20.0357 21.0548C19.9675 20.9866 19.875 20.9482 19.7785 20.9482H15.8125V22.4775H18.9775C19.621 22.4775 20.1422 21.9555 20.1422 21.312Z" fill="url(#paint10_linear_201_251)"/>
<g id="Group_3" filter="url(#filter1_d_201_251)">
<path id="Vector_13" d="M21.2972 19.7512C21.2971 19.6521 21.2575 19.5571 21.1874 19.487C21.1172 19.417 21.0221 19.3777 20.923 19.3777H15.8125V20.9482H20.1002C20.761 20.9482 21.2972 20.4119 21.2972 19.7512Z" fill="#FDEDEB"/>
<path id="Vector_14" d="M21.2972 19.7512C21.2971 19.6521 21.2575 19.5571 21.1874 19.487C21.1172 19.417 21.0221 19.3777 20.923 19.3777H15.8125V20.9482H20.1002C20.761 20.9482 21.2972 20.4119 21.2972 19.7512Z" fill="url(#paint11_linear_201_251)"/>
<path id="Vector_15" d="M21.2972 19.7512C21.2971 19.6521 21.2575 19.5571 21.1874 19.487C21.1172 19.417 21.0221 19.3777 20.923 19.3777H15.8125V20.9482H20.1002C20.761 20.9482 21.2972 20.4119 21.2972 19.7512Z" fill="url(#paint12_radial_201_251)"/>
<path id="Vector_16" d="M21.2972 19.7512C21.2971 19.6521 21.2575 19.5571 21.1874 19.487C21.1172 19.417 21.0221 19.3777 20.923 19.3777H15.8125V20.9482H20.1002C20.761 20.9482 21.2972 20.4119 21.2972 19.7512Z" fill="url(#paint13_radial_201_251)"/>
</g>
<g id="Group_4" filter="url(#filter2_d_201_251)">
<path id="Vector_17" d="M22.498 18.1814C22.498 18.0823 22.4587 17.9872 22.3886 17.917C22.3186 17.8468 22.2236 17.8073 22.1245 17.8071H15.8125V19.3776H21.3017C21.9617 19.3776 22.498 18.8421 22.498 18.1814Z" fill="#FDEDEB"/>
<path id="Vector_18" d="M22.498 18.1814C22.498 18.0823 22.4587 17.9872 22.3886 17.917C22.3186 17.8468 22.2236 17.8073 22.1245 17.8071H15.8125V19.3776H21.3017C21.9617 19.3776 22.498 18.8421 22.498 18.1814Z" fill="url(#paint14_linear_201_251)"/>
<path id="Vector_19" d="M22.498 18.1814C22.498 18.0823 22.4587 17.9872 22.3886 17.917C22.3186 17.8468 22.2236 17.8073 22.1245 17.8071H15.8125V19.3776H21.3017C21.9617 19.3776 22.498 18.8421 22.498 18.1814Z" fill="url(#paint15_radial_201_251)"/>
<path id="Vector_20" d="M22.498 18.1814C22.498 18.0823 22.4587 17.9872 22.3886 17.917C22.3186 17.8468 22.2236 17.8073 22.1245 17.8071H15.8125V19.3776H21.3017C21.9617 19.3776 22.498 18.8421 22.498 18.1814Z" fill="url(#paint16_radial_201_251)"/>
</g>
<g id="Group_5" filter="url(#filter3_d_201_251)">
<path id="Vector_21" d="M15.8709 17.8071H17.3477C17.7619 17.8071 18.0977 18.1429 18.0977 18.5571V21.7274C18.0977 22.1416 17.7619 22.4774 17.3477 22.4774H15.8709C15.4567 22.4774 15.1209 22.1416 15.1209 21.7274V18.5571C15.1209 18.1429 15.4567 17.8071 15.8709 17.8071Z" fill="#F7E1ED"/>
<path id="Vector_22" d="M15.8709 17.8071H17.3477C17.7619 17.8071 18.0977 18.1429 18.0977 18.5571V21.7274C18.0977 22.1416 17.7619 22.4774 17.3477 22.4774H15.8709C15.4567 22.4774 15.1209 22.1416 15.1209 21.7274V18.5571C15.1209 18.1429 15.4567 17.8071 15.8709 17.8071Z" fill="url(#paint17_linear_201_251)"/>
</g>
<g id="Group_6" filter="url(#filter4_d_201_251)">
<path id="Vector_23" d="M3.85938 21.312C3.85938 21.111 4.02213 20.9482 4.22313 20.9482H8.18913V22.4775H5.02412C4.71515 22.4773 4.41889 22.3544 4.20048 22.1359C3.98207 21.9173 3.85937 21.621 3.85938 21.312Z" fill="#E7CBD7"/>
<path id="Vector_24" d="M3.85938 21.312C3.85938 21.111 4.02213 20.9482 4.22313 20.9482H8.18913V22.4775H5.02412C4.71515 22.4773 4.41889 22.3544 4.20048 22.1359C3.98207 21.9173 3.85937 21.621 3.85938 21.312Z" fill="url(#paint18_radial_201_251)"/>
<path id="Vector_25" d="M3.85938 21.312C3.85938 21.111 4.02213 20.9482 4.22313 20.9482H8.18913V22.4775H5.02412C4.71515 22.4773 4.41889 22.3544 4.20048 22.1359C3.98207 21.9173 3.85937 21.621 3.85938 21.312Z" fill="url(#paint19_radial_201_251)"/>
</g>
<g id="Group_7" filter="url(#filter5_d_201_251)">
<path id="Vector_26" d="M2.70508 19.7512C2.70508 19.5449 2.87308 19.3777 3.07933 19.3777H8.18983V20.9482H3.90208C3.74486 20.9483 3.58916 20.9174 3.44389 20.8573C3.29862 20.7972 3.16662 20.709 3.05545 20.5978C2.94428 20.4866 2.85611 20.3546 2.79599 20.2094C2.73587 20.0641 2.70498 19.9084 2.70508 19.7512Z" fill="#E7CBD7"/>
<path id="Vector_27" d="M2.70508 19.7512C2.70508 19.5449 2.87308 19.3777 3.07933 19.3777H8.18983V20.9482H3.90208C3.74486 20.9483 3.58916 20.9174 3.44389 20.8573C3.29862 20.7972 3.16662 20.709 3.05545 20.5978C2.94428 20.4866 2.85611 20.3546 2.79599 20.2094C2.73587 20.0641 2.70498 19.9084 2.70508 19.7512Z" fill="url(#paint20_radial_201_251)"/>
<path id="Vector_28" d="M2.70508 19.7512C2.70508 19.5449 2.87308 19.3777 3.07933 19.3777H8.18983V20.9482H3.90208C3.74486 20.9483 3.58916 20.9174 3.44389 20.8573C3.29862 20.7972 3.16662 20.709 3.05545 20.5978C2.94428 20.4866 2.85611 20.3546 2.79599 20.2094C2.73587 20.0641 2.70498 19.9084 2.70508 19.7512Z" fill="url(#paint21_radial_201_251)"/>
</g>
<path id="Vector_29" d="M2.70508 19.7512C2.70508 19.5449 2.87308 19.3777 3.07933 19.3777H8.18983V20.9482H3.90208C3.74486 20.9483 3.58916 20.9174 3.44389 20.8573C3.29862 20.7972 3.16662 20.709 3.05545 20.5978C2.94428 20.4866 2.85611 20.3546 2.79599 20.2094C2.73587 20.0641 2.70498 19.9084 2.70508 19.7512Z" fill="url(#paint22_radial_201_251)"/>
<g id="Group_8" filter="url(#filter6_d_201_251)">
<path id="Vector_30" d="M1.50391 18.1814C1.50391 17.9744 1.67116 17.8071 1.87741 17.8071H8.18941V19.3776H2.70016C2.38289 19.3776 2.07862 19.2516 1.85428 19.0273C1.62994 18.8029 1.50391 18.4986 1.50391 18.1814Z" fill="#E7CBD7"/>
<path id="Vector_31" d="M1.50391 18.1814C1.50391 17.9744 1.67116 17.8071 1.87741 17.8071H8.18941V19.3776H2.70016C2.38289 19.3776 2.07862 19.2516 1.85428 19.0273C1.62994 18.8029 1.50391 18.4986 1.50391 18.1814Z" fill="#F1D2D6"/>
<path id="Vector_32" d="M1.50391 18.1814C1.50391 17.9744 1.67116 17.8071 1.87741 17.8071H8.18941V19.3776H2.70016C2.38289 19.3776 2.07862 19.2516 1.85428 19.0273C1.62994 18.8029 1.50391 18.4986 1.50391 18.1814Z" fill="url(#paint23_linear_201_251)"/>
</g>
<path id="Vector_33" d="M1.50391 18.1814C1.50391 17.9744 1.67116 17.8071 1.87741 17.8071H8.18941V19.3776H2.70016C2.38289 19.3776 2.07862 19.2516 1.85428 19.0273C1.62994 18.8029 1.50391 18.4986 1.50391 18.1814Z" fill="url(#paint24_radial_201_251)"/>
<g id="Group_9" filter="url(#filter7_d_201_251)">
<path id="Vector_34" d="M8.13105 17.8071H6.6543C6.24008 17.8071 5.9043 18.1429 5.9043 18.5571V21.7274C5.9043 22.1416 6.24008 22.4774 6.6543 22.4774H8.13105C8.54526 22.4774 8.88105 22.1416 8.88105 21.7274V18.5571C8.88105 18.1429 8.54526 17.8071 8.13105 17.8071Z" fill="url(#paint25_radial_201_251)"/>
<path id="Vector_35" d="M8.13105 17.8071H6.6543C6.24008 17.8071 5.9043 18.1429 5.9043 18.5571V21.7274C5.9043 22.1416 6.24008 22.4774 6.6543 22.4774H8.13105C8.54526 22.4774 8.88105 22.1416 8.88105 21.7274V18.5571C8.88105 18.1429 8.54526 17.8071 8.13105 17.8071Z" fill="url(#paint26_linear_201_251)"/>
</g>
<path id="Vector_36" d="M5.45553 17.6991C5.75081 17.6991 6.04319 17.641 6.31599 17.528C6.5888 17.415 6.83667 17.2494 7.04546 17.0406C7.25425 16.8318 7.41988 16.5839 7.53287 16.3111C7.64587 16.0383 7.70403 15.7459 7.70403 15.4506C7.70403 15.1554 7.64587 14.863 7.53287 14.5902C7.41988 14.3174 7.25425 14.0695 7.04546 13.8607C6.83667 13.6519 6.5888 13.4863 6.31599 13.3733C6.04319 13.2603 5.75081 13.2021 5.45553 13.2021C4.85919 13.2021 4.28728 13.439 3.8656 13.8607C3.44393 14.2824 3.20703 14.8543 3.20703 15.4506C3.20703 16.047 3.44393 16.6189 3.8656 17.0406C4.28728 17.4623 4.85919 17.6991 5.45553 17.6991Z" fill="url(#paint27_linear_201_251)"/>
<path id="Vector_37" d="M5.45553 17.6991C5.75081 17.6991 6.04319 17.641 6.31599 17.528C6.5888 17.415 6.83667 17.2494 7.04546 17.0406C7.25425 16.8318 7.41988 16.5839 7.53287 16.3111C7.64587 16.0383 7.70403 15.7459 7.70403 15.4506C7.70403 15.1554 7.64587 14.863 7.53287 14.5902C7.41988 14.3174 7.25425 14.0695 7.04546 13.8607C6.83667 13.6519 6.5888 13.4863 6.31599 13.3733C6.04319 13.2603 5.75081 13.2021 5.45553 13.2021C4.85919 13.2021 4.28728 13.439 3.8656 13.8607C3.44393 14.2824 3.20703 14.8543 3.20703 15.4506C3.20703 16.047 3.44393 16.6189 3.8656 17.0406C4.28728 17.4623 4.85919 17.6991 5.45553 17.6991Z" fill="url(#paint28_radial_201_251)"/>
<g id="Group_10" filter="url(#filter8_f_201_251)">
<path id="Vector_38" d="M5.45584 16.848C5.82642 16.848 6.18181 16.7008 6.44385 16.4387C6.70588 16.1767 6.85309 15.8213 6.85309 15.4507C6.85309 15.0801 6.70588 14.7247 6.44385 14.4627C6.18181 14.2007 5.82642 14.0535 5.45584 14.0535C5.08527 14.0535 4.72987 14.2007 4.46784 14.4627C4.2058 14.7247 4.05859 15.0801 4.05859 15.4507C4.05859 15.8213 4.2058 16.1767 4.46784 16.4387C4.72987 16.7008 5.08527 16.848 5.45584 16.848Z" fill="url(#paint29_radial_201_251)"/>
</g>
<path id="Vector_39" d="M18.6001 17.6991C18.8953 17.6991 19.1877 17.641 19.4605 17.528C19.7333 17.415 19.9812 17.2494 20.19 17.0406C20.3988 16.8318 20.5644 16.5839 20.6774 16.3111C20.7904 16.0383 20.8486 15.7459 20.8486 15.4506C20.8486 15.1554 20.7904 14.863 20.6774 14.5902C20.5644 14.3174 20.3988 14.0695 20.19 13.8607C19.9812 13.6519 19.7333 13.4863 19.4605 13.3733C19.1877 13.2603 18.8953 13.2021 18.6001 13.2021C18.0037 13.2021 17.4318 13.439 17.0101 13.8607C16.5885 14.2824 16.3516 14.8543 16.3516 15.4506C16.3516 16.047 16.5885 16.6189 17.0101 17.0406C17.4318 17.4623 18.0037 17.6991 18.6001 17.6991Z" fill="url(#paint30_linear_201_251)"/>
<path id="Vector_40" d="M18.6001 17.6991C18.8953 17.6991 19.1877 17.641 19.4605 17.528C19.7333 17.415 19.9812 17.2494 20.19 17.0406C20.3988 16.8318 20.5644 16.5839 20.6774 16.3111C20.7904 16.0383 20.8486 15.7459 20.8486 15.4506C20.8486 15.1554 20.7904 14.863 20.6774 14.5902C20.5644 14.3174 20.3988 14.0695 20.19 13.8607C19.9812 13.6519 19.7333 13.4863 19.4605 13.3733C19.1877 13.2603 18.8953 13.2021 18.6001 13.2021C18.0037 13.2021 17.4318 13.439 17.0101 13.8607C16.5885 14.2824 16.3516 14.8543 16.3516 15.4506C16.3516 16.047 16.5885 16.6189 17.0101 17.0406C17.4318 17.4623 18.0037 17.6991 18.6001 17.6991Z" fill="url(#paint31_radial_201_251)"/>
<path id="Vector_41" d="M18.6001 17.6991C18.8953 17.6991 19.1877 17.641 19.4605 17.528C19.7333 17.415 19.9812 17.2494 20.19 17.0406C20.3988 16.8318 20.5644 16.5839 20.6774 16.3111C20.7904 16.0383 20.8486 15.7459 20.8486 15.4506C20.8486 15.1554 20.7904 14.863 20.6774 14.5902C20.5644 14.3174 20.3988 14.0695 20.19 13.8607C19.9812 13.6519 19.7333 13.4863 19.4605 13.3733C19.1877 13.2603 18.8953 13.2021 18.6001 13.2021C18.0037 13.2021 17.4318 13.439 17.0101 13.8607C16.5885 14.2824 16.3516 14.8543 16.3516 15.4506C16.3516 16.047 16.5885 16.6189 17.0101 17.0406C17.4318 17.4623 18.0037 17.6991 18.6001 17.6991Z" fill="url(#paint32_radial_201_251)"/>
<path id="Vector_42" d="M18.6001 17.6991C18.8953 17.6991 19.1877 17.641 19.4605 17.528C19.7333 17.415 19.9812 17.2494 20.19 17.0406C20.3988 16.8318 20.5644 16.5839 20.6774 16.3111C20.7904 16.0383 20.8486 15.7459 20.8486 15.4506C20.8486 15.1554 20.7904 14.863 20.6774 14.5902C20.5644 14.3174 20.3988 14.0695 20.19 13.8607C19.9812 13.6519 19.7333 13.4863 19.4605 13.3733C19.1877 13.2603 18.8953 13.2021 18.6001 13.2021C18.0037 13.2021 17.4318 13.439 17.0101 13.8607C16.5885 14.2824 16.3516 14.8543 16.3516 15.4506C16.3516 16.047 16.5885 16.6189 17.0101 17.0406C17.4318 17.4623 18.0037 17.6991 18.6001 17.6991Z" fill="url(#paint33_radial_201_251)"/>
<g id="Group_11" filter="url(#filter9_f_201_251)">
<path id="Vector_43" d="M18.6002 16.89C18.9821 16.89 19.3483 16.7383 19.6184 16.4682C19.8884 16.1982 20.0402 15.8319 20.0402 15.45C20.0402 15.0681 19.8884 14.7018 19.6184 14.4318C19.3483 14.1617 18.9821 14.01 18.6002 14.01C18.2182 14.01 17.852 14.1617 17.5819 14.4318C17.3119 14.7018 17.1602 15.0681 17.1602 15.45C17.1602 15.8319 17.3119 16.1982 17.5819 16.4682C17.852 16.7383 18.2182 16.89 18.6002 16.89Z" fill="url(#paint34_radial_201_251)"/>
</g>
<g id="Group_12" filter="url(#filter10_dd_201_251)">
<path id="Vector_44" d="M17.0297 5.73825C15.9717 4.93947 14.6834 4.50503 13.3577 4.5H10.7252C9.41269 4.5 8.12719 4.93575 7.05394 5.73825C5.22544 7.11525 4.23769 9.40575 4.46344 11.751L5.08444 17.3625C5.28919 19.5352 6.72919 21.3615 8.72719 21.9847C10.8861 22.6553 13.1976 22.6553 15.3564 21.9847C17.3537 21.3622 18.7944 19.5352 18.9992 17.3625L19.6202 11.751C19.8459 9.40575 18.8574 7.116 17.0297 5.73825Z" fill="#C49380"/>
<path id="Vector_45" d="M17.0297 5.73825C15.9717 4.93947 14.6834 4.50503 13.3577 4.5H10.7252C9.41269 4.5 8.12719 4.93575 7.05394 5.73825C5.22544 7.11525 4.23769 9.40575 4.46344 11.751L5.08444 17.3625C5.28919 19.5352 6.72919 21.3615 8.72719 21.9847C10.8861 22.6553 13.1976 22.6553 15.3564 21.9847C17.3537 21.3622 18.7944 19.5352 18.9992 17.3625L19.6202 11.751C19.8459 9.40575 18.8574 7.116 17.0297 5.73825Z" fill="url(#paint35_linear_201_251)"/>
<path id="Vector_46" d="M17.0297 5.73825C15.9717 4.93947 14.6834 4.50503 13.3577 4.5H10.7252C9.41269 4.5 8.12719 4.93575 7.05394 5.73825C5.22544 7.11525 4.23769 9.40575 4.46344 11.751L5.08444 17.3625C5.28919 19.5352 6.72919 21.3615 8.72719 21.9847C10.8861 22.6553 13.1976 22.6553 15.3564 21.9847C17.3537 21.3622 18.7944 19.5352 18.9992 17.3625L19.6202 11.751C19.8459 9.40575 18.8574 7.116 17.0297 5.73825Z" fill="url(#paint36_linear_201_251)"/>
<path id="Vector_47" d="M17.0297 5.73825C15.9717 4.93947 14.6834 4.50503 13.3577 4.5H10.7252C9.41269 4.5 8.12719 4.93575 7.05394 5.73825C5.22544 7.11525 4.23769 9.40575 4.46344 11.751L5.08444 17.3625C5.28919 19.5352 6.72919 21.3615 8.72719 21.9847C10.8861 22.6553 13.1976 22.6553 15.3564 21.9847C17.3537 21.3622 18.7944 19.5352 18.9992 17.3625L19.6202 11.751C19.8459 9.40575 18.8574 7.116 17.0297 5.73825Z" fill="url(#paint37_radial_201_251)"/>
<path id="Vector_48" d="M17.0297 5.73825C15.9717 4.93947 14.6834 4.50503 13.3577 4.5H10.7252C9.41269 4.5 8.12719 4.93575 7.05394 5.73825C5.22544 7.11525 4.23769 9.40575 4.46344 11.751L5.08444 17.3625C5.28919 19.5352 6.72919 21.3615 8.72719 21.9847C10.8861 22.6553 13.1976 22.6553 15.3564 21.9847C17.3537 21.3622 18.7944 19.5352 18.9992 17.3625L19.6202 11.751C19.8459 9.40575 18.8574 7.116 17.0297 5.73825Z" fill="url(#paint38_radial_201_251)"/>
<path id="Vector_49" d="M17.0297 5.73825C15.9717 4.93947 14.6834 4.50503 13.3577 4.5H10.7252C9.41269 4.5 8.12719 4.93575 7.05394 5.73825C5.22544 7.11525 4.23769 9.40575 4.46344 11.751L5.08444 17.3625C5.28919 19.5352 6.72919 21.3615 8.72719 21.9847C10.8861 22.6553 13.1976 22.6553 15.3564 21.9847C17.3537 21.3622 18.7944 19.5352 18.9992 17.3625L19.6202 11.751C19.8459 9.40575 18.8574 7.116 17.0297 5.73825Z" fill="url(#paint39_radial_201_251)"/>
<path id="Vector_50" d="M17.0297 5.73825C15.9717 4.93947 14.6834 4.50503 13.3577 4.5H10.7252C9.41269 4.5 8.12719 4.93575 7.05394 5.73825C5.22544 7.11525 4.23769 9.40575 4.46344 11.751L5.08444 17.3625C5.28919 19.5352 6.72919 21.3615 8.72719 21.9847C10.8861 22.6553 13.1976 22.6553 15.3564 21.9847C17.3537 21.3622 18.7944 19.5352 18.9992 17.3625L19.6202 11.751C19.8459 9.40575 18.8574 7.116 17.0297 5.73825Z" fill="url(#paint40_radial_201_251)"/>
<path id="Vector_51" d="M17.0297 5.73825C15.9717 4.93947 14.6834 4.50503 13.3577 4.5H10.7252C9.41269 4.5 8.12719 4.93575 7.05394 5.73825C5.22544 7.11525 4.23769 9.40575 4.46344 11.751L5.08444 17.3625C5.28919 19.5352 6.72919 21.3615 8.72719 21.9847C10.8861 22.6553 13.1976 22.6553 15.3564 21.9847C17.3537 21.3622 18.7944 19.5352 18.9992 17.3625L19.6202 11.751C19.8459 9.40575 18.8574 7.116 17.0297 5.73825Z" fill="url(#paint41_radial_201_251)"/>
</g>
<path id="Vector_52" d="M17.0297 5.73825C15.9717 4.93947 14.6834 4.50503 13.3577 4.5H10.7252C9.41269 4.5 8.12719 4.93575 7.05394 5.73825C5.22544 7.11525 4.23769 9.40575 4.46344 11.751L5.08444 17.3625C5.28919 19.5352 6.72919 21.3615 8.72719 21.9847C10.8861 22.6553 13.1976 22.6553 15.3564 21.9847C17.3537 21.3622 18.7944 19.5352 18.9992 17.3625L19.6202 11.751C19.8459 9.40575 18.8574 7.116 17.0297 5.73825Z" fill="url(#paint42_linear_201_251)"/>
<g id="Group_13" filter="url(#filter11_f_201_251)">
<path id="Vector_53" d="M9.96942 17.8087C9.71142 17.67 9.43692 17.9655 9.59967 18.2152L9.64692 18.1852L9.96942 17.8087V17.8087Z" stroke="url(#paint43_linear_201_251)" stroke-width="0.1125"/>
</g>
<g id="Group_14" filter="url(#filter12_d_201_251)">
<path id="Vector_54" d="M12.0237 18.3653C11.2992 18.3688 10.5848 18.1948 9.94321 17.8583C9.73621 17.7473 9.51571 17.9835 9.64696 18.1845C9.9028 18.5846 10.2552 18.914 10.6717 19.1422C11.0883 19.3703 11.5555 19.4901 12.0305 19.4903C12.5052 19.4893 12.9721 19.3694 13.3884 19.1414C13.8048 18.9134 14.1574 18.5847 14.414 18.1853C14.5377 17.9903 14.324 17.754 14.1177 17.8583C13.4704 18.1932 12.7518 18.3671 12.023 18.3653H12.0237Z" fill="#88014F"/>
</g>
<path id="Vector_55" d="M15.2878 13.5898C15.819 13.5901 16.3349 13.7679 16.7534 14.095C17.172 14.4221 17.4692 14.8797 17.5978 15.3951C17.6152 15.4642 17.6165 15.5365 17.6017 15.6062C17.5869 15.676 17.5563 15.7414 17.5123 15.7975C17.4683 15.8536 17.412 15.8989 17.3478 15.9299C17.2836 15.9609 17.2131 15.9768 17.1418 15.9763H13.3363C13.2786 15.9765 13.2217 15.964 13.1694 15.9397C13.1171 15.9153 13.0709 15.8798 13.0339 15.8355C12.997 15.7912 12.9702 15.7394 12.9556 15.6836C12.941 15.6278 12.9388 15.5695 12.9493 15.5128C13.056 14.971 13.3475 14.4831 13.774 14.1324C14.2005 13.7816 14.7356 13.5899 15.2878 13.5898ZM8.36904 13.5898C7.83784 13.5901 7.32197 13.7679 6.90342 14.095C6.48487 14.4221 6.18766 14.8797 6.05904 15.3951C6.04164 15.4642 6.0403 15.5365 6.05513 15.6062C6.06995 15.676 6.10054 15.7414 6.14455 15.7975C6.18857 15.8536 6.24484 15.8989 6.30906 15.9299C6.37327 15.9609 6.44374 15.9768 6.51504 15.9763H10.3205C10.3782 15.9765 10.4352 15.964 10.4874 15.9397C10.5397 15.9153 10.586 15.8798 10.6229 15.8355C10.6599 15.7912 10.6866 15.7394 10.7012 15.6836C10.7159 15.6278 10.718 15.5695 10.7075 15.5128C10.5998 14.9716 10.308 14.4843 9.88172 14.1337C9.45543 13.7832 8.92095 13.591 8.36904 13.5898Z" fill="white"/>
<path id="Vector_56" d="M14.9348 14.0535C15.1687 14.0538 15.3994 14.108 15.609 14.2119C15.8186 14.3158 16.0015 14.4665 16.1434 14.6525C16.2852 14.8385 16.3824 15.0547 16.4272 15.2843C16.472 15.5139 16.4633 15.7508 16.4018 15.9765H13.4618C13.4259 15.8457 13.4072 15.7108 13.4062 15.5752C13.4062 14.7382 14.091 14.0527 14.9348 14.0527V14.0535Z" fill="url(#paint44_radial_201_251)"/>
<path id="Vector_57" d="M8.72104 14.0535C8.48717 14.0539 8.25653 14.1082 8.04702 14.2121C7.83751 14.3161 7.65477 14.4669 7.51296 14.6528C7.37116 14.8388 7.2741 15.055 7.22933 15.2845C7.18456 15.5141 7.19327 15.7508 7.25479 15.9765H10.1948C10.2307 15.8457 10.2493 15.7108 10.2503 15.5752C10.2477 15.1711 10.0856 14.7843 9.79914 14.4991C9.51271 14.214 9.12522 14.0535 8.72104 14.0527V14.0535Z" fill="url(#paint45_radial_201_251)"/>
<path id="Vector_58" d="M14.0626 15.5751C14.0626 15.0906 14.4504 14.7036 14.9341 14.7036C15.4186 14.7036 15.8064 15.0906 15.8064 15.5751C15.8064 15.7206 15.7711 15.8586 15.7089 15.9764H14.1661C14.0964 15.8543 14.0607 15.7157 14.0626 15.5751ZM9.59336 15.5751C9.59336 15.0906 9.20561 14.7036 8.72186 14.7036C8.23736 14.7036 7.84961 15.0906 7.84961 15.5751C7.84961 15.7206 7.88411 15.8586 7.94711 15.9764H9.48911C9.55625 15.8532 9.59205 15.7154 9.59336 15.5751Z" fill="black"/>
<g id="Group_15" filter="url(#filter13_d_201_251)">
<path id="Vector_59" d="M7.51758 12.2197C7.92558 12.0742 8.49258 11.9707 9.22608 12.0397" stroke="#472D2C" stroke-width="0.75" stroke-miterlimit="10" stroke-linecap="round" stroke-linejoin="round"/>
</g>
<g id="Group_16" filter="url(#filter14_f_201_251)">
<path id="Vector_60" d="M7.55469 12.1553C7.96269 12.0098 8.52969 11.9056 9.26319 11.9753" stroke="url(#paint46_linear_201_251)" stroke-width="0.225" stroke-miterlimit="10" stroke-linecap="round" stroke-linejoin="round"/>
</g>
<g id="Group_17" filter="url(#filter15_d_201_251)">
<path id="Vector_61" d="M16.2151 12.2197C15.8071 12.0742 15.2401 11.9707 14.5059 12.0397" stroke="#4C3230" stroke-width="0.75" stroke-miterlimit="10" stroke-linecap="round" stroke-linejoin="round"/>
</g>
<g id="Group_18" filter="url(#filter16_f_201_251)">
<path id="Vector_62" d="M16.2151 12.1192C15.8071 11.9737 15.2401 11.8694 14.5059 11.9392" stroke="url(#paint47_linear_201_251)" stroke-width="0.225" stroke-miterlimit="10" stroke-linecap="round" stroke-linejoin="round"/>
</g>
<g id="Group_19" filter="url(#filter17_f_201_251)">
<path id="Vector_63" d="M12.111 3.84004C11.0925 3.68554 10.2037 3.83779 9.62695 4.60804C11.007 4.60804 12.8932 5.45404 12.6195 7.26604C12.5484 7.75376 12.3043 8.19965 11.9317 8.52229C11.8737 8.57038 11.8333 8.63636 11.8168 8.70988C11.8003 8.78341 11.8086 8.86033 11.8405 8.92859C11.8724 8.99685 11.9261 9.05261 11.9931 9.08712C12.0601 9.12163 12.1366 9.13294 12.2107 9.11929C12.7605 9.01338 13.2633 8.73787 13.6484 8.33147C14.0336 7.92508 14.2817 7.40823 14.358 6.85354C14.5642 5.40979 13.5525 4.05829 12.111 3.83929V3.84004Z" fill="url(#paint48_linear_201_251)"/>
</g>
<g id="Group_20" filter="url(#filter18_d_201_251)">
<path id="Vector_64" d="M11.8209 3.17017C11.2844 3.16322 10.7562 3.30253 10.2929 3.57315C9.82966 3.84376 9.44886 4.23546 9.19141 4.70617C9.61817 4.60736 10.0546 4.55629 10.4927 4.55392H10.5962C11.8487 4.55392 12.9002 5.57767 12.8934 6.83017C12.8894 7.37285 12.6903 7.89597 12.3324 8.30392C12.2765 8.36515 12.2424 8.44321 12.2355 8.52586C12.2287 8.60852 12.2494 8.69112 12.2945 8.76073C12.3396 8.83034 12.4065 8.88304 12.4848 8.91058C12.563 8.93811 12.6482 8.93894 12.7269 8.91292C13.3105 8.71444 13.8173 8.33805 14.1759 7.83667C14.5346 7.33529 14.7271 6.73412 14.7264 6.11767C14.7339 4.51267 13.4259 3.19117 11.8209 3.17017Z" fill="#402B29"/>
<path id="Vector_65" d="M11.8209 3.17017C11.2844 3.16322 10.7562 3.30253 10.2929 3.57315C9.82966 3.84376 9.44886 4.23546 9.19141 4.70617C9.61817 4.60736 10.0546 4.55629 10.4927 4.55392H10.5962C11.8487 4.55392 12.9002 5.57767 12.8934 6.83017C12.8894 7.37285 12.6903 7.89597 12.3324 8.30392C12.2765 8.36515 12.2424 8.44321 12.2355 8.52586C12.2287 8.60852 12.2494 8.69112 12.2945 8.76073C12.3396 8.83034 12.4065 8.88304 12.4848 8.91058C12.563 8.93811 12.6482 8.93894 12.7269 8.91292C13.3105 8.71444 13.8173 8.33805 14.1759 7.83667C14.5346 7.33529 14.7271 6.73412 14.7264 6.11767C14.7339 4.51267 13.4259 3.19117 11.8209 3.17017Z" fill="url(#paint49_radial_201_251)"/>
<path id="Vector_66" d="M11.8209 3.17017C11.2844 3.16322 10.7562 3.30253 10.2929 3.57315C9.82966 3.84376 9.44886 4.23546 9.19141 4.70617C9.61817 4.60736 10.0546 4.55629 10.4927 4.55392H10.5962C11.8487 4.55392 12.9002 5.57767 12.8934 6.83017C12.8894 7.37285 12.6903 7.89597 12.3324 8.30392C12.2765 8.36515 12.2424 8.44321 12.2355 8.52586C12.2287 8.60852 12.2494 8.69112 12.2945 8.76073C12.3396 8.83034 12.4065 8.88304 12.4848 8.91058C12.563 8.93811 12.6482 8.93894 12.7269 8.91292C13.3105 8.71444 13.8173 8.33805 14.1759 7.83667C14.5346 7.33529 14.7271 6.73412 14.7264 6.11767C14.7339 4.51267 13.4259 3.19117 11.8209 3.17017Z" fill="url(#paint50_radial_201_251)"/>
<path id="Vector_67" d="M11.8209 3.17017C11.2844 3.16322 10.7562 3.30253 10.2929 3.57315C9.82966 3.84376 9.44886 4.23546 9.19141 4.70617C9.61817 4.60736 10.0546 4.55629 10.4927 4.55392H10.5962C11.8487 4.55392 12.9002 5.57767 12.8934 6.83017C12.8894 7.37285 12.6903 7.89597 12.3324 8.30392C12.2765 8.36515 12.2424 8.44321 12.2355 8.52586C12.2287 8.60852 12.2494 8.69112 12.2945 8.76073C12.3396 8.83034 12.4065 8.88304 12.4848 8.91058C12.563 8.93811 12.6482 8.93894 12.7269 8.91292C13.3105 8.71444 13.8173 8.33805 14.1759 7.83667C14.5346 7.33529 14.7271 6.73412 14.7264 6.11767C14.7339 4.51267 13.4259 3.19117 11.8209 3.17017Z" fill="url(#paint51_radial_201_251)"/>
<path id="Vector_68" d="M11.8209 3.17017C11.2844 3.16322 10.7562 3.30253 10.2929 3.57315C9.82966 3.84376 9.44886 4.23546 9.19141 4.70617C9.61817 4.60736 10.0546 4.55629 10.4927 4.55392H10.5962C11.8487 4.55392 12.9002 5.57767 12.8934 6.83017C12.8894 7.37285 12.6903 7.89597 12.3324 8.30392C12.2765 8.36515 12.2424 8.44321 12.2355 8.52586C12.2287 8.60852 12.2494 8.69112 12.2945 8.76073C12.3396 8.83034 12.4065 8.88304 12.4848 8.91058C12.563 8.93811 12.6482 8.93894 12.7269 8.91292C13.3105 8.71444 13.8173 8.33805 14.1759 7.83667C14.5346 7.33529 14.7271 6.73412 14.7264 6.11767C14.7339 4.51267 13.4259 3.19117 11.8209 3.17017Z" fill="url(#paint52_radial_201_251)"/>
</g>
<g id="Group_21" filter="url(#filter19_f_201_251)">
<path id="Vector_69" d="M11.9382 17.6991C12.2907 17.6991 12.6057 17.5041 12.7849 17.2131C12.9499 16.9461 12.7774 16.5898 12.4774 16.5898H11.3974C11.0982 16.5898 10.9182 16.9536 11.0907 17.2123C11.2707 17.5123 11.5857 17.6991 11.9382 17.6991Z" fill="#905966"/>
</g>
<g id="Group_22" filter="url(#filter20_f_201_251)">
<path id="Vector_70" d="M12.0307 17.4569C12.3824 17.4569 12.6974 17.2619 12.8774 16.9709C13.0424 16.7039 12.8699 16.3477 12.5699 16.3477H11.4899C11.1899 16.3477 11.0099 16.7122 11.1824 16.9709C11.3624 17.2709 11.6774 17.4569 12.0299 17.4569H12.0307Z" fill="url(#paint53_radial_201_251)"/>
<path id="Vector_71" d="M12.0307 17.4569C12.3824 17.4569 12.6974 17.2619 12.8774 16.9709C13.0424 16.7039 12.8699 16.3477 12.5699 16.3477H11.4899C11.1899 16.3477 11.0099 16.7122 11.1824 16.9709C11.3624 17.2709 11.6774 17.4569 12.0299 17.4569H12.0307Z" fill="url(#paint54_radial_201_251)"/>
</g>
<g id="Group_23" filter="url(#filter21_f_201_251)">
<path id="Vector_72" d="M14.8226 14.3752C14.9313 14.5199 14.7041 14.6969 14.4468 14.8897C14.1888 15.0817 13.9976 15.2174 13.8896 15.0727C13.7808 14.9279 13.9016 14.6542 14.1596 14.4614C14.4176 14.2687 14.7146 14.2297 14.8226 14.3752Z" fill="#C7A7A3"/>
<path id="Vector_73" d="M14.8226 14.3752C14.9313 14.5199 14.7041 14.6969 14.4468 14.8897C14.1888 15.0817 13.9976 15.2174 13.8896 15.0727C13.7808 14.9279 13.9016 14.6542 14.1596 14.4614C14.4176 14.2687 14.7146 14.2297 14.8226 14.3752Z" fill="url(#paint55_radial_201_251)"/>
</g>
<g id="Group_24" filter="url(#filter22_f_201_251)">
<path id="Vector_74" d="M16.2909 15.3749C16.2456 15.077 16.1076 14.8009 15.8964 14.5859L15.4531 15.0719L15.6534 15.4612L16.2909 15.3749Z" fill="url(#paint56_linear_201_251)"/>
</g>
<g id="Group_25" filter="url(#filter23_f_201_251)">
<path id="Vector_75" d="M10.1118 15.3968C10.1118 14.9048 9.71133 14.577 9.60333 14.4773L9.11133 14.9535L9.41433 15.5693L10.1118 15.3968Z" fill="url(#paint57_linear_201_251)"/>
</g>
<g id="Group_26" filter="url(#filter24_f_201_251)">
<path id="Vector_76" d="M8.41936 15.0005C8.74365 14.8287 8.93612 14.5565 8.84925 14.3925C8.76238 14.2285 8.42906 14.2349 8.10476 14.4067C7.78047 14.5785 7.588 14.8507 7.67488 15.0147C7.76175 15.1787 8.09506 15.1723 8.41936 15.0005Z" fill="#C7A7A3" fill-opacity="0.9"/>
<path id="Vector_77" d="M8.41936 15.0005C8.74365 14.8287 8.93612 14.5565 8.84925 14.3925C8.76238 14.2285 8.42906 14.2349 8.10476 14.4067C7.78047 14.5785 7.588 14.8507 7.67488 15.0147C7.76175 15.1787 8.09506 15.1723 8.41936 15.0005Z" fill="url(#paint58_radial_201_251)"/>
</g>
<g id="Group_27" filter="url(#filter25_f_201_251)">
<path id="Vector_78" d="M13.6555 8.08727L16.6727 6.47852C18.5905 7.86227 18.6775 10.3628 18.5905 11.04L14.7775 11.559C14.3466 11.6178 13.9087 11.5231 13.5405 11.2916C13.1724 11.0601 12.8974 10.7065 12.7636 10.2927C12.6299 9.87884 12.646 9.43117 12.809 9.02799C12.972 8.6248 13.2717 8.2918 13.6555 8.08727Z" fill="url(#paint59_linear_201_251)"/>
</g>
</g>
</g>
<defs>
<filter id="filter0_d_201_251" x="4.80977" y="0.911963" width="14.3551" height="6.70493" filterUnits="userSpaceOnUse" color-interpolation-filters="sRGB">
<feFlood flood-opacity="0" result="BackgroundImageFix"/>
<feColorMatrix in="SourceAlpha" type="matrix" values="0 0 0 0 0 0 0 0 0 0 0 0 0 0 0 0 0 0 127 0" result="hardAlpha"/>
<feOffset dy="-0.15"/>
<feGaussianBlur stdDeviation="0.225"/>
<feComposite in2="hardAlpha" operator="out"/>
<feColorMatrix type="matrix" values="0 0 0 0 0.298039 0 0 0 0 0.596078 0 0 0 0 0.72549 0 0 0 1 0"/>
<feBlend mode="normal" in2="BackgroundImageFix" result="effect1_dropShadow_201_251"/>
<feBlend mode="normal" in="SourceGraphic" in2="effect1_dropShadow_201_251" result="shape"/>
</filter>
<filter id="filter1_d_201_251" x="15.4375" y="19.1527" width="6.08438" height="2.17056" filterUnits="userSpaceOnUse" color-interpolation-filters="sRGB">
<feFlood flood-opacity="0" result="BackgroundImageFix"/>
<feColorMatrix in="SourceAlpha" type="matrix" values="0 0 0 0 0 0 0 0 0 0 0 0 0 0 0 0 0 0 127 0" result="hardAlpha"/>
<feOffset dx="-0.075" dy="0.075"/>
<feGaussianBlur stdDeviation="0.15"/>
<feComposite in2="hardAlpha" operator="out"/>
<feColorMatrix type="matrix" values="0 0 0 0 0.839216 0 0 0 0 0.768627 0 0 0 0 0.729412 0 0 0 1 0"/>
<feBlend mode="normal" in2="BackgroundImageFix" result="effect1_dropShadow_201_251"/>
<feBlend mode="normal" in="SourceGraphic" in2="effect1_dropShadow_201_251" result="shape"/>
</filter>
<filter id="filter2_d_201_251" x="15.4375" y="17.5821" width="7.28555" height="2.17056" filterUnits="userSpaceOnUse" color-interpolation-filters="sRGB">
<feFlood flood-opacity="0" result="BackgroundImageFix"/>
<feColorMatrix in="SourceAlpha" type="matrix" values="0 0 0 0 0 0 0 0 0 0 0 0 0 0 0 0 0 0 127 0" result="hardAlpha"/>
<feOffset dx="-0.075" dy="0.075"/>
<feGaussianBlur stdDeviation="0.15"/>
<feComposite in2="hardAlpha" operator="out"/>
<feColorMatrix type="matrix" values="0 0 0 0 0.839216 0 0 0 0 0.768627 0 0 0 0 0.729412 0 0 0 1 0"/>
<feBlend mode="normal" in2="BackgroundImageFix" result="effect1_dropShadow_201_251"/>
<feBlend mode="normal" in="SourceGraphic" in2="effect1_dropShadow_201_251" result="shape"/>
</filter>
<filter id="filter3_d_201_251" x="14.8961" y="16.9821" width="4.02656" height="5.72017" filterUnits="userSpaceOnUse" color-interpolation-filters="sRGB">
<feFlood flood-opacity="0" result="BackgroundImageFix"/>
<feColorMatrix in="SourceAlpha" type="matrix" values="0 0 0 0 0 0 0 0 0 0 0 0 0 0 0 0 0 0 127 0" result="hardAlpha"/>
<feOffset dx="0.3" dy="-0.3"/>
<feGaussianBlur stdDeviation="0.2625"/>
<feComposite in2="hardAlpha" operator="out"/>
<feColorMatrix type="matrix" values="0 0 0 0 0.639216 0 0 0 0 0.54902 0 0 0 0 0.713726 0 0 0 1 0"/>
<feBlend mode="normal" in2="BackgroundImageFix" result="effect1_dropShadow_201_251"/>
<feBlend mode="normal" in="SourceGraphic" in2="effect1_dropShadow_201_251" result="shape"/>
</filter>
<filter id="filter4_d_201_251" x="2.92188" y="20.0857" width="5.45508" height="2.6543" filterUnits="userSpaceOnUse" color-interpolation-filters="sRGB">
<feFlood flood-opacity="0" result="BackgroundImageFix"/>
<feColorMatrix in="SourceAlpha" type="matrix" values="0 0 0 0 0 0 0 0 0 0 0 0 0 0 0 0 0 0 127 0" result="hardAlpha"/>
<feOffset dx="-0.375" dy="-0.3"/>
<feGaussianBlur stdDeviation="0.28125"/>
<feComposite in2="hardAlpha" operator="out"/>
<feColorMatrix type="matrix" values="0 0 0 0 0.635294 0 0 0 0 0.541176 0 0 0 0 0.717647 0 0 0 1 0"/>
<feBlend mode="normal" in2="BackgroundImageFix" result="effect1_dropShadow_201_251"/>
<feBlend mode="normal" in="SourceGraphic" in2="effect1_dropShadow_201_251" result="shape"/>
</filter>
<filter id="filter5_d_201_251" x="1.76758" y="18.5152" width="6.60938" height="2.69556" filterUnits="userSpaceOnUse" color-interpolation-filters="sRGB">
<feFlood flood-opacity="0" result="BackgroundImageFix"/>
<feColorMatrix in="SourceAlpha" type="matrix" values="0 0 0 0 0 0 0 0 0 0 0 0 0 0 0 0 0 0 127 0" result="hardAlpha"/>
<feOffset dx="-0.375" dy="-0.3"/>
<feGaussianBlur stdDeviation="0.28125"/>
<feComposite in2="hardAlpha" operator="out"/>
<feColorMatrix type="matrix" values="0 0 0 0 0.780392 0 0 0 0 0.694118 0 0 0 0 0.776471 0 0 0 1 0"/>
<feBlend mode="normal" in2="BackgroundImageFix" result="effect1_dropShadow_201_251"/>
<feBlend mode="normal" in="SourceGraphic" in2="effect1_dropShadow_201_251" result="shape"/>
</filter>
<filter id="filter6_d_201_251" x="0.566406" y="16.9446" width="7.81055" height="2.69556" filterUnits="userSpaceOnUse" color-interpolation-filters="sRGB">
<feFlood flood-opacity="0" result="BackgroundImageFix"/>
<feColorMatrix in="SourceAlpha" type="matrix" values="0 0 0 0 0 0 0 0 0 0 0 0 0 0 0 0 0 0 127 0" result="hardAlpha"/>
<feOffset dx="-0.375" dy="-0.3"/>
<feGaussianBlur stdDeviation="0.28125"/>
<feComposite in2="hardAlpha" operator="out"/>
<feColorMatrix type="matrix" values="0 0 0 0 0.780392 0 0 0 0 0.694118 0 0 0 0 0.776471 0 0 0 1 0"/>
<feBlend mode="normal" in2="BackgroundImageFix" result="effect1_dropShadow_201_251"/>
<feBlend mode="normal" in="SourceGraphic" in2="effect1_dropShadow_201_251" result="shape"/>
</filter>
<filter id="filter7_d_201_251" x="5.0793" y="16.9821" width="4.02656" height="5.72017" filterUnits="userSpaceOnUse" color-interpolation-filters="sRGB">
<feFlood flood-opacity="0" result="BackgroundImageFix"/>
<feColorMatrix in="SourceAlpha" type="matrix" values="0 0 0 0 0 0 0 0 0 0 0 0 0 0 0 0 0 0 127 0" result="hardAlpha"/>
<feOffset dx="-0.3" dy="-0.3"/>
<feGaussianBlur stdDeviation="0.2625"/>
<feComposite in2="hardAlpha" operator="out"/>
<feColorMatrix type="matrix" values="0 0 0 0 0.67451 0 0 0 0 0.54902 0 0 0 0 0.709804 0 0 0 1 0"/>
<feBlend mode="normal" in2="BackgroundImageFix" result="effect1_dropShadow_201_251"/>
<feBlend mode="normal" in="SourceGraphic" in2="effect1_dropShadow_201_251" result="shape"/>
</filter>
<filter id="filter8_f_201_251" x="3.87109" y="13.866" width="3.16992" height="3.16943" filterUnits="userSpaceOnUse" color-interpolation-filters="sRGB">
<feFlood flood-opacity="0" result="BackgroundImageFix"/>
<feBlend mode="normal" in="SourceGraphic" in2="BackgroundImageFix" result="shape"/>
<feGaussianBlur stdDeviation="0.09375" result="effect1_foregroundBlur_201_251"/>
</filter>
<filter id="filter9_f_201_251" x="16.9727" y="13.8225" width="3.25586" height="3.25488" filterUnits="userSpaceOnUse" color-interpolation-filters="sRGB">
<feFlood flood-opacity="0" result="BackgroundImageFix"/>
<feBlend mode="normal" in="SourceGraphic" in2="BackgroundImageFix" result="shape"/>
<feGaussianBlur stdDeviation="0.09375" result="effect1_foregroundBlur_201_251"/>
</filter>
<filter id="filter10_dd_201_251" x="3.23164" y="3" width="18.8582" height="20.9875" filterUnits="userSpaceOnUse" color-interpolation-filters="sRGB">
<feFlood flood-opacity="0" result="BackgroundImageFix"/>
<feColorMatrix in="SourceAlpha" type="matrix" values="0 0 0 0 0 0 0 0 0 0 0 0 0 0 0 0 0 0 127 0" result="hardAlpha"/>
<feOffset dx="0.9375"/>
<feGaussianBlur stdDeviation="0.75"/>
<feComposite in2="hardAlpha" operator="out"/>
<feColorMatrix type="matrix" values="0 0 0 0 0.607843 0 0 0 0 0.47451 0 0 0 0 0.419608 0 0 0 1 0"/>
<feBlend mode="normal" in2="BackgroundImageFix" result="effect1_dropShadow_201_251"/>
<feColorMatrix in="SourceAlpha" type="matrix" values="0 0 0 0 0 0 0 0 0 0 0 0 0 0 0 0 0 0 127 0" result="hardAlpha"/>
<feOffset dx="-0.3"/>
<feGaussianBlur stdDeviation="0.45"/>
<feComposite in2="hardAlpha" operator="out"/>
<feColorMatrix type="matrix" values="0 0 0 0 0.780392 0 0 0 0 0.643137 0 0 0 0 0.541176 0 0 0 1 0"/>
<feBlend mode="normal" in2="effect1_dropShadow_201_251" result="effect2_dropShadow_201_251"/>
<feBlend mode="normal" in="SourceGraphic" in2="effect2_dropShadow_201_251" result="shape"/>
</filter>
<filter id="filter11_f_201_251" x="9.41914" y="17.6416" width="0.667578" height="0.725928" filterUnits="userSpaceOnUse" color-interpolation-filters="sRGB">
<feFlood flood-opacity="0" result="BackgroundImageFix"/>
<feBlend mode="normal" in="SourceGraphic" in2="BackgroundImageFix" result="shape"/>
<feGaussianBlur stdDeviation="0.0375" result="effect1_foregroundBlur_201_251"/>
</filter>
<filter id="filter12_d_201_251" x="8.85742" y="17.0798" width="6.34375" height="3.1604" filterUnits="userSpaceOnUse" color-interpolation-filters="sRGB">
<feFlood flood-opacity="0" result="BackgroundImageFix"/>
<feColorMatrix in="SourceAlpha" type="matrix" values="0 0 0 0 0 0 0 0 0 0 0 0 0 0 0 0 0 0 127 0" result="hardAlpha"/>
<feOffset/>
<feGaussianBlur stdDeviation="0.375"/>
<feComposite in2="hardAlpha" operator="out"/>
<feColorMatrix type="matrix" values="0 0 0 0 0.529412 0 0 0 0 0 0 0 0 0 0.301961 0 0 0 1 0"/>
<feBlend mode="normal" in2="BackgroundImageFix" result="effect1_dropShadow_201_251"/>
<feBlend mode="normal" in="SourceGraphic" in2="effect1_dropShadow_201_251" result="shape"/>
</filter>
<filter id="filter13_d_201_251" x="6.95508" y="11.0428" width="3.20898" height="1.7019" filterUnits="userSpaceOnUse" color-interpolation-filters="sRGB">
<feFlood flood-opacity="0" result="BackgroundImageFix"/>
<feColorMatrix in="SourceAlpha" type="matrix" values="0 0 0 0 0 0 0 0 0 0 0 0 0 0 0 0 0 0 127 0" result="hardAlpha"/>
<feOffset dx="0.1875" dy="-0.225"/>
<feGaussianBlur stdDeviation="0.1875"/>
<feComposite in2="hardAlpha" operator="out"/>
<feColorMatrix type="matrix" values="0 0 0 0 0.239216 0 0 0 0 0.121569 0 0 0 0 0.196078 0 0 0 1 0"/>
<feBlend mode="normal" in2="BackgroundImageFix" result="effect1_dropShadow_201_251"/>
<feBlend mode="normal" in="SourceGraphic" in2="effect1_dropShadow_201_251" result="shape"/>
</filter>
<filter id="filter14_f_201_251" x="7.29141" y="11.6906" width="2.23359" height="0.727246" filterUnits="userSpaceOnUse" color-interpolation-filters="sRGB">
<feFlood flood-opacity="0" result="BackgroundImageFix"/>
<feBlend mode="normal" in="SourceGraphic" in2="BackgroundImageFix" result="shape"/>
<feGaussianBlur stdDeviation="0.075" result="effect1_foregroundBlur_201_251"/>
</filter>
<filter id="filter15_d_201_251" x="13.5684" y="11.0428" width="3.20898" height="1.7019" filterUnits="userSpaceOnUse" color-interpolation-filters="sRGB">
<feFlood flood-opacity="0" result="BackgroundImageFix"/>
<feColorMatrix in="SourceAlpha" type="matrix" values="0 0 0 0 0 0 0 0 0 0 0 0 0 0 0 0 0 0 127 0" result="hardAlpha"/>
<feOffset dx="-0.1875" dy="-0.225"/>
<feGaussianBlur stdDeviation="0.1875"/>
<feComposite in2="hardAlpha" operator="out"/>
<feColorMatrix type="matrix" values="0 0 0 0 0.247059 0 0 0 0 0.141176 0 0 0 0 0.176471 0 0 0 1 0"/>
<feBlend mode="normal" in2="BackgroundImageFix" result="effect1_dropShadow_201_251"/>
<feBlend mode="normal" in="SourceGraphic" in2="effect1_dropShadow_201_251" result="shape"/>
</filter>
<filter id="filter16_f_201_251" x="14.2426" y="11.6544" width="2.23555" height="0.727246" filterUnits="userSpaceOnUse" color-interpolation-filters="sRGB">
<feFlood flood-opacity="0" result="BackgroundImageFix"/>
<feBlend mode="normal" in="SourceGraphic" in2="BackgroundImageFix" result="shape"/>
<feGaussianBlur stdDeviation="0.075" result="effect1_foregroundBlur_201_251"/>
</filter>
<filter id="filter17_f_201_251" x="9.25195" y="3.41089" width="5.50781" height="6.08911" filterUnits="userSpaceOnUse" color-interpolation-filters="sRGB">
<feFlood flood-opacity="0" result="BackgroundImageFix"/>
<feBlend mode="normal" in="SourceGraphic" in2="BackgroundImageFix" result="shape"/>
<feGaussianBlur stdDeviation="0.1875" result="effect1_foregroundBlur_201_251"/>
</filter>
<filter id="filter18_d_201_251" x="8.74141" y="2.64492" width="6.28516" height="6.51196" filterUnits="userSpaceOnUse" color-interpolation-filters="sRGB">
<feFlood flood-opacity="0" result="BackgroundImageFix"/>
<feColorMatrix in="SourceAlpha" type="matrix" values="0 0 0 0 0 0 0 0 0 0 0 0 0 0 0 0 0 0 127 0" result="hardAlpha"/>
<feOffset dx="-0.075" dy="-0.15"/>
<feGaussianBlur stdDeviation="0.1875"/>
<feComposite in2="hardAlpha" operator="out"/>
<feColorMatrix type="matrix" values="0 0 0 0 0.188235 0 0 0 0 0.129412 0 0 0 0 0.12549 0 0 0 1 0"/>
<feBlend mode="normal" in2="BackgroundImageFix" result="effect1_dropShadow_201_251"/>
<feBlend mode="normal" in="SourceGraphic" in2="effect1_dropShadow_201_251" result="shape"/>
</filter>
<filter id="filter19_f_201_251" x="10.6484" y="16.2148" width="2.57617" height="1.85913" filterUnits="userSpaceOnUse" color-interpolation-filters="sRGB">
<feFlood flood-opacity="0" result="BackgroundImageFix"/>
<feBlend mode="normal" in="SourceGraphic" in2="BackgroundImageFix" result="shape"/>
<feGaussianBlur stdDeviation="0.1875" result="effect1_foregroundBlur_201_251"/>
</filter>
<filter id="filter20_f_201_251" x="10.9277" y="16.1602" width="2.20117" height="1.48413" filterUnits="userSpaceOnUse" color-interpolation-filters="sRGB">
<feFlood flood-opacity="0" result="BackgroundImageFix"/>
<feBlend mode="normal" in="SourceGraphic" in2="BackgroundImageFix" result="shape"/>
<feGaussianBlur stdDeviation="0.09375" result="effect1_foregroundBlur_201_251"/>
</filter>
<filter id="filter21_f_201_251" x="13.7746" y="14.2121" width="1.15" height="0.996191" filterUnits="userSpaceOnUse" color-interpolation-filters="sRGB">
<feFlood flood-opacity="0" result="BackgroundImageFix"/>
<feBlend mode="normal" in="SourceGraphic" in2="BackgroundImageFix" result="shape"/>
<feGaussianBlur stdDeviation="0.0375" result="effect1_foregroundBlur_201_251"/>
</filter>
<filter id="filter22_f_201_251" x="15.3031" y="14.4359" width="1.13789" height="1.17524" filterUnits="userSpaceOnUse" color-interpolation-filters="sRGB">
<feFlood flood-opacity="0" result="BackgroundImageFix"/>
<feBlend mode="normal" in="SourceGraphic" in2="BackgroundImageFix" result="shape"/>
<feGaussianBlur stdDeviation="0.075" result="effect1_foregroundBlur_201_251"/>
</filter>
<filter id="filter23_f_201_251" x="8.96133" y="14.3273" width="1.3" height="1.39204" filterUnits="userSpaceOnUse" color-interpolation-filters="sRGB">
<feFlood flood-opacity="0" result="BackgroundImageFix"/>
<feBlend mode="normal" in="SourceGraphic" in2="BackgroundImageFix" result="shape"/>
<feGaussianBlur stdDeviation="0.075" result="effect1_foregroundBlur_201_251"/>
</filter>
<filter id="filter24_f_201_251" x="7.5793" y="14.1987" width="1.36484" height="1.00986" filterUnits="userSpaceOnUse" color-interpolation-filters="sRGB">
<feFlood flood-opacity="0" result="BackgroundImageFix"/>
<feBlend mode="normal" in="SourceGraphic" in2="BackgroundImageFix" result="shape"/>
<feGaussianBlur stdDeviation="0.0375" result="effect1_foregroundBlur_201_251"/>
</filter>
<filter id="filter25_f_201_251" x="10.7988" y="4.60352" width="9.6875" height="8.84741" filterUnits="userSpaceOnUse" color-interpolation-filters="sRGB">
<feFlood flood-opacity="0" result="BackgroundImageFix"/>
<feBlend mode="normal" in="SourceGraphic" in2="BackgroundImageFix" result="shape"/>
<feGaussianBlur stdDeviation="0.9375" result="effect1_foregroundBlur_201_251"/>
</filter>
<radialGradient id="paint0_radial_201_251" cx="0" cy="0" r="1" gradientUnits="userSpaceOnUse" gradientTransform="translate(15.7028 2.47346) rotate(101.497) scale(2.82225 7.44019)">
<stop stop-color="#4DE2FF"/>
<stop offset="1" stop-color="#33AED4"/>
</radialGradient>
<radialGradient id="paint1_radial_201_251" cx="0" cy="0" r="1" gradientUnits="userSpaceOnUse" gradientTransform="translate(6.42227 5.49746) rotate(-57.45) scale(3.92051 7.98023)">
<stop stop-color="#3D8DB9"/>
<stop offset="1" stop-color="#3D8DB9" stop-opacity="0"/>
</radialGradient>
<radialGradient id="paint2_radial_201_251" cx="0" cy="0" r="1" gradientUnits="userSpaceOnUse" gradientTransform="translate(7.37102 5.16896) rotate(47.5448) scale(1.49303 1.13413)">
<stop offset="0.158" stop-color="#5BBFD1"/>
<stop offset="1" stop-color="#5BBFD1" stop-opacity="0"/>
</radialGradient>
<radialGradient id="paint3_radial_201_251" cx="0" cy="0" r="1" gradientUnits="userSpaceOnUse" gradientTransform="translate(7.74602 5.50871) rotate(-136.332) scale(1.06924 0.63886)">
<stop stop-color="#47C2D5"/>
<stop offset="1" stop-color="#47C2D5" stop-opacity="0"/>
</radialGradient>
<radialGradient id="paint4_radial_201_251" cx="0" cy="0" r="1" gradientUnits="userSpaceOnUse" gradientTransform="translate(17.4495 5.76596) rotate(145.322) scale(2.45102 1.76917)">
<stop offset="0.21" stop-color="#4997C1"/>
<stop offset="1" stop-color="#4997C1" stop-opacity="0"/>
</radialGradient>
<radialGradient id="paint5_radial_201_251" cx="0" cy="0" r="1" gradientUnits="userSpaceOnUse" gradientTransform="translate(16.9455 4.93496) rotate(144.605) scale(1.09255 0.788615)">
<stop offset="0.21" stop-color="#439FB2"/>
<stop offset="1" stop-color="#439FB2" stop-opacity="0"/>
</radialGradient>
<radialGradient id="paint6_radial_201_251" cx="0" cy="0" r="1" gradientUnits="userSpaceOnUse" gradientTransform="translate(8.78927 7.31696) rotate(-104.921) scale(5.64354 14.3917)">
<stop offset="0.879" stop-color="#43ACC0" stop-opacity="0"/>
<stop offset="1" stop-color="#43ACC0"/>
</radialGradient>
<linearGradient id="paint7_linear_201_251" x1="18.4397" y1="22.644" x2="18.4397" y2="21.5235" gradientUnits="userSpaceOnUse">
<stop offset="0.079" stop-color="#9A84AF"/>
<stop offset="1" stop-color="#C4B7CF" stop-opacity="0"/>
</linearGradient>
<radialGradient id="paint8_radial_201_251" cx="0" cy="0" r="1" gradientUnits="userSpaceOnUse" gradientTransform="translate(19.0435 20.6572) rotate(77.0838) scale(2.03735 3.6209)">
<stop offset="0.67" stop-color="#CEBFD0" stop-opacity="0"/>
<stop offset="0.891" stop-color="#A797B5"/>
</radialGradient>
<radialGradient id="paint9_radial_201_251" cx="0" cy="0" r="1" gradientUnits="userSpaceOnUse" gradientTransform="translate(20.1422 21.0337) rotate(130.743) scale(0.602537 0.332543)">
<stop offset="0.201" stop-color="white"/>
<stop offset="1" stop-color="#F7F1F1" stop-opacity="0"/>
</radialGradient>
<linearGradient id="paint10_linear_201_251" x1="18.328" y1="20.9482" x2="18.328" y2="21.2467" gradientUnits="userSpaceOnUse">
<stop stop-color="#CFCACF"/>
<stop offset="1" stop-color="#FEEEEC" stop-opacity="0"/>
</linearGradient>
<linearGradient id="paint11_linear_201_251" x1="19.1395" y1="20.9482" x2="19.1395" y2="20.1629" gradientUnits="userSpaceOnUse">
<stop offset="0.216" stop-color="#C6BEC8"/>
<stop offset="1" stop-color="#D4C7CD" stop-opacity="0"/>
</linearGradient>
<radialGradient id="paint12_radial_201_251" cx="0" cy="0" r="1" gradientUnits="userSpaceOnUse" gradientTransform="translate(19.9052 19.0792) rotate(74.205) scale(2.11907 4.52755)">
<stop offset="0.67" stop-color="#CEBFD0" stop-opacity="0"/>
<stop offset="0.891" stop-color="#A797B5"/>
</radialGradient>
<radialGradient id="paint13_radial_201_251" cx="0" cy="0" r="1" gradientUnits="userSpaceOnUse" gradientTransform="translate(21.2972 19.4654) rotate(136.738) scale(0.683974 0.380989)">
<stop offset="0.201" stop-color="white"/>
<stop offset="1" stop-color="#F7F1F1" stop-opacity="0"/>
</radialGradient>
<linearGradient id="paint14_linear_201_251" x1="19.8685" y1="19.3776" x2="19.8685" y2="18.5924" gradientUnits="userSpaceOnUse">
<stop offset="0.216" stop-color="#D3C5CF"/>
<stop offset="1" stop-color="#D4C7CD" stop-opacity="0"/>
</linearGradient>
<radialGradient id="paint15_radial_201_251" cx="0" cy="0" r="1" gradientUnits="userSpaceOnUse" gradientTransform="translate(20.8007 17.5086) rotate(70.9744) scale(2.15689 5.42239)">
<stop offset="0.699" stop-color="#CEBFD0" stop-opacity="0"/>
<stop offset="0.922" stop-color="#A89BB4"/>
</radialGradient>
<radialGradient id="paint16_radial_201_251" cx="0" cy="0" r="1" gradientUnits="userSpaceOnUse" gradientTransform="translate(22.498 17.8949) rotate(142.331) scale(0.767066 0.414126)">
<stop offset="0.201" stop-color="white"/>
<stop offset="1" stop-color="#F7F1F1" stop-opacity="0"/>
</radialGradient>
<linearGradient id="paint17_linear_201_251" x1="18.0977" y1="21.8556" x2="17.3792" y2="21.8556" gradientUnits="userSpaceOnUse">
<stop stop-color="#F6EFF5"/>
<stop offset="1" stop-color="#F6EFF5" stop-opacity="0"/>
</linearGradient>
<radialGradient id="paint18_radial_201_251" cx="0" cy="0" r="1" gradientUnits="userSpaceOnUse" gradientTransform="translate(6.60963 21.3877) rotate(111.623) scale(1.39925 1.10896)">
<stop offset="0.308" stop-color="#AF9ABA"/>
<stop offset="1" stop-color="#AF9ABA" stop-opacity="0"/>
</radialGradient>
<radialGradient id="paint19_radial_201_251" cx="0" cy="0" r="1" gradientUnits="userSpaceOnUse" gradientTransform="translate(5.07437 22.6065) rotate(-76.1069) scale(1.70818 4.17149)">
<stop offset="0.513" stop-color="#E7CBD8" stop-opacity="0"/>
<stop offset="1" stop-color="#BFA9AD"/>
</radialGradient>
<radialGradient id="paint20_radial_201_251" cx="0" cy="0" r="1" gradientUnits="userSpaceOnUse" gradientTransform="translate(6.58633 19.6762) rotate(109.855) scale(1.79416 1.77272)">
<stop offset="0.308" stop-color="#CFB6BB"/>
<stop offset="1" stop-color="#CFB6BB" stop-opacity="0"/>
</radialGradient>
<radialGradient id="paint21_radial_201_251" cx="0" cy="0" r="1" gradientUnits="userSpaceOnUse" gradientTransform="translate(4.24408 21.0802) rotate(-69.6608) scale(1.81589 5.31033)">
<stop offset="0.624" stop-color="#D3B6B4" stop-opacity="0"/>
<stop offset="1" stop-color="#D3B6B4"/>
</radialGradient>
<radialGradient id="paint22_radial_201_251" cx="0" cy="0" r="1" gradientUnits="userSpaceOnUse" gradientTransform="translate(4.37533 18.9262) rotate(108.761) scale(2.52477 4.12392)">
<stop offset="0.701" stop-color="#B0A1BB" stop-opacity="0"/>
<stop offset="0.986" stop-color="#B0A1BB"/>
</radialGradient>
<linearGradient id="paint23_linear_201_251" x1="4.84666" y1="17.8071" x2="4.84666" y2="18.4694" gradientUnits="userSpaceOnUse">
<stop stop-color="#CAB1A7"/>
<stop offset="1" stop-color="#F2D3D7" stop-opacity="0"/>
</linearGradient>
<radialGradient id="paint24_radial_201_251" cx="0" cy="0" r="1" gradientUnits="userSpaceOnUse" gradientTransform="translate(3.53941 17.3564) rotate(109.359) scale(2.75747 5.29313)">
<stop offset="0.701" stop-color="#B0A1BB" stop-opacity="0"/>
<stop offset="0.986" stop-color="#B0A1BB"/>
</radialGradient>
<radialGradient id="paint25_radial_201_251" cx="0" cy="0" r="1" gradientUnits="userSpaceOnUse" gradientTransform="translate(7.59391 20.4497) rotate(122.4) scale(1.44345 2.35171)">
<stop stop-color="#D7B5CA"/>
<stop offset="1" stop-color="#DCBDC9"/>
</radialGradient>
<linearGradient id="paint26_linear_201_251" x1="5.9043" y1="21.8564" x2="6.84405" y2="21.8564" gradientUnits="userSpaceOnUse">
<stop stop-color="#E7D1D9"/>
<stop offset="1" stop-color="#DAC4CC" stop-opacity="0"/>
</linearGradient>
<linearGradient id="paint27_linear_201_251" x1="3.56928" y1="13.5479" x2="5.19078" y2="17.6991" gradientUnits="userSpaceOnUse">
<stop stop-color="#7C554F"/>
<stop offset="1" stop-color="#864D67"/>
</linearGradient>
<radialGradient id="paint28_radial_201_251" cx="0" cy="0" r="1" gradientUnits="userSpaceOnUse" gradientTransform="translate(5.4555 15.58) rotate(176.967) scale(2.45189 2.54964)">
<stop offset="0.795" stop-color="#9D7668" stop-opacity="0"/>
<stop offset="1" stop-color="#9D7668"/>
</radialGradient>
<radialGradient id="paint29_radial_201_251" cx="0" cy="0" r="1" gradientUnits="userSpaceOnUse" gradientTransform="translate(5.45584 15.45) rotate(90) scale(1.39726)">
<stop stop-color="#744C4D"/>
<stop offset="1" stop-color="#744745"/>
</radialGradient>
<linearGradient id="paint30_linear_201_251" x1="20.5943" y1="14.2829" x2="18.8078" y2="17.1801" gradientUnits="userSpaceOnUse">
<stop stop-color="#CCA389"/>
<stop offset="1" stop-color="#AE7E73"/>
</linearGradient>
<radialGradient id="paint31_radial_201_251" cx="0" cy="0" r="1" gradientUnits="userSpaceOnUse" gradientTransform="translate(18.8401 14.6286) rotate(90.9486) scale(3.26506 3.12905)">
<stop offset="0.766" stop-color="#935977" stop-opacity="0"/>
<stop offset="1" stop-color="#935977"/>
</radialGradient>
<radialGradient id="paint32_radial_201_251" cx="0" cy="0" r="1" gradientUnits="userSpaceOnUse" gradientTransform="translate(18.8401 15.1694) rotate(-48.351) scale(1.92408 1.89866)">
<stop offset="0.586" stop-color="#9B6859"/>
<stop offset="0.883" stop-color="#9B6859" stop-opacity="0"/>
</radialGradient>
<radialGradient id="paint33_radial_201_251" cx="0" cy="0" r="1" gradientUnits="userSpaceOnUse" gradientTransform="translate(18.9728 16.0664) rotate(-77.9693) scale(2.69686 2.1178)">
<stop offset="0.879" stop-color="#BC987A" stop-opacity="0"/>
<stop offset="1" stop-color="#BC987A"/>
</radialGradient>
<radialGradient id="paint34_radial_201_251" cx="0" cy="0" r="1" gradientUnits="userSpaceOnUse" gradientTransform="translate(19.0704 15.5588) rotate(8.9726) scale(1.03968 1.53703)">
<stop offset="0.55" stop-color="#B08471"/>
<stop offset="1" stop-color="#9D6959"/>
</radialGradient>
<linearGradient id="paint35_linear_201_251" x1="12.0414" y1="22.8877" x2="12.0414" y2="19.3417" gradientUnits="userSpaceOnUse">
<stop offset="0.195" stop-color="#9A5886"/>
<stop offset="1" stop-color="#9A5886" stop-opacity="0"/>
</linearGradient>
<linearGradient id="paint36_linear_201_251" x1="5.66644" y1="14.2395" x2="13.4492" y2="16.2285" gradientUnits="userSpaceOnUse">
<stop stop-color="#916F5C"/>
<stop offset="1" stop-color="#916F5C" stop-opacity="0"/>
</linearGradient>
<radialGradient id="paint37_radial_201_251" cx="0" cy="0" r="1" gradientUnits="userSpaceOnUse" gradientTransform="translate(4.67194 15.321) rotate(82.1709) scale(6.98347 2.12928)">
<stop stop-color="#9C7469"/>
<stop offset="1" stop-color="#9C7469" stop-opacity="0"/>
</radialGradient>
<radialGradient id="paint38_radial_201_251" cx="0" cy="0" r="1" gradientUnits="userSpaceOnUse" gradientTransform="translate(8.34769 22.488) rotate(-95.4923) scale(9.03541 14.1778)">
<stop offset="0.109" stop-color="#935C6F"/>
<stop offset="1" stop-color="#935C6F" stop-opacity="0"/>
</radialGradient>
<radialGradient id="paint39_radial_201_251" cx="0" cy="0" r="1" gradientUnits="userSpaceOnUse" gradientTransform="translate(8.52019 14.4773) rotate(-61.8211) scale(2.06026 2.74701)">
<stop offset="0.189" stop-color="#8E5A67"/>
<stop offset="1" stop-color="#8E5A67" stop-opacity="0"/>
</radialGradient>
<radialGradient id="paint40_radial_201_251" cx="0" cy="0" r="1" gradientUnits="userSpaceOnUse" gradientTransform="translate(15.6549 14.6498) rotate(-79.5789) scale(1.91247 2.23924)">
<stop offset="0.235" stop-color="#AD7974"/>
<stop offset="1" stop-color="#AD7974" stop-opacity="0"/>
</radialGradient>
<radialGradient id="paint41_radial_201_251" cx="0" cy="0" r="1" gradientUnits="userSpaceOnUse" gradientTransform="translate(17.1032 15.645) rotate(90) scale(2.50791 4.08617)">
<stop stop-color="#C5977D"/>
<stop offset="1" stop-color="#C5977D" stop-opacity="0"/>
</radialGradient>
<linearGradient id="paint42_linear_201_251" x1="12.0414" y1="22.8878" x2="12.0414" y2="20.466" gradientUnits="userSpaceOnUse">
<stop offset="0.195" stop-color="#985683"/>
<stop offset="1" stop-color="#9A5886" stop-opacity="0"/>
</linearGradient>
<linearGradient id="paint43_linear_201_251" x1="10.4127" y1="19.0717" x2="10.7584" y2="18.4447" gradientUnits="userSpaceOnUse">
<stop stop-color="#AB807D"/>
<stop offset="1" stop-color="#AB807D" stop-opacity="0"/>
</linearGradient>
<radialGradient id="paint44_radial_201_251" cx="0" cy="0" r="1" gradientUnits="userSpaceOnUse" gradientTransform="translate(14.9318 14.8665) rotate(90) scale(1.38368 2.20089)">
<stop offset="0.802" stop-color="#835A50"/>
<stop offset="1" stop-color="#6F4B49"/>
</radialGradient>
<radialGradient id="paint45_radial_201_251" cx="0" cy="0" r="1" gradientUnits="userSpaceOnUse" gradientTransform="translate(8.72479 14.8665) rotate(90) scale(1.38368 2.20089)">
<stop offset="0.802" stop-color="#835A50"/>
<stop offset="1" stop-color="#6F4B49"/>
</radialGradient>
<linearGradient id="paint46_linear_201_251" x1="9.53619" y1="11.8726" x2="7.34169" y2="12.1553" gradientUnits="userSpaceOnUse">
<stop stop-color="#543D3E"/>
<stop offset="1" stop-color="#543D3E" stop-opacity="0"/>
</linearGradient>
<linearGradient id="paint47_linear_201_251" x1="16.4874" y1="11.8364" x2="14.2929" y2="12.1192" gradientUnits="userSpaceOnUse">
<stop stop-color="#543D3E"/>
<stop offset="1" stop-color="#543D3E" stop-opacity="0"/>
</linearGradient>
<linearGradient id="paint48_linear_201_251" x1="12.252" y1="3.85879" x2="11.5335" y2="9.04354" gradientUnits="userSpaceOnUse">
<stop offset="0.709" stop-color="#614635"/>
<stop offset="1" stop-color="#81554E"/>
</linearGradient>
<radialGradient id="paint49_radial_201_251" cx="0" cy="0" r="1" gradientUnits="userSpaceOnUse" gradientTransform="translate(9.19141 6.19717) rotate(-11.0394) scale(5.51335 4.59937)">
<stop offset="0.826" stop-color="#584444" stop-opacity="0"/>
<stop offset="1" stop-color="#584444"/>
</radialGradient>
<radialGradient id="paint50_radial_201_251" cx="0" cy="0" r="1" gradientUnits="userSpaceOnUse" gradientTransform="translate(9.19141 6.56467) rotate(-23.6904) scale(4.62754 4.46811)">
<stop offset="0.719" stop-color="#483431"/>
<stop offset="0.912" stop-color="#483431" stop-opacity="0"/>
</radialGradient>
<radialGradient id="paint51_radial_201_251" cx="0" cy="0" r="1" gradientUnits="userSpaceOnUse" gradientTransform="translate(12.4639 7.45514) rotate(-122.764) scale(4.6504 4.7945)">
<stop offset="0.825" stop-color="#3E3431" stop-opacity="0"/>
<stop offset="1" stop-color="#3E3431"/>
</radialGradient>
<radialGradient id="paint52_radial_201_251" cx="0" cy="0" r="1" gradientUnits="userSpaceOnUse" gradientTransform="translate(11.4617 5.24542) rotate(57.8628) scale(3.983 3.82561)">
<stop offset="0.862" stop-color="#3B212B" stop-opacity="0"/>
<stop offset="0.966" stop-color="#3B212B"/>
</radialGradient>
<radialGradient id="paint53_radial_201_251" cx="0" cy="0" r="1" gradientUnits="userSpaceOnUse" gradientTransform="translate(11.4959 16.7737) rotate(1.40896) scale(1.31921 0.682135)">
<stop offset="0.468" stop-color="#AA816E"/>
<stop offset="1" stop-color="#CA9F87"/>
</radialGradient>
<radialGradient id="paint54_radial_201_251" cx="0" cy="0" r="1" gradientUnits="userSpaceOnUse" gradientTransform="translate(12.0284 16.3477) rotate(90) scale(0.983706 1.24162)">
<stop offset="0.559" stop-color="#96596F" stop-opacity="0"/>
<stop offset="1" stop-color="#96596F"/>
</radialGradient>
<radialGradient id="paint55_radial_201_251" cx="0" cy="0" r="1" gradientUnits="userSpaceOnUse" gradientTransform="translate(14.5421 15.0104) rotate(-127.812) scale(0.645158 0.888225)">
<stop offset="0.766" stop-color="#FFE6E2" stop-opacity="0"/>
<stop offset="0.966" stop-color="#FFE6E2"/>
</radialGradient>
<linearGradient id="paint56_linear_201_251" x1="16.2586" y1="14.9587" x2="15.7231" y2="15.2879" gradientUnits="userSpaceOnUse">
<stop stop-color="#B4948D"/>
<stop offset="1" stop-color="#B4948D" stop-opacity="0"/>
</linearGradient>
<linearGradient id="paint57_linear_201_251" x1="9.99333" y1="14.9588" x2="9.45783" y2="15.288" gradientUnits="userSpaceOnUse">
<stop stop-color="#B4948D"/>
<stop offset="1" stop-color="#B4948D" stop-opacity="0"/>
</linearGradient>
<radialGradient id="paint58_radial_201_251" cx="0" cy="0" r="1" gradientUnits="userSpaceOnUse" gradientTransform="translate(8.49084 15.1897) rotate(-118.811) scale(0.8427 1.01297)">
<stop offset="0.766" stop-color="#FFE6E2" stop-opacity="0"/>
<stop offset="0.966" stop-color="#FFE6E2"/>
</radialGradient>
<linearGradient id="paint59_linear_201_251" x1="13.186" y1="11.7968" x2="19.894" y2="7.75352" gradientUnits="userSpaceOnUse">
<stop stop-color="#C99F8B"/>
<stop offset="1" stop-color="#C99F8B" stop-opacity="0"/>
</linearGradient>
</defs>
</svg>
