<svg width="24" height="24" viewBox="0 0 24 24" fill="none" xmlns="http://www.w3.org/2000/svg">
<g id="emojione-v1:laptop-computer" clip-path="url(#clip0_201_223)">
<path id="Vector" d="M14.8376 17.7749H9.09375C9.22762 17.7749 9.33563 19.0915 9.33563 20.7134C9.33563 22.3364 9.228 23.653 9.09375 23.653H14.8376C14.7041 23.653 14.5958 22.3364 14.5958 20.7134C14.5965 19.0915 14.7041 17.7749 14.8376 17.7749Z" fill="#BFBEBE"/>
<path id="Vector_2" d="M11.1049 17.7749H9.09375C9.22762 17.7749 9.33562 19.0915 9.33562 20.7134C9.33562 22.3364 9.228 23.653 9.09375 23.653H11.1049C11.2387 23.653 11.3467 22.3364 11.3467 20.7134C11.3467 19.0915 11.2387 17.7749 11.1049 17.7749Z" fill="#AEAEAE"/>
<path id="Vector_3" d="M23.918 17.7413C23.918 19.2589 22.7743 20.4886 21.3658 20.4886H2.56705C1.15705 20.4886 0.0136719 19.2589 0.0136719 17.7413V3.8213C0.0136719 2.3063 1.15705 1.07593 2.56705 1.07593H21.3658C22.7743 1.07593 23.918 2.30518 23.918 3.8213V17.7413Z" fill="#D1D2D2"/>
<path id="Vector_4" d="M4.8493 17.7413V3.8213C4.8493 2.3063 5.99267 1.07593 7.4023 1.07593H2.56705C1.15705 1.07593 0.0136719 2.30518 0.0136719 3.8213V17.7413C0.0136719 19.2589 1.15705 20.4886 2.56705 20.4886H7.4023C5.99267 20.4886 4.8493 19.2586 4.8493 17.7409" fill="#C6C5C5"/>
<g id="Group">
<path id="Vector_5" d="M23.92 13.8528C23.92 15.3678 22.7762 16.5978 21.3678 16.5978H2.569C1.159 16.5978 0.015625 15.369 0.015625 13.8528V3.81108C0.015625 2.29346 1.159 1.06421 2.569 1.06421H21.3678C22.7762 1.06421 23.92 2.29346 23.92 3.81108V13.8528Z" fill="#243438"/>
<path id="Vector_6" d="M0.0136719 13.1438H23.9195V17.4064H0.0136719V13.1438Z" fill="#243438"/>
</g>
<path id="Vector_7" d="M22.0306 2.34155H1.9002C1.73408 2.34155 1.5957 2.43343 1.5957 2.54405V15.6282C1.5957 15.7392 1.73408 15.8307 1.9002 15.8307H22.0306C22.121 15.8307 22.1896 15.8116 22.2395 15.7778L22.247 15.7703C22.247 15.7703 22.253 15.7658 22.2545 15.7617C22.279 15.7489 22.2998 15.7298 22.3145 15.7063C22.3292 15.6828 22.3373 15.6559 22.3381 15.6282V2.54668C22.3366 2.43605 22.1967 2.34418 22.0306 2.34418" fill="#58C5E8"/>
<path id="Vector_8" d="M12.2611 11.0847C15.6271 13.1014 18.9155 14.4747 22.3366 15.3053V2.54405C22.3366 2.43343 22.1967 2.34155 22.0306 2.34155H3.55808C5.45558 5.91718 8.72108 8.96405 12.2618 11.0847M12.2881 13.2263C8.22683 11.0142 4.1607 7.95005 1.5957 4.1663V15.6278C1.5957 15.7388 1.73408 15.8303 1.9002 15.8303H18.3301C16.3231 15.1834 14.3217 14.3356 12.2888 13.2278" fill="#28A6DE"/>
<path id="Vector_9" d="M16.3946 23.5225C16.3946 23.7858 16.2679 23.9999 16.1122 23.9999H7.82098C7.66386 23.9999 7.53711 23.7858 7.53711 23.5225C7.53711 23.2589 7.66386 23.0452 7.82098 23.0452H16.1122C16.2679 23.044 16.3946 23.2585 16.3946 23.5225Z" fill="#D1D2D2"/>
<path id="Vector_10" d="M10.4766 23.5225C10.4766 23.2589 10.6033 23.0452 10.7589 23.0452H7.71206C7.55606 23.0452 7.42969 23.2589 7.42969 23.5225C7.42969 23.7858 7.55644 23.9999 7.71206 23.9999H10.7589C10.6033 23.9999 10.4766 23.7858 10.4766 23.5225Z" fill="#C6C5C5"/>
<path id="Vector_11" d="M12.8746 18.2307C12.8378 18.1955 12.7842 18.1853 12.7111 18.2063L12.29 18.314C12.1587 18.3496 12.0923 18.4362 12.0923 18.5757L12.0908 19.0261C12.0908 19.0913 12.1055 19.1397 12.1347 19.1675C12.1471 19.1793 12.1617 19.1886 12.1778 19.1945C12.1938 19.2005 12.211 19.2032 12.2281 19.2023C12.2506 19.2023 12.2716 19.1975 12.2986 19.1922L12.7193 19.085C12.8506 19.0497 12.9173 18.9627 12.9188 18.8213V18.3725C12.9177 18.3061 12.9031 18.2585 12.8746 18.2307ZM12.6511 18.7433C12.6511 18.7932 12.6278 18.824 12.5802 18.8371L12.431 18.8761C12.4228 18.8777 12.4145 18.8787 12.4062 18.8791C12.3939 18.8793 12.382 18.8752 12.3725 18.8675C12.3627 18.8581 12.3563 18.8405 12.3582 18.815V18.6548C12.3582 18.605 12.3815 18.5742 12.4283 18.5615L12.5795 18.5225C12.6053 18.5165 12.6248 18.5195 12.6361 18.5311C12.6473 18.5412 12.6522 18.5581 12.6522 18.5821V18.7437H12.6511V18.7433ZM11.8433 18.5738C11.8433 18.4343 11.7777 18.3473 11.6453 18.3121L11.2246 18.2045C11.1518 18.1835 11.0978 18.1947 11.063 18.2288C11.0322 18.2566 11.0176 18.3042 11.0176 18.3702L11.0191 18.8183C11.0206 18.9597 11.0862 19.0471 11.2171 19.082L11.6393 19.1896C11.6641 19.1971 11.6873 19.1997 11.7076 19.1997C11.7247 19.2006 11.7419 19.198 11.758 19.1919C11.7741 19.1858 11.7887 19.1765 11.801 19.1645C11.8302 19.1371 11.8448 19.0891 11.8448 19.0231L11.8433 18.5738ZM11.5636 18.8656C11.5561 18.8735 11.5448 18.8772 11.5302 18.8772C11.5302 18.8772 11.5141 18.8757 11.5055 18.8742L11.3555 18.8352C11.309 18.8221 11.2842 18.7913 11.2842 18.7415V18.5798C11.2842 18.5566 11.2902 18.5393 11.3 18.5288C11.3116 18.5172 11.3307 18.5142 11.3581 18.5202L11.5081 18.5592C11.5546 18.572 11.5793 18.6027 11.5793 18.6526V18.8142C11.5793 18.8375 11.5793 18.8551 11.5636 18.8656ZM12.1392 19.7285C12.1467 19.7285 12.1538 19.727 12.164 19.7236L12.314 19.685C12.3605 19.6741 12.3852 19.6418 12.3852 19.5905V19.4307C12.3858 19.4124 12.3807 19.3943 12.3706 19.379C12.3575 19.3662 12.3368 19.3647 12.3125 19.3711L12.161 19.4097C12.1145 19.4213 12.0908 19.4532 12.0908 19.5042L12.0893 19.6651C12.0893 19.6883 12.0953 19.7041 12.1055 19.7142C12.113 19.724 12.1246 19.7285 12.1392 19.7285ZM11.7968 19.7285C11.7879 19.7283 11.779 19.7267 11.7706 19.7236L11.6206 19.685C11.5741 19.6741 11.5505 19.6418 11.5505 19.5905L11.549 19.4307C11.549 19.4071 11.555 19.3913 11.5651 19.379C11.5767 19.3662 11.597 19.3647 11.6217 19.3711L11.7747 19.4097C11.8201 19.4213 11.8448 19.4532 11.8448 19.5042V19.6651C11.8448 19.6883 11.8388 19.7041 11.8302 19.7142C11.826 19.7189 11.8209 19.7226 11.8151 19.725C11.8093 19.7275 11.8031 19.7287 11.7968 19.7285Z" fill="#243438"/>
</g>
<defs>
<clipPath id="clip0_201_223">
<rect width="24" height="24" fill="white"/>
</clipPath>
</defs>
</svg>
