<svg width="24" height="24" viewBox="0 0 24 24" fill="none" xmlns="http://www.w3.org/2000/svg">
<g id="twemoji:video-game">
<path id="Vector" d="M1.42078 9.90392L1.41811 9.90259C1.41811 9.90259 0.0507812 18.1806 0.0507812 19.3739C0.0507812 20.5899 0.946115 21.5753 2.05078 21.5753C2.50411 21.5753 2.91745 21.4033 3.25278 21.1233L10.0301 15.1646L1.42078 9.90392ZM22.5474 9.90392L22.5501 9.90259C22.5501 9.90259 23.9174 18.1806 23.9174 19.3739C23.9174 20.5899 23.0221 21.5753 21.9174 21.5753C21.4641 21.5753 21.0508 21.4033 20.7154 21.1233L13.9381 15.1646L22.5474 9.90392Z" fill="#31373D"/>
<g id="Group">
<path id="Vector_2" d="M17.3151 16.034C20.4447 16.034 22.9818 13.497 22.9818 10.3674C22.9818 7.23774 20.4447 4.70068 17.3151 4.70068C14.1855 4.70068 11.6484 7.23774 11.6484 10.3674C11.6484 13.497 14.1855 16.034 17.3151 16.034Z" fill="#14171A"/>
<path id="Vector_3" d="M6.64909 16.034C9.7787 16.034 12.3158 13.497 12.3158 10.3674C12.3158 7.23774 9.7787 4.70068 6.64909 4.70068C3.51947 4.70068 0.982422 7.23774 0.982422 10.3674C0.982422 13.497 3.51947 16.034 6.64909 16.034Z" fill="#14171A"/>
<path id="Vector_4" d="M6.64844 4.70068H17.3151V15.9473H6.64844V4.70068Z" fill="#14171A"/>
</g>
<path id="Vector_5" d="M8.71615 18.8674C10.5571 18.8674 12.0495 17.375 12.0495 15.534C12.0495 13.6931 10.5571 12.2007 8.71615 12.2007C6.8752 12.2007 5.38281 13.6931 5.38281 15.534C5.38281 17.375 6.8752 18.8674 8.71615 18.8674Z" fill="#14171A"/>
<path id="Vector_6" d="M15.2493 18.8674C17.0903 18.8674 18.5827 17.375 18.5827 15.534C18.5827 13.6931 17.0903 12.2007 15.2493 12.2007C13.4084 12.2007 11.916 13.6931 11.916 15.534C11.916 17.375 13.4084 18.8674 15.2493 18.8674Z" fill="#14171A"/>
<path id="Vector_7" d="M15.25 17.5339C16.3546 17.5339 17.25 16.6385 17.25 15.5339C17.25 14.4294 16.3546 13.5339 15.25 13.5339C14.1454 13.5339 13.25 14.4294 13.25 15.5339C13.25 16.6385 14.1454 17.5339 15.25 17.5339Z" fill="#67757F"/>
<path id="Vector_8" d="M8.7168 17.5339C9.82137 17.5339 10.7168 16.6385 10.7168 15.5339C10.7168 14.4294 9.82137 13.5339 8.7168 13.5339C7.61223 13.5339 6.7168 14.4294 6.7168 15.5339C6.7168 16.6385 7.61223 17.5339 8.7168 17.5339Z" fill="#67757F"/>
<path id="Vector_9" d="M17.1566 8.49061C17.7468 8.49061 18.2252 8.01215 18.2252 7.42194C18.2252 6.83173 17.7468 6.35327 17.1566 6.35327C16.5663 6.35327 16.0879 6.83173 16.0879 7.42194C16.0879 8.01215 16.5663 8.49061 17.1566 8.49061Z" fill="#FFCC4D"/>
<path id="Vector_10" d="M17.1566 12.8068C17.7468 12.8068 18.2252 12.3283 18.2252 11.7381C18.2252 11.1479 17.7468 10.6694 17.1566 10.6694C16.5663 10.6694 16.0879 11.1479 16.0879 11.7381C16.0879 12.3283 16.5663 12.8068 17.1566 12.8068Z" fill="#77B255"/>
<path id="Vector_11" d="M14.9984 10.6486C15.5886 10.6486 16.067 10.1701 16.067 9.5799C16.067 8.98969 15.5886 8.51123 14.9984 8.51123C14.4081 8.51123 13.9297 8.98969 13.9297 9.5799C13.9297 10.1701 14.4081 10.6486 14.9984 10.6486Z" fill="#50A5E6"/>
<path id="Vector_12" d="M19.3148 10.6486C19.905 10.6486 20.3834 10.1701 20.3834 9.5799C20.3834 8.98969 19.905 8.51123 19.3148 8.51123C18.7246 8.51123 18.2461 8.98969 18.2461 9.5799C18.2461 10.1701 18.7246 10.6486 19.3148 10.6486Z" fill="#DD2E44"/>
<path id="Vector_13" d="M7.43265 8.34255V6.89721C7.43265 6.80792 7.39718 6.72229 7.33404 6.65915C7.27091 6.59602 7.18527 6.56055 7.09598 6.56055H6.05732C5.96803 6.56055 5.8824 6.59602 5.81926 6.65915C5.75612 6.72229 5.72065 6.80792 5.72065 6.89721V8.34255L6.57665 9.19921L7.43265 8.34255ZM5.71998 10.7625V12.2079C5.71998 12.3939 5.87065 12.5445 6.05665 12.5445H7.09532C7.18461 12.5445 7.27024 12.5091 7.33338 12.4459C7.39651 12.3828 7.43198 12.2972 7.43198 12.2079V10.7625L6.57598 9.90588L5.71998 10.7625ZM9.23265 8.69588H7.78732L6.93065 9.55255L7.78732 10.4092H9.23265C9.32189 10.409 9.40742 10.3735 9.47052 10.3104C9.53361 10.2473 9.56914 10.1618 9.56932 10.0725V9.03321C9.56932 8.94386 9.53387 8.85816 9.47075 8.79492C9.40763 8.73168 9.322 8.69606 9.23265 8.69588ZM5.36665 8.69588H3.92065C3.83142 8.69606 3.74589 8.73158 3.68279 8.79468C3.61969 8.85778 3.58416 8.94331 3.58398 9.03255V10.0712C3.58398 10.2572 3.73465 10.4079 3.92065 10.4079H5.36598L6.22265 9.55121L5.36665 8.69588Z" fill="#8899A6"/>
</g>
</svg>
