<svg width="24" height="24" viewBox="0 0 24 24" fill="none" xmlns="http://www.w3.org/2000/svg">
<g id="noto:green-apple">
<path id="Vector" d="M14.7571 9.90941L11.2921 6.90566L12.5784 5.94941C12.5784 5.94941 16.3115 3.85878 19.8721 6.37878C23.3709 8.85378 23.0409 16.2132 20.3334 19.5788C17.6259 22.9444 15.7453 23.1432 14.7234 23.1094C13.6996 23.0757 13.5346 22.5807 12.5446 22.68C11.5546 22.7794 11.2246 23.34 9.40963 23.2088C7.76338 23.0888 6.40588 22.4494 5.74588 21.7238C5.12151 21.0338 14.7571 9.90941 14.7571 9.90941Z" fill="#6EA517"/>
<path id="Vector_2" d="M18.7898 6.44991C18.7898 6.44991 17.303 7.09116 15.818 7.20741C14.3311 7.32366 11.6798 7.11928 11.6798 7.11928C11.6798 7.11928 11.3892 5.57428 11.3011 5.57428C11.213 5.57428 7.31108 4.21678 4.45358 6.36178C1.44233 8.62116 1.14608 13.0087 1.62608 15.103C2.73045 19.9162 6.27233 22.183 6.27233 22.183C6.27233 22.183 9.43545 22.5337 13.3992 20.7862C17.363 19.0387 20.7942 15.9787 20.7136 11.8705C20.6255 7.49803 18.7898 6.44991 18.7898 6.44991Z" fill="#87C244"/>
<path id="Vector_3" d="M7.06934 7.29368C6.56121 6.7068 5.16621 6.83805 4.08246 8.38868C2.95371 10.0012 2.90309 12.9562 3.83309 13.0368C4.59621 13.1024 4.79121 11.8106 5.25996 10.8956C6.14121 9.17805 8.23184 8.63805 7.06934 7.29368Z" fill="#E5DD9F"/>
<path id="Vector_4" d="M8.29722 6.6301C8.07409 7.0951 8.80909 8.23885 11.5541 8.32322C14.4416 8.41135 15.3885 6.8026 15.0585 6.4276C14.7285 6.0526 13.6485 6.66947 11.5991 6.64885C9.54972 6.62822 8.67784 5.84072 8.29722 6.6301Z" fill="#59702C"/>
<path id="Vector_5" d="M9.72387 3.495C9.50262 3.45 8.60074 3.29625 8.51074 2.94375C8.46949 2.77688 8.68699 2.23875 9.26074 1.84125C9.83449 1.44375 10.4064 1.335 10.5395 1.6425C10.6726 1.95188 10.6276 2.14875 10.6276 2.21625C10.6276 2.28188 11.0814 2.8125 11.3982 3.495C11.8389 4.44188 12.0807 5.36813 12.0376 6.31688C12.0057 7.00313 11.9926 7.97063 11.597 7.90313C11.1845 7.83375 11.2707 6.86625 11.0682 6.18375C10.5845 4.55438 9.85699 3.52313 9.72387 3.495Z" fill="#513532"/>
<path id="Vector_6" d="M15.485 4.56753C15.53 4.5019 20.0919 1.6369 20.1125 1.46065C20.1331 1.2844 17.7556 0.864404 16.2575 1.41565C14.7594 1.9669 13.2069 2.85378 12.4663 4.39128C11.8719 5.62503 11.8719 6.46315 12.0256 6.6619C12.0988 6.75565 15.485 4.56753 15.485 4.56753Z" fill="#2F7C31"/>
<path id="Vector_7" d="M14.9785 4.39132C16.9923 3.10507 20.1141 1.46069 20.1141 1.46069C20.1141 1.46069 20.2079 1.70632 19.6079 2.73944C18.8148 4.10632 16.9623 5.86882 15.0891 6.42007C13.0566 7.01819 12.0254 6.66194 12.0254 6.66194C12.0254 6.66194 13.3923 5.40569 14.9785 4.39132Z" fill="#4C8C19"/>
</g>
</svg>
