<svg width="24" height="24" viewBox="0 0 24 24" fill="none" xmlns="http://www.w3.org/2000/svg">
<g id="fa-solid:heartbeat" clip-path="url(#clip0_201_187)">
<path id="Vector" d="M15.0101 11.428L12.6804 16.0874C12.3991 16.6546 11.5835 16.6358 11.3257 16.0593L8.65851 10.139L7.25226 13.4999H2.84132L11.396 22.2421C11.7288 22.5843 12.2679 22.5843 12.6007 22.2421L21.1601 13.4999H16.046L15.0101 11.428ZM22.2054 3.46396L22.0929 3.34678C19.6788 0.881152 15.7273 0.881152 13.3085 3.34678L12.0007 4.6874L10.6929 3.35146C8.27882 0.881152 4.32257 0.881152 1.90851 3.35146L1.79601 3.46396C-0.486803 5.79834 -0.585241 9.51553 1.45382 11.9999H6.25382L7.93663 7.95928C8.18976 7.35459 9.04288 7.34053 9.31476 7.94053L12.0429 14.0015L14.3398 9.4124C14.6163 8.85928 15.4038 8.85928 15.6804 9.4124L16.9741 11.9999H22.5476C24.5866 9.51553 24.4882 5.79834 22.2054 3.46396Z" fill="black"/>
</g>
<defs>
<clipPath id="clip0_201_187">
<rect width="24" height="24" fill="white"/>
</clipPath>
</defs>
</svg>
