<svg width="24" height="24" viewBox="0 0 24 24" fill="none" xmlns="http://www.w3.org/2000/svg">
<g id="flat-color-icons:home">
<path id="Vector" d="M21 19.5H3V11.5L12 3L21 11.5V19.5Z" fill="#E8EAF6"/>
<path id="Vector_2" d="M19.5 10.5L17 8V4.5H19.5V10.5ZM3 19.5H21V22H3V19.5Z" fill="#C5CAE9"/>
<path id="Vector_3" d="M12 2.1499L2 11.4499L3 12.5499L12 4.1999L21 12.5499L22 11.4499L12 2.1499Z" fill="#B71C1C"/>
<path id="Vector_4" d="M9 14H15V22H9V14Z" fill="#D84315"/>
<path id="Vector_5" d="M10.5 8.5H13.5V11.5H10.5V8.5Z" fill="#01579B"/>
<path id="Vector_6" d="M13.75 17.75C13.6 17.75 13.5 17.85 13.5 18V19C13.5 19.15 13.6 19.25 13.75 19.25C13.9 19.25 14 19.15 14 19V18C14 17.85 13.9 17.75 13.75 17.75Z" fill="#FF8A65"/>
</g>
</svg>
