<svg width="24" height="24" viewBox="0 0 24 24" fill="none" xmlns="http://www.w3.org/2000/svg">
<g id="noto:mobile-phone">
<path id="Vector" d="M16.3875 23.25H7.6125C6.73125 23.25 6 22.5375 6 21.6375V2.3625C6 1.48125 6.73125 0.75 7.6125 0.75H16.3875C17.2688 0.75 18 1.4625 18 2.3625V21.6562C18 22.5375 17.2688 23.25 16.3875 23.25Z" fill="#424242"/>
<path id="Vector_2" d="M16.2697 22.5205H7.48719C7.08406 22.5205 6.75781 22.1943 6.75781 21.7912V3.68429C6.75781 3.28304 7.08406 2.95679 7.48531 2.95679H16.5134C16.9166 2.95679 17.2428 3.28304 17.2428 3.68616V21.673C17.2428 21.8474 16.9803 22.5205 16.2697 22.5205Z" fill="black"/>
<path id="Vector_3" d="M13.8094 2.17314H10.2094C10.0781 2.17314 9.98438 2.06064 9.98438 1.94814C9.98438 1.83564 10.0969 1.72314 10.2094 1.72314H13.7906C13.9219 1.72314 14.0156 1.83564 14.0156 1.94814C14.0156 2.06064 13.9219 2.17314 13.8094 2.17314Z" fill="#212121"/>
<path id="Vector_4" d="M16.3875 1.125C17.07 1.125 17.625 1.68 17.625 2.3625V21.6562C17.625 22.3275 17.07 22.875 16.3875 22.875H7.6125C6.93 22.875 6.375 22.32 6.375 21.6375V2.3625C6.375 1.69125 6.94125 1.125 7.6125 1.125H16.3875ZM16.3875 0.75H7.6125C6.73125 0.75 6 1.48125 6 2.3625V21.6375C6 22.5375 6.73125 23.25 7.6125 23.25H16.3875C17.2688 23.25 18 22.5375 18 21.6562V2.3625C18 1.4625 17.2688 0.75 16.3875 0.75Z" fill="#757575"/>
<path id="Vector_5" d="M9.065 5.61743H7.8725C7.73563 5.61743 7.625 5.50681 7.625 5.36993V4.17743C7.625 4.04056 7.73563 3.92993 7.8725 3.92993H9.065C9.20188 3.92993 9.3125 4.04056 9.3125 4.17743V5.36993C9.3125 5.50681 9.20188 5.61743 9.065 5.61743Z" fill="#EAB56E"/>
<path id="Vector_6" d="M11.4185 5.61743H10.226C10.0891 5.61743 9.97852 5.50681 9.97852 5.36993V4.17743C9.97852 4.04056 10.0891 3.92993 10.226 3.92993H11.4185C11.5554 3.92993 11.666 4.04056 11.666 4.17743V5.36993C11.666 5.50681 11.5554 5.61743 11.4185 5.61743Z" fill="#FB8C00"/>
<path id="Vector_7" d="M13.7721 5.61743H12.5815C12.4446 5.61743 12.334 5.50681 12.334 5.36993V4.17743C12.334 4.04056 12.4446 3.92993 12.5815 3.92993H13.774C13.9109 3.92993 14.0215 4.04056 14.0215 4.17743V5.36993C14.0215 5.50681 13.9109 5.61743 13.7721 5.61743Z" fill="#FF80AB"/>
<path id="Vector_8" d="M16.1275 5.61743H14.935C14.7981 5.61743 14.6875 5.50681 14.6875 5.36993V4.17743C14.6875 4.04056 14.7981 3.92993 14.935 3.92993H16.1275C16.2644 3.92993 16.375 4.04056 16.375 4.17743V5.36993C16.375 5.50681 16.2644 5.61743 16.1275 5.61743Z" fill="#0288D1"/>
<path id="Vector_9" d="M9.065 8.27246H7.8725C7.73563 8.27246 7.625 8.16184 7.625 8.02496V6.83246C7.625 6.69559 7.73563 6.58496 7.8725 6.58496H9.065C9.20188 6.58496 9.3125 6.69559 9.3125 6.83246V8.02496C9.3125 8.16184 9.20188 8.27246 9.065 8.27246Z" fill="#00BFA5"/>
<path id="Vector_10" d="M11.4185 8.27246H10.226C10.0891 8.27246 9.97852 8.16184 9.97852 8.02496V6.83246C9.97852 6.69559 10.0891 6.58496 10.226 6.58496H11.4185C11.5554 6.58496 11.666 6.69559 11.666 6.83246V8.02496C11.666 8.16184 11.5554 8.27246 11.4185 8.27246Z" fill="#81D4FA"/>
<path id="Vector_11" d="M13.7721 8.27246H12.5815C12.4446 8.27246 12.334 8.16184 12.334 8.02496V6.83246C12.334 6.69559 12.4446 6.58496 12.5815 6.58496H13.774C13.9109 6.58496 14.0215 6.69559 14.0215 6.83246V8.02496C14.0215 8.16184 13.9109 8.27246 13.7721 8.27246Z" fill="#FB8C00"/>
<path id="Vector_12" d="M16.1275 8.27246H14.935C14.7981 8.27246 14.6875 8.16184 14.6875 8.02496V6.83246C14.6875 6.69559 14.7981 6.58496 14.935 6.58496H16.1275C16.2644 6.58496 16.375 6.69559 16.375 6.83246V8.02496C16.375 8.16184 16.2644 8.27246 16.1275 8.27246Z" fill="#EAB56E"/>
<path id="Vector_13" d="M9.065 10.9275H7.8725C7.73563 10.9275 7.625 10.8169 7.625 10.68V9.48749C7.625 9.35062 7.73563 9.23999 7.8725 9.23999H9.065C9.20188 9.23999 9.3125 9.35062 9.3125 9.48749V10.68C9.3125 10.8169 9.20188 10.9275 9.065 10.9275Z" fill="#FB8C00"/>
<path id="Vector_14" d="M11.4185 10.9275H10.226C10.0891 10.9275 9.97852 10.8169 9.97852 10.68V9.48749C9.97852 9.35062 10.0891 9.23999 10.226 9.23999H11.4185C11.5554 9.23999 11.666 9.35062 11.666 9.48749V10.68C11.666 10.8169 11.5554 10.9275 11.4185 10.9275Z" fill="#FF80AB"/>
<path id="Vector_15" d="M13.7721 10.9275H12.5815C12.4446 10.9275 12.334 10.8169 12.334 10.68V9.48749C12.334 9.35062 12.4446 9.23999 12.5815 9.23999H13.774C13.9109 9.23999 14.0215 9.35062 14.0215 9.48749V10.68C14.0215 10.8169 13.9109 10.9275 13.7721 10.9275Z" fill="#00BFA5"/>
<path id="Vector_16" d="M16.1263 10.9275H14.9338C14.7969 10.9275 14.6863 10.8169 14.6863 10.68V9.48749C14.6863 9.35062 14.7969 9.23999 14.9338 9.23999H16.1263C16.2631 9.23999 16.3738 9.35062 16.3738 9.48749V10.68C16.3738 10.8169 16.2631 10.9275 16.1263 10.9275ZM9.065 13.5825H7.8725C7.73563 13.5825 7.625 13.4719 7.625 13.335V12.1425C7.625 12.0056 7.73563 11.895 7.8725 11.895H9.065C9.20188 11.895 9.3125 12.0056 9.3125 12.1425V13.335C9.3125 13.4719 9.20188 13.5825 9.065 13.5825Z" fill="#0288D1"/>
<path id="Vector_17" d="M11.4181 13.5825H10.2256C10.0888 13.5825 9.97813 13.4719 9.97813 13.335V12.1425C9.97813 12.0056 10.0888 11.895 10.2256 11.895H11.4181C11.555 11.895 11.6656 12.0056 11.6656 12.1425V13.335C11.6656 13.4719 11.555 13.5825 11.4181 13.5825ZM9.065 21.5475H7.8725C7.73563 21.5475 7.625 21.4369 7.625 21.3V20.1075C7.625 19.9706 7.73563 19.86 7.8725 19.86H9.065C9.20188 19.86 9.3125 19.9706 9.3125 20.1075V21.3C9.3125 21.435 9.20188 21.5475 9.065 21.5475Z" fill="#81D4FA"/>
<path id="Vector_18" d="M11.4185 21.5476H10.226C10.0891 21.5476 9.97852 21.437 9.97852 21.3001V20.1076C9.97852 19.9707 10.0891 19.8601 10.226 19.8601H11.4185C11.5554 19.8601 11.666 19.9707 11.666 20.1076V21.3001C11.666 21.4351 11.5554 21.5476 11.4185 21.5476Z" fill="#0288D1"/>
<path id="Vector_19" d="M13.7721 21.5476H12.5815C12.4446 21.5476 12.334 21.437 12.334 21.3001V20.1076C12.334 19.9707 12.4446 19.8601 12.5815 19.8601H13.774C13.9109 19.8601 14.0215 19.9707 14.0215 20.1076V21.3001C14.0215 21.4351 13.9109 21.5476 13.7721 21.5476Z" fill="#00BFA5"/>
<path id="Vector_20" d="M16.1275 21.5476H14.935C14.7981 21.5476 14.6875 21.437 14.6875 21.3001V20.1076C14.6875 19.9707 14.7981 19.8601 14.935 19.8601H16.1275C16.2644 19.8601 16.375 19.9707 16.375 20.1076V21.3001C16.375 21.4351 16.2644 21.5476 16.1275 21.5476Z" fill="#FF80AB"/>
</g>
</svg>
