<svg width="24" height="24" viewBox="0 0 24 24" fill="none" xmlns="http://www.w3.org/2000/svg">
<g id="ph:plugs-fill">
<path id="Vector" d="M22.2847 2.78435L19.8097 5.24997L20.3159 5.75622C20.5949 6.03408 20.8162 6.36427 20.9672 6.72785C21.1182 7.09144 21.1959 7.48127 21.1959 7.87497C21.1959 8.26867 21.1182 8.6585 20.9672 9.02209C20.8162 9.38568 20.5949 9.71587 20.3159 9.99372L17.9347 12.375L18.1597 12.5906C18.3005 12.7328 18.3795 12.9248 18.3795 13.125C18.3795 13.3251 18.3005 13.5172 18.1597 13.6593C18.0163 13.798 17.8247 13.8754 17.6253 13.8754C17.4259 13.8754 17.2343 13.798 17.0909 13.6593L16.3409 12.9093L11.0909 7.65935L10.3409 6.90935C10.2213 6.76362 10.1602 6.57863 10.1695 6.39034C10.1787 6.20205 10.2577 6.02393 10.391 5.89063C10.5243 5.75733 10.7024 5.67838 10.8907 5.66913C11.079 5.65988 11.264 5.721 11.4097 5.8406L11.6253 6.0656L14.0066 3.68435C14.2844 3.40542 14.6146 3.18411 14.9782 3.03309C15.3418 2.88208 15.7316 2.80435 16.1253 2.80435C16.519 2.80435 16.9088 2.88208 17.2724 3.03309C17.636 3.18411 17.9662 3.40542 18.2441 3.68435L18.7503 4.1906L21.2159 1.7156C21.3617 1.596 21.5467 1.53488 21.7349 1.54413C21.9232 1.55338 22.1014 1.63233 22.2347 1.76563C22.368 1.89893 22.4469 2.07705 22.4562 2.26534C22.4654 2.45363 22.4043 2.63862 22.2847 2.78435ZM12.9659 12.9656L11.2503 14.6906L9.30969 12.75L11.0347 11.0343C11.1543 10.8886 11.2154 10.7036 11.2062 10.5153C11.1969 10.327 11.118 10.1489 10.9847 10.0156C10.8514 9.88233 10.6732 9.80338 10.4849 9.79413C10.2967 9.78488 10.1117 9.846 9.96594 9.9656L8.25031 11.6906L7.65969 11.0906L6.90969 10.3406C6.76397 10.221 6.57897 10.1599 6.39068 10.1691C6.20239 10.1784 6.02427 10.2573 5.89097 10.3906C5.75767 10.5239 5.67872 10.702 5.66947 10.8903C5.66022 11.0786 5.72134 11.2636 5.84094 11.4093L6.06594 11.625L3.68469 14.0062C3.40576 14.2841 3.18445 14.6143 3.03344 14.9779C2.88242 15.3414 2.80469 15.7313 2.80469 16.125C2.80469 16.5187 2.88242 16.9085 3.03344 17.2721C3.18445 17.6357 3.40576 17.9659 3.68469 18.2437L4.19094 18.75L1.71594 21.2156C1.5751 21.3578 1.49609 21.5498 1.49609 21.75C1.49609 21.9501 1.5751 22.1422 1.71594 22.2843C1.85929 22.423 2.0509 22.5004 2.25031 22.5004C2.44972 22.5004 2.64133 22.423 2.78469 22.2843L5.25031 19.8093L5.75656 20.3156C6.03442 20.5945 6.36461 20.8158 6.7282 20.9668C7.09178 21.1179 7.48161 21.1956 7.87531 21.1956C8.26901 21.1956 8.65884 21.1179 9.02243 20.9668C9.38602 20.8158 9.71621 20.5945 9.99406 20.3156L12.3753 17.9343L12.5909 18.1593C12.7343 18.298 12.9259 18.3754 13.1253 18.3754C13.3247 18.3754 13.5163 18.298 13.6597 18.1593C13.8005 18.0172 13.8795 17.8251 13.8795 17.625C13.8795 17.4248 13.8005 17.2328 13.6597 17.0906L12.9097 16.3406L12.3097 15.75L14.0347 14.0343C14.1543 13.8886 14.2154 13.7036 14.2062 13.5153C14.1969 13.327 14.118 13.1489 13.9847 13.0156C13.8514 12.8823 13.6732 12.8034 13.4849 12.7941C13.2967 12.7849 13.1117 12.846 12.9659 12.9656Z" fill="black"/>
</g>
</svg>
