<svg width="24" height="24" viewBox="0 0 24 24" fill="none" xmlns="http://www.w3.org/2000/svg">
<g id="twemoji:running-shoe">
<path id="Vector" d="M16.1082 6.7774L15.6576 5.4214C15.637 5.37382 15.6068 5.331 15.5689 5.29564C15.531 5.26028 15.4862 5.23314 15.4373 5.21592C15.3884 5.19871 15.3365 5.19179 15.2848 5.1956C15.2331 5.19941 15.1828 5.21387 15.1369 5.23807C14.5249 5.56273 13.1742 6.11673 12.6809 6.28807C13.6269 6.62473 15.0136 7.29007 15.6882 7.21873C15.9442 7.19207 16.2129 7.0134 16.1082 6.7774ZM22.9149 23.1601C22.6489 23.3101 18.5756 24.2881 10.5009 17.2227C8.05624 15.0834 0.800909 8.58607 0.894909 8.36473C0.894909 8.36473 0.675576 8.60473 0.493576 8.8554C0.362243 9.03607 0.280909 9.22807 0.310909 9.42073C0.517576 10.7321 2.38558 11.9667 4.95224 13.9414L5.31824 14.2227L5.56024 14.4087C5.95224 14.7101 7.10424 15.6187 8.44624 16.6774C10.2816 18.1247 13.9689 21.0041 14.0762 21.0841C15.4896 22.1334 17.1662 22.9621 19.1876 23.5321C21.7462 24.2527 22.9149 23.1601 22.9149 23.1601Z" fill="#8899A6"/>
<path id="Vector_2" d="M22.9148 23.1599C22.9148 23.1599 23.2328 23.0139 23.5615 22.5479C23.8901 22.0819 24.0881 21.2652 23.5915 20.3826C23.0948 19.5006 21.2875 16.9686 20.6948 15.9352C20.4061 15.4319 20.4968 14.9706 19.9448 14.0452C19.9448 14.0452 17.8355 10.3632 17.3688 9.56322C16.3708 7.85189 16.8088 6.96189 16.1441 6.45122C15.7008 6.11056 11.2735 6.56189 9.92614 5.52522C8.99481 4.80922 8.98081 2.57322 8.59081 1.84122C8.28014 1.25789 7.24414 1.52456 6.53281 1.91456C5.82147 2.30456 3.88414 4.44056 3.41614 5.04922C2.94814 5.65789 2.34881 6.32189 2.29681 7.00122L2.24414 7.67989C2.24414 7.67989 12.8181 17.7799 15.8275 19.8172C20.9588 23.2912 22.9148 23.1599 22.9148 23.1599Z" fill="#BE1931"/>
<path id="Vector_3" d="M16.4931 6.9761C16.4244 6.76677 16.3271 6.59277 16.1431 6.45077C15.6997 6.1101 11.2724 6.5621 9.92508 5.52477C8.99374 4.80877 8.97975 2.5721 8.58975 1.84077C8.46841 1.61344 8.23508 1.51744 7.95508 1.5061C8.41508 2.43944 8.36908 5.2221 9.49641 6.08877C10.8551 7.13477 14.8404 6.8441 16.4931 6.9761Z" fill="#A0041E"/>
<path id="Vector_4" d="M8.84288 11.9153C9.17954 10.9339 9.53888 8.63861 8.89221 7.27395C8.28621 5.99595 5.93154 3.30395 5.48421 2.79395C4.65754 3.53061 3.55288 4.81928 3.21954 5.25261C2.77954 5.82461 2.24954 6.46728 2.22354 7.11995C2.21421 7.35461 2.28154 7.45995 2.28154 7.45995C2.28154 7.45995 8.82954 11.9539 8.84288 11.9153Z" fill="#DD2E44"/>
<path id="Vector_5" d="M15.404 9.50399C15.2733 9.50474 15.1464 9.45963 15.0455 9.37649C14.9446 9.29336 14.8761 9.17748 14.8518 9.04902C14.8276 8.92056 14.8491 8.78766 14.9127 8.67345C14.9763 8.55925 15.078 8.47097 15.2 8.42399L16.4153 7.94732C16.5516 7.90142 16.7003 7.90969 16.8306 7.9704C16.9609 8.0311 17.0629 8.13961 17.1154 8.27344C17.1679 8.40727 17.167 8.55617 17.1127 8.68931C17.0585 8.82245 16.9551 8.92963 16.824 8.98865L15.6087 9.46532C15.5434 9.49077 15.474 9.50388 15.404 9.50399ZM16.302 11.546C16.1785 11.5466 16.0584 11.5062 15.9602 11.4313C15.8621 11.3563 15.7916 11.251 15.7597 11.1317C15.7278 11.0124 15.7363 10.886 15.7838 10.772C15.8314 10.6581 15.9154 10.5631 16.0227 10.502L17.218 9.81465C17.3462 9.74611 17.496 9.73017 17.6358 9.7702C17.7755 9.81023 17.8942 9.90309 17.9666 10.0291C18.0391 10.1551 18.0596 10.3044 18.0239 10.4453C17.9882 10.5862 17.8991 10.7077 17.7753 10.784L16.58 11.4713C16.4955 11.5202 16.3996 11.546 16.302 11.546ZM17.516 13.3807C17.3983 13.381 17.2836 13.3443 17.1881 13.2756C17.0925 13.2069 17.0211 13.1098 16.984 12.9981C16.9469 12.8865 16.946 12.766 16.9815 12.6538C17.0169 12.5416 17.0868 12.4434 17.1813 12.3733L18.1907 11.6207C18.31 11.542 18.4549 11.512 18.5957 11.5367C18.7365 11.5615 18.8625 11.6391 18.9479 11.7537C19.0333 11.8683 19.0716 12.0113 19.055 12.1532C19.0384 12.2952 18.9682 12.4255 18.8587 12.5173L17.8493 13.2693C17.7533 13.3418 17.6363 13.3808 17.516 13.3807ZM18.8127 15.0947C18.6975 15.0943 18.5852 15.0585 18.4911 14.992C18.3971 14.9255 18.3258 14.8316 18.287 14.7232C18.2482 14.6147 18.2439 14.4969 18.2745 14.3859C18.3051 14.2749 18.3691 14.1759 18.458 14.1027L19.228 13.4707C19.3434 13.3844 19.4876 13.346 19.6306 13.3634C19.7737 13.3808 19.9045 13.4526 19.9959 13.564C20.0873 13.6753 20.1323 13.8176 20.1215 13.9612C20.1108 14.1049 20.045 14.2389 19.938 14.3353L19.168 14.9673C19.0678 15.0495 18.9423 15.0945 18.8127 15.0947ZM2.13267 7.17332C2.13267 7.17332 2.58267 7.58132 3.08267 7.65732C3.58267 7.73332 4.46867 8.29065 5.078 8.75932C5.68734 9.22799 8.01067 10.954 9.434 12.3887C10.8573 13.8233 13.0973 16.7753 13.968 17.6307C14.8387 18.4853 16.2433 19.7593 17.444 20.5287C18.6447 21.298 19.7473 21.9493 20.4547 22.3193C21.3667 22.7967 22.2093 23.082 22.9133 23.16C22.668 23.304 21.3713 23.7907 19.12 23.0233C16.968 22.2893 15.5653 21.494 14.406 20.6327C13.2467 19.7713 6.934 14.7607 5.9 13.9653C4.866 13.17 1.77467 10.8133 1.28667 10.1073C0.593336 9.10465 0.626669 8.66599 0.761336 8.49132C1.08934 8.06399 1.782 6.90332 2.13267 7.17332Z" fill="#CCD6DD"/>
<path id="Vector_6" d="M23.5906 20.3827C23.0939 19.5007 21.2866 16.9687 20.6939 15.9354C20.5779 15.7327 20.5226 15.536 20.4626 15.3147C20.4019 15.3374 20.3366 15.3507 20.2833 15.3874C19.5139 15.9154 19.5179 17.5107 20.6639 19.1787C21.5826 20.516 23.0573 21.5467 23.8853 21.5627C23.9026 21.204 23.8266 20.8014 23.5906 20.3827Z" fill="#DD2E44"/>
</g>
</svg>
