<svg width="40" height="40" viewBox="0 0 40 40" fill="none" xmlns="http://www.w3.org/2000/svg">
<path d="M19.717 15L25.0003 20.2667V20C25.0003 18.6739 24.4735 17.4021 23.5359 16.4645C22.5982 15.5268 21.3264 15 20.0003 15H19.717ZM12.5503 16.3333L15.1337 18.9167C15.0503 19.2667 15.0003 19.6167 15.0003 20C15.0003 21.3261 15.5271 22.5979 16.4648 23.5355C17.4025 24.4732 18.6742 25 20.0003 25C20.367 25 20.7337 24.95 21.0837 24.8667L23.667 27.45C22.5503 28 21.317 28.3333 20.0003 28.3333C17.7902 28.3333 15.6706 27.4554 14.1078 25.8926C12.545 24.3298 11.667 22.2101 11.667 20C11.667 18.6833 12.0003 17.45 12.5503 16.3333ZM3.33366 7.11667L7.13366 10.9167L7.88366 11.6667C5.13366 13.8333 2.96699 16.6667 1.66699 20C4.55033 27.3167 11.667 32.5 20.0003 32.5C22.5837 32.5 25.0503 32 27.3003 31.1L28.017 31.8L32.8837 36.6667L35.0003 34.55L5.45033 5M20.0003 11.6667C22.2105 11.6667 24.3301 12.5446 25.8929 14.1074C27.4557 15.6702 28.3337 17.7899 28.3337 20C28.3337 21.0667 28.117 22.1 27.7337 23.0333L32.617 27.9167C35.117 25.8333 37.117 23.1 38.3337 20C35.4503 12.6833 28.3337 7.5 20.0003 7.5C17.667 7.5 15.4337 7.91667 13.3337 8.66667L16.9503 12.25C17.9003 11.8833 18.917 11.6667 20.0003 11.6667Z" fill="black" fill-opacity="0.6"/>
</svg>
