<svg width="247" height="52" viewBox="0 0 247 52" fill="none" xmlns="http://www.w3.org/2000/svg">
<path d="M21.0443 24.376H15.1562V51H4.21225V24.376H0.24425V15.288H4.21225V14.264C4.21225 9.86933 5.47092 6.54133 7.98825 4.28C10.5056 1.976 14.1963 0.823997 19.0603 0.823997C19.8709 0.823997 20.4683 0.845331 20.8523 0.887997V10.168C18.7616 10.04 17.2896 10.3387 16.4363 11.064C15.5829 11.7893 15.1562 13.0907 15.1562 14.968V15.288H21.0443V24.376ZM37.1308 3.64V51H26.1868V3.64H37.1308ZM78.7257 32.568C78.7257 33.592 78.6618 34.6587 78.5338 35.768H53.7658C53.9364 37.9867 54.6404 39.6933 55.8778 40.888C57.1578 42.04 58.7151 42.616 60.5498 42.616C63.2804 42.616 65.1791 41.464 66.2458 39.16H77.8938C77.2964 41.5067 76.2084 43.6187 74.6298 45.496C73.0938 47.3733 71.1524 48.8453 68.8058 49.912C66.4591 50.9787 63.8351 51.512 60.9338 51.512C57.4351 51.512 54.3204 50.7653 51.5898 49.272C48.8591 47.7787 46.7258 45.6453 45.1898 42.872C43.6538 40.0987 42.8858 36.856 42.8858 33.144C42.8858 29.432 43.6324 26.1893 45.1258 23.416C46.6618 20.6427 48.7951 18.5093 51.5258 17.016C54.2564 15.5227 57.3924 14.776 60.9338 14.776C64.3898 14.776 67.4618 15.5013 70.1498 16.952C72.8378 18.4027 74.9284 20.472 76.4218 23.16C77.9578 25.848 78.7257 28.984 78.7257 32.568ZM67.5258 29.688C67.5258 27.8107 66.8858 26.3173 65.6058 25.208C64.3258 24.0987 62.7258 23.544 60.8058 23.544C58.9711 23.544 57.4138 24.0773 56.1338 25.144C54.8964 26.2107 54.1284 27.7253 53.8298 29.688H67.5258ZM105.619 51L98.7713 41.08L93.0113 51H81.1713L92.9473 32.76L80.8513 15.288H93.1393L99.9873 25.144L105.747 15.288H117.587L105.619 33.272L117.907 51H105.619Z" fill="#FF7C00"/>
<path d="M144.076 14.904C148.172 14.904 151.458 16.2693 153.932 19C156.407 21.688 157.644 25.4 157.644 30.136V51H146.764V31.608C146.764 29.2187 146.146 27.3627 144.908 26.04C143.671 24.7173 142.007 24.056 139.916 24.056C137.826 24.056 136.162 24.7173 134.924 26.04C133.687 27.3627 133.068 29.2187 133.068 31.608V51H122.124V3.64H133.068V20.088C134.178 18.5093 135.692 17.2507 137.612 16.312C139.532 15.3733 141.687 14.904 144.076 14.904ZM200.513 15.288V51H189.569V46.136C188.46 47.7147 186.945 48.9947 185.025 49.976C183.148 50.9147 181.057 51.384 178.753 51.384C176.023 51.384 173.612 50.7867 171.521 49.592C169.431 48.3547 167.809 46.584 166.657 44.28C165.505 41.976 164.929 39.2667 164.929 36.152V15.288H175.809V34.68C175.809 37.0693 176.428 38.9253 177.665 40.248C178.903 41.5707 180.567 42.232 182.657 42.232C184.791 42.232 186.476 41.5707 187.713 40.248C188.951 38.9253 189.569 37.0693 189.569 34.68V15.288H200.513ZM219.318 20.344C220.342 18.68 221.814 17.336 223.734 16.312C225.654 15.288 227.852 14.776 230.326 14.776C233.27 14.776 235.937 15.5227 238.326 17.016C240.716 18.5093 242.593 20.6427 243.958 23.416C245.366 26.1893 246.07 29.4107 246.07 33.08C246.07 36.7493 245.366 39.992 243.958 42.808C242.593 45.5813 240.716 47.736 238.326 49.272C235.937 50.7653 233.27 51.512 230.326 51.512C227.809 51.512 225.612 51.0213 223.734 50.04C221.857 49.016 220.385 47.672 219.318 46.008V51H208.374V3.64H219.318V20.344ZM234.934 33.08C234.934 30.3493 234.166 28.216 232.63 26.68C231.137 25.1013 229.281 24.312 227.062 24.312C224.886 24.312 223.03 25.1013 221.494 26.68C220.001 28.2587 219.254 30.4133 219.254 33.144C219.254 35.8747 220.001 38.0293 221.494 39.608C223.03 41.1867 224.886 41.976 227.062 41.976C229.238 41.976 231.094 41.1867 232.63 39.608C234.166 37.9867 234.934 35.8107 234.934 33.08Z" fill="black"/>
</svg>
