<svg width="27" height="37" viewBox="0 0 27 37" fill="none" xmlns="http://www.w3.org/2000/svg">
<g id="openmoji:chains">
<path id="Vector" d="M15.9875 6.74276C15.8972 5.73427 15.5448 4.81312 15.0017 4.16616C14.4586 3.51919 13.7654 3.19486 13.0628 3.25894C12.3602 3.32303 11.7008 3.77074 11.2184 4.51126C10.7359 5.25177 10.4665 6.22964 10.4648 7.24651V9.30538C10.4768 10.3559 10.7741 11.3576 11.2927 12.0943C11.8112 12.8311 12.5095 13.2441 13.2368 13.2441C13.9642 13.2441 14.6625 12.8311 15.181 12.0943C15.6996 11.3576 15.9969 10.3559 16.0088 9.30538V7.24651C16.0088 7.07534 16.0013 6.90742 15.9875 6.74276ZM14.8295 8.86717C14.8295 9.47729 14.6617 10.0624 14.363 10.4938C14.0643 10.9253 13.6592 11.1676 13.2368 11.1676C12.8145 11.1676 12.4094 10.9253 12.1107 10.4938C11.812 10.0624 11.6442 9.47729 11.6442 8.86717V7.68417C11.6442 7.07405 11.812 6.48892 12.1107 6.0575C12.4094 5.62608 12.8145 5.38371 13.2368 5.38371C13.6592 5.38371 14.0643 5.62608 14.363 6.0575C14.6617 6.48892 14.8295 7.07405 14.8295 7.68417V8.86717ZM15.9875 18.017C15.8972 17.0085 15.5448 16.0874 15.0017 15.4404C14.4586 14.7934 13.7654 14.4691 13.0628 14.5332C12.3602 14.5973 11.7008 15.045 11.2184 15.7855C10.7359 16.526 10.4665 17.5039 10.4648 18.5208V20.5802C10.4768 21.6307 10.7741 22.6323 11.2927 23.3691C11.8112 24.1059 12.5095 24.5189 13.2368 24.5189C13.9642 24.5189 14.6625 24.1059 15.181 23.3691C15.6996 22.6323 15.9969 21.6307 16.0088 20.5802V18.5208C16.0088 18.3501 16.0013 18.1817 15.9875 18.017ZM14.8295 20.1414C14.8295 20.7515 14.6617 21.3367 14.363 21.7681C14.0643 22.1995 13.6592 22.4419 13.2368 22.4419C12.8145 22.4419 12.4094 22.1995 12.1107 21.7681C11.812 21.3367 11.6442 20.7515 11.6442 20.1414V18.9584C11.6442 18.3483 11.812 17.7632 12.1107 17.3318C12.4094 16.9003 12.8145 16.658 13.2368 16.658C13.6592 16.658 14.0643 16.9003 14.363 17.3318C14.6617 17.7632 14.8295 18.3483 14.8295 18.9584V20.1414ZM15.9875 29.2913C15.8972 28.2828 15.5448 27.3616 15.0017 26.7147C14.4586 26.0677 13.7654 25.7434 13.0628 25.8074C12.3602 25.8715 11.7008 26.3192 11.2184 27.0598C10.7359 27.8003 10.4665 28.7781 10.4648 29.795V31.8544C10.4768 32.9049 10.7741 33.9066 11.2927 34.6434C11.8112 35.3802 12.5095 35.7931 13.2368 35.7931C13.9642 35.7931 14.6625 35.3802 15.181 34.6434C15.6996 33.9066 15.9969 32.9049 16.0088 31.8544V29.795C16.0088 29.6244 16.0013 29.4559 15.9875 29.2913ZM14.8295 31.4157C14.8295 32.0258 14.6617 32.6109 14.363 33.0423C14.0643 33.4738 13.6592 33.7161 13.2368 33.7161C12.8145 33.7161 12.4094 33.4738 12.1107 33.0423C11.812 32.6109 11.6442 32.0258 11.6442 31.4157V30.2327C11.6442 29.6226 11.812 29.0374 12.1107 28.606C12.4094 28.1746 12.8145 27.9322 13.2368 27.9322C13.6592 27.9322 14.0643 28.1746 14.363 28.606C14.6617 29.0374 14.8295 29.6226 14.8295 30.2327V31.4157Z" fill="#D0CFCE"/>
<g id="Group">
<path id="Vector_2" d="M14.8298 31.4155C14.8298 32.0257 14.662 32.6108 14.3633 33.0422C14.0646 33.4736 13.6595 33.716 13.2372 33.716C12.8148 33.716 12.4097 33.4736 12.111 33.0422C11.8123 32.6108 11.6445 32.0257 11.6445 31.4155V30.2331C11.6445 29.623 11.8123 29.0378 12.111 28.6064C12.4097 28.175 12.8148 27.9326 13.2372 27.9326C13.6595 27.9326 14.0646 28.175 14.3633 28.6064C14.662 29.0378 14.8298 29.623 14.8298 30.2331V31.4161V31.4155Z" stroke="white" stroke-width="0.666667" stroke-miterlimit="10" stroke-linecap="round" stroke-linejoin="round"/>
<path id="Vector_3" d="M16.0092 31.8538C16.0092 32.3797 15.9375 32.9004 15.7982 33.3862C15.6589 33.872 15.4547 34.3134 15.1973 34.6853C14.9398 35.0571 14.6342 35.3521 14.2979 35.5533C13.9616 35.7545 13.6011 35.8581 13.237 35.8581C12.873 35.8581 12.5125 35.7545 12.1762 35.5533C11.8398 35.3521 11.5342 35.0571 11.2768 34.6853C11.0194 34.3134 10.8152 33.872 10.6759 33.3862C10.5365 32.9004 10.4648 32.3797 10.4648 31.8538V29.7944C10.4648 29.2686 10.5365 28.7479 10.6759 28.262C10.8152 27.7762 11.0194 27.3348 11.2768 26.963C11.5342 26.5911 11.8398 26.2962 12.1762 26.0949C12.5125 25.8937 12.873 25.7901 13.237 25.7901C13.6011 25.7901 13.9616 25.8937 14.2979 26.0949C14.6342 26.2962 14.9398 26.5911 15.1973 26.963C15.4547 27.3348 15.6589 27.7762 15.7982 28.262C15.9375 28.7479 16.0092 29.2686 16.0092 29.7944V31.8538ZM14.8295 20.1414C14.8295 20.7515 14.6617 21.3366 14.363 21.768C14.0643 22.1995 13.6592 22.4418 13.2368 22.4418C12.8145 22.4418 12.4094 22.1995 12.1107 21.768C11.812 21.3366 11.6442 20.7515 11.6442 20.1414V18.9589C11.6442 18.3488 11.812 17.7637 12.1107 17.3322C12.4094 16.9008 12.8145 16.6584 13.2368 16.6584C13.6592 16.6584 14.0643 16.9008 14.363 17.3322C14.6617 17.7637 14.8295 18.3488 14.8295 18.9589V20.1419V20.1414Z" stroke="white" stroke-width="0.666667" stroke-miterlimit="10" stroke-linecap="round" stroke-linejoin="round"/>
<path id="Vector_4" d="M16.0092 20.5795C16.0092 21.1053 15.9375 21.626 15.7982 22.1118C15.6589 22.5977 15.4547 23.0391 15.1973 23.4109C14.9398 23.7827 14.6342 24.0777 14.2979 24.2789C13.9616 24.4802 13.6011 24.5837 13.237 24.5837C12.873 24.5837 12.5125 24.4802 12.1762 24.2789C11.8398 24.0777 11.5342 23.7827 11.2768 23.4109C11.0194 23.0391 10.8152 22.5977 10.6759 22.1118C10.5365 21.626 10.4648 21.1053 10.4648 20.5795V18.52C10.4648 17.9942 10.5365 17.4735 10.6759 16.9877C10.8152 16.5019 11.0194 16.0604 11.2768 15.6886C11.5342 15.3168 11.8398 15.0218 12.1762 14.8206C12.5125 14.6193 12.873 14.5158 13.237 14.5158C13.6011 14.5158 13.9616 14.6193 14.2979 14.8206C14.6342 15.0218 14.9398 15.3168 15.1973 15.6886C15.4547 16.0604 15.6589 16.5019 15.7982 16.9877C15.9375 17.4735 16.0092 17.9942 16.0092 18.52V20.5795ZM14.8295 8.867C14.8295 9.47712 14.6617 10.0623 14.363 10.4937C14.0643 10.9251 13.6592 11.1675 13.2368 11.1675C12.8145 11.1675 12.4094 10.9251 12.1107 10.4937C11.812 10.0623 11.6442 9.47712 11.6442 8.867V7.684C11.6442 7.07388 11.812 6.48875 12.1107 6.05733C12.4094 5.62591 12.8145 5.38354 13.2368 5.38354C13.6592 5.38354 14.0643 5.62591 14.363 6.05733C14.6617 6.48875 14.8295 7.07388 14.8295 7.684V8.867Z" stroke="white" stroke-width="0.666667" stroke-miterlimit="10" stroke-linecap="round" stroke-linejoin="round"/>
<path id="Vector_5" d="M13.3118 21.0665V29.25M13.3118 9.71267V17.8962M16.0092 9.30588C16.0092 9.83172 15.9375 10.3524 15.7982 10.8382C15.6589 11.3241 15.4547 11.7655 15.1973 12.1373C14.9398 12.5092 14.6342 12.8041 14.2979 13.0053C13.9616 13.2066 13.6011 13.3101 13.237 13.3101C12.873 13.3101 12.5125 13.2066 12.1762 13.0053C11.8398 12.8041 11.5342 12.5092 11.2768 12.1373C11.0194 11.7655 10.8152 11.3241 10.6759 10.8382C10.5365 10.3524 10.4648 9.83172 10.4648 9.30588V7.24646C10.4648 6.72061 10.5365 6.19991 10.6759 5.71409C10.8152 5.22827 11.0194 4.78684 11.2768 4.41501C11.5342 4.04318 11.8398 3.74823 12.1762 3.54699C12.5125 3.34576 12.873 3.24219 13.237 3.24219C13.6011 3.24219 13.9616 3.34576 14.2979 3.54699C14.6342 3.74823 14.9398 4.04318 15.1973 4.41501C15.4547 4.78684 15.6589 5.22827 15.7982 5.71409C15.9375 6.19991 16.0092 6.72061 16.0092 7.24646V9.30533V9.30588Z" stroke="white" stroke-width="0.666667" stroke-miterlimit="10" stroke-linecap="round" stroke-linejoin="round"/>
</g>
</g>
</svg>
