<svg width="24" height="24" viewBox="0 0 24 24" fill="none" xmlns="http://www.w3.org/2000/svg">
<g id="material-symbols:arrow-back-ios-rounded">
<path id="Vector" d="M12.1258 21.0999L3.70078 12.6999C3.60078 12.5999 3.53011 12.4916 3.48878 12.3749C3.44678 12.2582 3.42578 12.1332 3.42578 11.9999C3.42578 11.8666 3.44678 11.7416 3.48878 11.6249C3.53011 11.5082 3.60078 11.3999 3.70078 11.2999L12.1258 2.8749C12.3591 2.64157 12.6508 2.5249 13.0008 2.5249C13.3508 2.5249 13.6508 2.6499 13.9008 2.8999C14.1508 3.1499 14.2758 3.44157 14.2758 3.7749C14.2758 4.10824 14.1508 4.3999 13.9008 4.6499L6.55078 11.9999L13.9008 19.3499C14.1341 19.5832 14.2508 19.8706 14.2508 20.2119C14.2508 20.5539 14.1258 20.8499 13.8758 21.0999C13.6258 21.3499 13.3341 21.4749 13.0008 21.4749C12.6674 21.4749 12.3758 21.3499 12.1258 21.0999Z" fill="black"/>
</g>
</svg>
