<svg width="40" height="41" viewBox="0 0 40 41" fill="none" xmlns="http://www.w3.org/2000/svg">
<g id="material-symbols:keyboard-arrow-down-rounded">
<path id="Vector" d="M20.0007 25.4584C19.7784 25.4584 19.5634 25.4167 19.3556 25.3334C19.1468 25.2501 18.9729 25.139 18.834 25.0001L11.1673 17.3334C10.8618 17.0279 10.709 16.639 10.709 16.1667C10.709 15.6945 10.8618 15.3056 11.1673 15.0001C11.4729 14.6945 11.8618 14.5417 12.334 14.5417C12.8062 14.5417 13.1951 14.6945 13.5007 15.0001L20.0007 21.5001L26.5006 15.0001C26.8062 14.6945 27.1951 14.5417 27.6673 14.5417C28.1395 14.5417 28.5284 14.6945 28.834 15.0001C29.1395 15.3056 29.2923 15.6945 29.2923 16.1667C29.2923 16.639 29.1395 17.0279 28.834 17.3334L21.1673 25.0001C21.0007 25.1667 20.8201 25.2845 20.6257 25.3534C20.4312 25.4234 20.2229 25.4584 20.0007 25.4584Z" fill="white"/>
</g>
</svg>
