<svg width="155" height="54" viewBox="0 0 155 54" fill="none" xmlns="http://www.w3.org/2000/svg">
<path d="M13.9652 15.36H10.2852V32H3.44516V15.36H0.965156V9.68H3.44516V9.04C3.44516 6.29333 4.23182 4.21333 5.80516 2.8C7.37849 1.36 9.68516 0.639998 12.7252 0.639998C13.2318 0.639998 13.6052 0.653332 13.8452 0.679998V6.48C12.5385 6.4 11.6185 6.58667 11.0852 7.04C10.5518 7.49333 10.2852 8.30666 10.2852 9.48V9.68H13.9652V15.36ZM24.0192 2.4V32H17.1792V2.4H24.0192ZM50.0161 20.48C50.0161 21.12 49.9761 21.7867 49.8961 22.48H34.4161C34.5228 23.8667 34.9628 24.9333 35.7361 25.68C36.5361 26.4 37.5094 26.76 38.6561 26.76C40.3628 26.76 41.5494 26.04 42.2161 24.6H49.4961C49.1228 26.0667 48.4428 27.3867 47.4561 28.56C46.4961 29.7333 45.2828 30.6533 43.8161 31.32C42.3494 31.9867 40.7094 32.32 38.8961 32.32C36.7094 32.32 34.7628 31.8533 33.0561 30.92C31.3494 29.9867 30.0161 28.6533 29.0561 26.92C28.0961 25.1867 27.6161 23.16 27.6161 20.84C27.6161 18.52 28.0828 16.4933 29.0161 14.76C29.9761 13.0267 31.3094 11.6933 33.0161 10.76C34.7228 9.82667 36.6828 9.36 38.8961 9.36C41.0561 9.36 42.9761 9.81333 44.6561 10.72C46.3361 11.6267 47.6428 12.92 48.5761 14.6C49.5361 16.28 50.0161 18.24 50.0161 20.48ZM43.0161 18.68C43.0161 17.5067 42.6161 16.5733 41.8161 15.88C41.0161 15.1867 40.0161 14.84 38.8161 14.84C37.6694 14.84 36.6961 15.1733 35.8961 15.84C35.1228 16.5067 34.6428 17.4533 34.4561 18.68H43.0161ZM66.8245 32L62.5445 25.8L58.9445 32H51.5445L58.9045 20.6L51.3445 9.68H59.0245L63.3045 15.84L66.9045 9.68H74.3045L66.8245 20.92L74.5045 32H66.8245Z" fill="#FF7C00"/>
<path d="M90.8602 9.44C93.4202 9.44 95.4735 10.2933 97.0202 12C98.5668 13.68 99.3402 16 99.3402 18.96V32H92.5402V19.88C92.5402 18.3867 92.1535 17.2267 91.3802 16.4C90.6068 15.5733 89.5668 15.16 88.2602 15.16C86.9535 15.16 85.9135 15.5733 85.1402 16.4C84.3668 17.2267 83.9802 18.3867 83.9802 19.88V32H77.1402V2.4H83.9802V12.68C84.6735 11.6933 85.6202 10.9067 86.8202 10.32C88.0202 9.73333 89.3668 9.44 90.8602 9.44ZM126.133 9.68V32H119.293V28.96C118.6 29.9467 117.653 30.7467 116.453 31.36C115.28 31.9467 113.973 32.24 112.533 32.24C110.827 32.24 109.32 31.8667 108.013 31.12C106.707 30.3467 105.693 29.24 104.973 27.8C104.253 26.36 103.893 24.6667 103.893 22.72V9.68H110.693V21.8C110.693 23.2933 111.08 24.4533 111.853 25.28C112.627 26.1067 113.667 26.52 114.973 26.52C116.307 26.52 117.36 26.1067 118.133 25.28C118.907 24.4533 119.293 23.2933 119.293 21.8V9.68H126.133ZM137.886 12.84C138.526 11.8 139.446 10.96 140.646 10.32C141.846 9.68 143.22 9.36 144.766 9.36C146.606 9.36 148.273 9.82667 149.766 10.76C151.26 11.6933 152.433 13.0267 153.286 14.76C154.166 16.4933 154.606 18.5067 154.606 20.8C154.606 23.0933 154.166 25.12 153.286 26.88C152.433 28.6133 151.26 29.96 149.766 30.92C148.273 31.8533 146.606 32.32 144.766 32.32C143.193 32.32 141.82 32.0133 140.646 31.4C139.473 30.76 138.553 29.92 137.886 28.88V32H131.046V2.4H137.886V12.84ZM147.646 20.8C147.646 19.0933 147.166 17.76 146.206 16.8C145.273 15.8133 144.113 15.32 142.726 15.32C141.366 15.32 140.206 15.8133 139.246 16.8C138.313 17.7867 137.846 19.1333 137.846 20.84C137.846 22.5467 138.313 23.8933 139.246 24.88C140.206 25.8667 141.366 26.36 142.726 26.36C144.086 26.36 145.246 25.8667 146.206 24.88C147.166 23.8667 147.646 22.5067 147.646 20.8ZM3.11958 46.756C3.38091 46.2987 3.76358 45.9253 4.26758 45.636C4.77158 45.3467 5.34558 45.202 5.98958 45.202C6.68025 45.202 7.30091 45.3653 7.85158 45.692C8.40224 46.0187 8.83624 46.4807 9.15358 47.078C9.47091 47.666 9.62958 48.352 9.62958 49.136C9.62958 49.9107 9.47091 50.6013 9.15358 51.208C8.83624 51.8147 8.39758 52.286 7.83758 52.622C7.28691 52.958 6.67091 53.126 5.98958 53.126C5.32691 53.126 4.74358 52.9813 4.23958 52.692C3.74491 52.4027 3.37158 52.034 3.11958 51.586V53H1.84558V42.64H3.11958V46.756ZM8.32758 49.136C8.32758 48.5573 8.21091 48.0533 7.97758 47.624C7.74425 47.1947 7.42691 46.868 7.02558 46.644C6.63358 46.42 6.19958 46.308 5.72358 46.308C5.25691 46.308 4.82291 46.4247 4.42158 46.658C4.02958 46.882 3.71224 47.2133 3.46958 47.652C3.23624 48.0813 3.11958 48.5807 3.11958 49.15C3.11958 49.7287 3.23624 50.2373 3.46958 50.676C3.71224 51.1053 4.02958 51.4367 4.42158 51.67C4.82291 51.894 5.25691 52.006 5.72358 52.006C6.19958 52.006 6.63358 51.894 7.02558 51.67C7.42691 51.4367 7.74425 51.1053 7.97758 50.676C8.21091 50.2373 8.32758 49.724 8.32758 49.136ZM18.3065 48.87C18.3065 49.1127 18.2925 49.3693 18.2645 49.64H12.1325C12.1792 50.396 12.4358 50.9887 12.9025 51.418C13.3785 51.838 13.9525 52.048 14.6245 52.048C15.1752 52.048 15.6325 51.922 15.9965 51.67C16.3698 51.4087 16.6312 51.0633 16.7805 50.634H18.1525C17.9472 51.3713 17.5365 51.9733 16.9205 52.44C16.3045 52.8973 15.5392 53.126 14.6245 53.126C13.8965 53.126 13.2432 52.9627 12.6645 52.636C12.0952 52.3093 11.6472 51.8473 11.3205 51.25C10.9938 50.6433 10.8305 49.9433 10.8305 49.15C10.8305 48.3567 10.9892 47.6613 11.3065 47.064C11.6238 46.4667 12.0672 46.0093 12.6365 45.692C13.2152 45.3653 13.8778 45.202 14.6245 45.202C15.3525 45.202 15.9965 45.3607 16.5565 45.678C17.1165 45.9953 17.5458 46.434 17.8445 46.994C18.1525 47.5447 18.3065 48.17 18.3065 48.87ZM16.9905 48.604C16.9905 48.1187 16.8832 47.7033 16.6685 47.358C16.4538 47.0033 16.1598 46.7373 15.7865 46.56C15.4225 46.3733 15.0165 46.28 14.5685 46.28C13.9245 46.28 13.3738 46.4853 12.9165 46.896C12.4685 47.3067 12.2118 47.876 12.1465 48.604H16.9905ZM22.7042 53.126C22.1162 53.126 21.5888 53.028 21.1222 52.832C20.6555 52.6267 20.2868 52.3467 20.0162 51.992C19.7455 51.628 19.5962 51.2127 19.5682 50.746H20.8842C20.9215 51.1287 21.0988 51.4413 21.4162 51.684C21.7428 51.9267 22.1675 52.048 22.6902 52.048C23.1755 52.048 23.5582 51.9407 23.8382 51.726C24.1182 51.5113 24.2582 51.2407 24.2582 50.914C24.2582 50.578 24.1088 50.3307 23.8102 50.172C23.5115 50.004 23.0495 49.8407 22.4242 49.682C21.8548 49.5327 21.3882 49.3833 21.0242 49.234C20.6695 49.0753 20.3615 48.8467 20.1002 48.548C19.8482 48.24 19.7222 47.8387 19.7222 47.344C19.7222 46.952 19.8388 46.5927 20.0722 46.266C20.3055 45.9393 20.6368 45.6827 21.0662 45.496C21.4955 45.3 21.9855 45.202 22.5362 45.202C23.3855 45.202 24.0715 45.4167 24.5942 45.846C25.1168 46.2753 25.3968 46.8633 25.4342 47.61H24.1602C24.1322 47.2087 23.9688 46.8867 23.6702 46.644C23.3808 46.4013 22.9888 46.28 22.4942 46.28C22.0368 46.28 21.6728 46.378 21.4022 46.574C21.1315 46.77 20.9962 47.0267 20.9962 47.344C20.9962 47.596 21.0755 47.806 21.2342 47.974C21.4022 48.1327 21.6075 48.2633 21.8502 48.366C22.1022 48.4593 22.4475 48.5667 22.8862 48.688C23.4368 48.8373 23.8848 48.9867 24.2302 49.136C24.5755 49.276 24.8695 49.4907 25.1122 49.78C25.3642 50.0693 25.4948 50.4473 25.5042 50.914C25.5042 51.334 25.3875 51.712 25.1542 52.048C24.9208 52.384 24.5895 52.65 24.1602 52.846C23.7402 53.0327 23.2548 53.126 22.7042 53.126ZM28.8566 46.378V50.9C28.8566 51.2733 28.9359 51.5393 29.0946 51.698C29.2533 51.8473 29.5286 51.922 29.9206 51.922H30.8586V53H29.7106C29.0013 53 28.4693 52.8367 28.1146 52.51C27.7599 52.1833 27.5826 51.6467 27.5826 50.9V46.378H26.5886V45.328H27.5826V43.396H28.8566V45.328H30.8586V46.378H28.8566ZM38.8506 53.126C38.2626 53.126 37.7353 53.028 37.2686 52.832C36.802 52.6267 36.4333 52.3467 36.1626 51.992C35.892 51.628 35.7426 51.2127 35.7146 50.746H37.0306C37.068 51.1287 37.2453 51.4413 37.5626 51.684C37.8893 51.9267 38.314 52.048 38.8366 52.048C39.322 52.048 39.7046 51.9407 39.9846 51.726C40.2646 51.5113 40.4046 51.2407 40.4046 50.914C40.4046 50.578 40.2553 50.3307 39.9566 50.172C39.658 50.004 39.196 49.8407 38.5706 49.682C38.0013 49.5327 37.5346 49.3833 37.1706 49.234C36.816 49.0753 36.508 48.8467 36.2466 48.548C35.9946 48.24 35.8686 47.8387 35.8686 47.344C35.8686 46.952 35.9853 46.5927 36.2186 46.266C36.452 45.9393 36.7833 45.6827 37.2126 45.496C37.642 45.3 38.132 45.202 38.6826 45.202C39.532 45.202 40.218 45.4167 40.7406 45.846C41.2633 46.2753 41.5433 46.8633 41.5806 47.61H40.3066C40.2786 47.2087 40.1153 46.8867 39.8166 46.644C39.5273 46.4013 39.1353 46.28 38.6406 46.28C38.1833 46.28 37.8193 46.378 37.5486 46.574C37.278 46.77 37.1426 47.0267 37.1426 47.344C37.1426 47.596 37.222 47.806 37.3806 47.974C37.5486 48.1327 37.754 48.2633 37.9966 48.366C38.2486 48.4593 38.594 48.5667 39.0326 48.688C39.5833 48.8373 40.0313 48.9867 40.3766 49.136C40.722 49.276 41.016 49.4907 41.2586 49.78C41.5106 50.0693 41.6413 50.4473 41.6506 50.914C41.6506 51.334 41.534 51.712 41.3006 52.048C41.0673 52.384 40.736 52.65 40.3066 52.846C39.8866 53.0327 39.4013 53.126 38.8506 53.126ZM45.0031 46.378V50.9C45.0031 51.2733 45.0824 51.5393 45.2411 51.698C45.3998 51.8473 45.6751 51.922 46.0671 51.922H47.0051V53H45.8571C45.1478 53 44.6158 52.8367 44.2611 52.51C43.9064 52.1833 43.7291 51.6467 43.7291 50.9V46.378H42.7351V45.328H43.7291V43.396H45.0031V45.328H47.0051V46.378H45.0031ZM51.8947 53.126C51.176 53.126 50.5227 52.9627 49.9347 52.636C49.356 52.3093 48.8987 51.8473 48.5627 51.25C48.236 50.6433 48.0727 49.9433 48.0727 49.15C48.0727 48.366 48.2407 47.6753 48.5767 47.078C48.922 46.4713 49.3887 46.0093 49.9767 45.692C50.5647 45.3653 51.2227 45.202 51.9507 45.202C52.6787 45.202 53.3367 45.3653 53.9247 45.692C54.5127 46.0093 54.9747 46.4667 55.3107 47.064C55.656 47.6613 55.8287 48.3567 55.8287 49.15C55.8287 49.9433 55.6514 50.6433 55.2967 51.25C54.9514 51.8473 54.48 52.3093 53.8827 52.636C53.2854 52.9627 52.6227 53.126 51.8947 53.126ZM51.8947 52.006C52.352 52.006 52.7814 51.8987 53.1827 51.684C53.584 51.4693 53.906 51.1473 54.1487 50.718C54.4007 50.2887 54.5267 49.766 54.5267 49.15C54.5267 48.534 54.4054 48.0113 54.1627 47.582C53.92 47.1527 53.6027 46.8353 53.2107 46.63C52.8187 46.4153 52.394 46.308 51.9367 46.308C51.47 46.308 51.0407 46.4153 50.6487 46.63C50.266 46.8353 49.958 47.1527 49.7247 47.582C49.4914 48.0113 49.3747 48.534 49.3747 49.15C49.3747 49.7753 49.4867 50.3027 49.7107 50.732C49.944 51.1613 50.252 51.4833 50.6347 51.698C51.0174 51.9033 51.4374 52.006 51.8947 52.006ZM58.7778 46.574C59.0018 46.1353 59.3191 45.7947 59.7298 45.552C60.1498 45.3093 60.6584 45.188 61.2558 45.188V46.504H60.9198C59.4918 46.504 58.7778 47.2787 58.7778 48.828V53H57.5038V45.328H58.7778V46.574ZM69.7264 48.87C69.7264 49.1127 69.7124 49.3693 69.6844 49.64H63.5524C63.5991 50.396 63.8558 50.9887 64.3224 51.418C64.7984 51.838 65.3724 52.048 66.0444 52.048C66.5951 52.048 67.0524 51.922 67.4164 51.67C67.7898 51.4087 68.0511 51.0633 68.2004 50.634H69.5724C69.3671 51.3713 68.9564 51.9733 68.3404 52.44C67.7244 52.8973 66.9591 53.126 66.0444 53.126C65.3164 53.126 64.6631 52.9627 64.0844 52.636C63.5151 52.3093 63.0671 51.8473 62.7404 51.25C62.4138 50.6433 62.2504 49.9433 62.2504 49.15C62.2504 48.3567 62.4091 47.6613 62.7264 47.064C63.0438 46.4667 63.4871 46.0093 64.0564 45.692C64.6351 45.3653 65.2978 45.202 66.0444 45.202C66.7724 45.202 67.4164 45.3607 67.9764 45.678C68.5364 45.9953 68.9658 46.434 69.2644 46.994C69.5724 47.5447 69.7264 48.17 69.7264 48.87ZM68.4104 48.604C68.4104 48.1187 68.3031 47.7033 68.0884 47.358C67.8738 47.0033 67.5798 46.7373 67.2064 46.56C66.8424 46.3733 66.4364 46.28 65.9884 46.28C65.3444 46.28 64.7938 46.4853 64.3364 46.896C63.8884 47.3067 63.6318 47.876 63.5664 48.604H68.4104ZM75.7985 44.082C75.5558 44.082 75.3505 43.998 75.1825 43.83C75.0145 43.662 74.9305 43.4567 74.9305 43.214C74.9305 42.9713 75.0145 42.766 75.1825 42.598C75.3505 42.43 75.5558 42.346 75.7985 42.346C76.0318 42.346 76.2278 42.43 76.3865 42.598C76.5545 42.766 76.6385 42.9713 76.6385 43.214C76.6385 43.4567 76.5545 43.662 76.3865 43.83C76.2278 43.998 76.0318 44.082 75.7985 44.082ZM76.4145 45.328V53H75.1405V45.328H76.4145ZM82.3238 45.188C83.2571 45.188 84.0131 45.4727 84.5918 46.042C85.1705 46.602 85.4598 47.414 85.4598 48.478V53H84.1998V48.66C84.1998 47.8947 84.0085 47.3113 83.6258 46.91C83.2431 46.4993 82.7205 46.294 82.0578 46.294C81.3858 46.294 80.8491 46.504 80.4478 46.924C80.0558 47.344 79.8598 47.9553 79.8598 48.758V53H78.5858V45.328H79.8598V46.42C80.1118 46.028 80.4525 45.7247 80.8818 45.51C81.3205 45.2953 81.8011 45.188 82.3238 45.188ZM92.8273 46.378V50.9C92.8273 51.2733 92.9066 51.5393 93.0653 51.698C93.224 51.8473 93.4993 51.922 93.8913 51.922H94.8293V53H93.6813C92.972 53 92.44 52.8367 92.0853 52.51C91.7306 52.1833 91.5533 51.6467 91.5533 50.9V46.378H90.5593V45.328H91.5533V43.396H92.8273V45.328H94.8293V46.378H92.8273ZM100.181 45.188C100.76 45.188 101.282 45.314 101.749 45.566C102.216 45.8087 102.58 46.1773 102.841 46.672C103.112 47.1667 103.247 47.7687 103.247 48.478V53H101.987V48.66C101.987 47.8947 101.796 47.3113 101.413 46.91C101.03 46.4993 100.508 46.294 99.8449 46.294C99.1729 46.294 98.6363 46.504 98.2349 46.924C97.8429 47.344 97.6469 47.9553 97.6469 48.758V53H96.3729V42.64H97.6469V46.42C97.8989 46.028 98.2443 45.7247 98.6829 45.51C99.1309 45.2953 99.6303 45.188 100.181 45.188ZM112.328 48.87C112.328 49.1127 112.314 49.3693 112.286 49.64H106.154C106.201 50.396 106.457 50.9887 106.924 51.418C107.4 51.838 107.974 52.048 108.646 52.048C109.197 52.048 109.654 51.922 110.018 51.67C110.391 51.4087 110.653 51.0633 110.802 50.634H112.174C111.969 51.3713 111.558 51.9733 110.942 52.44C110.326 52.8973 109.561 53.126 108.646 53.126C107.918 53.126 107.265 52.9627 106.686 52.636C106.117 52.3093 105.669 51.8473 105.342 51.25C105.015 50.6433 104.852 49.9433 104.852 49.15C104.852 48.3567 105.011 47.6613 105.328 47.064C105.645 46.4667 106.089 46.0093 106.658 45.692C107.237 45.3653 107.899 45.202 108.646 45.202C109.374 45.202 110.018 45.3607 110.578 45.678C111.138 45.9953 111.567 46.434 111.866 46.994C112.174 47.5447 112.328 48.17 112.328 48.87ZM111.012 48.604C111.012 48.1187 110.905 47.7033 110.69 47.358C110.475 47.0033 110.181 46.7373 109.808 46.56C109.444 46.3733 109.038 46.28 108.59 46.28C107.946 46.28 107.395 46.4853 106.938 46.896C106.49 47.3067 106.233 47.876 106.168 48.604H111.012ZM127.962 45.328L125.568 53H124.252L122.404 46.91L120.556 53H119.24L116.832 45.328H118.134L119.898 51.768L121.802 45.328H123.104L124.966 51.782L126.702 45.328H127.962ZM132.572 53.126C131.854 53.126 131.2 52.9627 130.612 52.636C130.034 52.3093 129.576 51.8473 129.24 51.25C128.914 50.6433 128.75 49.9433 128.75 49.15C128.75 48.366 128.918 47.6753 129.254 47.078C129.6 46.4713 130.066 46.0093 130.654 45.692C131.242 45.3653 131.9 45.202 132.628 45.202C133.356 45.202 134.014 45.3653 134.602 45.692C135.19 46.0093 135.652 46.4667 135.988 47.064C136.334 47.6613 136.506 48.3567 136.506 49.15C136.506 49.9433 136.329 50.6433 135.974 51.25C135.629 51.8473 135.158 52.3093 134.56 52.636C133.963 52.9627 133.3 53.126 132.572 53.126ZM132.572 52.006C133.03 52.006 133.459 51.8987 133.86 51.684C134.262 51.4693 134.584 51.1473 134.826 50.718C135.078 50.2887 135.204 49.766 135.204 49.15C135.204 48.534 135.083 48.0113 134.84 47.582C134.598 47.1527 134.28 46.8353 133.888 46.63C133.496 46.4153 133.072 46.308 132.614 46.308C132.148 46.308 131.718 46.4153 131.326 46.63C130.944 46.8353 130.636 47.1527 130.402 47.582C130.169 48.0113 130.052 48.534 130.052 49.15C130.052 49.7753 130.164 50.3027 130.388 50.732C130.622 51.1613 130.93 51.4833 131.312 51.698C131.695 51.9033 132.115 52.006 132.572 52.006ZM139.456 46.574C139.68 46.1353 139.997 45.7947 140.408 45.552C140.828 45.3093 141.336 45.188 141.934 45.188V46.504H141.598C140.17 46.504 139.456 47.2787 139.456 48.828V53H138.182V45.328H139.456V46.574ZM144.678 42.64V53H143.404V42.64H144.678ZM146.373 49.136C146.373 48.352 146.532 47.666 146.849 47.078C147.167 46.4807 147.601 46.0187 148.151 45.692C148.711 45.3653 149.337 45.202 150.027 45.202C150.625 45.202 151.18 45.342 151.693 45.622C152.207 45.8927 152.599 46.252 152.869 46.7V42.64H154.157V53H152.869V51.558C152.617 52.0153 152.244 52.3933 151.749 52.692C151.255 52.9813 150.676 53.126 150.013 53.126C149.332 53.126 148.711 52.958 148.151 52.622C147.601 52.286 147.167 51.8147 146.849 51.208C146.532 50.6013 146.373 49.9107 146.373 49.136ZM152.869 49.15C152.869 48.5713 152.753 48.0673 152.519 47.638C152.286 47.2087 151.969 46.882 151.567 46.658C151.175 46.4247 150.741 46.308 150.265 46.308C149.789 46.308 149.355 46.42 148.963 46.644C148.571 46.868 148.259 47.1947 148.025 47.624C147.792 48.0533 147.675 48.5573 147.675 49.136C147.675 49.724 147.792 50.2373 148.025 50.676C148.259 51.1053 148.571 51.4367 148.963 51.67C149.355 51.894 149.789 52.006 150.265 52.006C150.741 52.006 151.175 51.894 151.567 51.67C151.969 51.4367 152.286 51.1053 152.519 50.676C152.753 50.2373 152.869 49.7287 152.869 49.15Z" fill="#F2EDED"/>
</svg>
