<?xml version="1.0" encoding="UTF-8"?>
<svg version="1.1" xmlns="http://www.w3.org/2000/svg" width="152" height="38">
<path d="M0 0 C2.64 0 5.28 0 8 0 C8.33 2.64 8.66 5.28 9 8 C9.66 7.67 10.32 7.34 11 7 C15.18144011 6.60552452 17.30946048 6.54964814 20.875 8.875 C24.05047147 12.05047147 24.17867881 13.92030328 24.25 18.3125 C24.20418152 22.68816518 24.04558112 25.62810661 21 29 C17.77919055 31.33231029 14.89342539 31.24851651 11 31 C10.01 30.67 9.02 30.34 8 30 C5.36 30 2.72 30 0 30 C0 20.1 0 10.2 0 0 Z M8 16 C8.32326553 19.59679066 8.32326553 19.59679066 9 23 C10.65 23.33 12.3 23.66 14 24 C15.66846734 22.30504044 15.66846734 22.30504044 17 20 C16.76554071 16.67649546 16.76554071 16.67649546 15 14 C11.038832 13.60909667 11.038832 13.60909667 8 16 Z " fill="#F2EDED" transform="translate(128,2)"/>
<path d="M0 0 C2.64 0 5.28 0 8 0 C8.33 2.64 8.66 5.28 9 8 C9.66 7.67 10.32 7.34 11 7 C14.9086795 6.74508612 17.70942498 6.76710981 21 9 C23.06723714 12.10085571 23.24497423 12.72931681 23.1953125 16.23046875 C23.18886719 17.03291016 23.18242188 17.83535156 23.17578125 18.66210938 C23.15902344 19.49548828 23.14226562 20.32886719 23.125 21.1875 C23.11597656 22.03248047 23.10695313 22.87746094 23.09765625 23.74804688 C23.07410703 25.83215243 23.03823647 27.91611217 23 30 C20.69 30 18.38 30 16 30 C15.93941406 29.16855469 15.87882812 28.33710938 15.81640625 27.48046875 C15.69072266 25.85044922 15.69072266 25.85044922 15.5625 24.1875 C15.48128906 23.10855469 15.40007812 22.02960937 15.31640625 20.91796875 C15.09787539 17.94010095 15.09787539 17.94010095 14 15 C12.35 15.33 10.7 15.66 9 16 C8.67 20.62 8.34 25.24 8 30 C5.36 30 2.72 30 0 30 C0 20.1 0 10.2 0 0 Z " fill="#F1ECEC" transform="translate(74,2)"/>
<path d="M0 0 C2.37142035 1.84443805 3.8452124 3.08829718 5.25 5.75 C5.25 8.06 5.25 10.37 5.25 12.75 C0.3 12.75 -4.65 12.75 -9.75 12.75 C-9.75 13.74 -9.75 14.73 -9.75 15.75 C-8.945625 15.42 -8.14125 15.09 -7.3125 14.75 C-3.01195205 13.54282865 0.81966181 13.57278647 5.25 13.75 C3.82824371 17.30439073 2.73452116 19.39237724 -0.375 21.6875 C-4.81498756 23.08527386 -8.30383285 23.18846584 -12.75 21.75 C-16.17188142 19.02646173 -17.39150457 17.57803041 -18.22265625 13.33984375 C-18.48234041 8.92521295 -18.23667612 5.71837566 -15.4375 2.1875 C-10.88852638 -1.93831328 -5.63042376 -2.55928353 0 0 Z M-7.75 4.75 C-8.74 6.235 -8.74 6.235 -9.75 7.75 C-7.44 7.75 -5.13 7.75 -2.75 7.75 C-3.41 6.76 -4.07 5.77 -4.75 4.75 C-5.74 4.75 -6.73 4.75 -7.75 4.75 Z " fill="#FF7B00" transform="translate(42.75,10.25)"/>
<path d="M0 0 C2.64 0 5.28 0 8 0 C8.33 4.95 8.66 9.9 9 15 C12.63619656 16.08084521 12.63619656 16.08084521 15 16 C15 10.72 15 5.44 15 0 C17.64 0 20.28 0 23 0 C23 7.59 23 15.18 23 23 C19.7 23 16.4 23 13 23 C12.071875 23.20625 11.14375 23.4125 10.1875 23.625 C7.18531382 24.13966049 5.64234349 23.46024246 3 22 C0.98938275 20.15253546 0.08490364 18.71707043 -0.23828125 15.98754883 C-0.29541472 13.56830365 -0.26119612 11.16874456 -0.1875 8.75 C-0.17396484 7.90953125 -0.16042969 7.0690625 -0.14648438 6.203125 C-0.11123464 4.13514062 -0.0574302 2.06748729 0 0 Z " fill="#F2ECEC" transform="translate(101,9)"/>
<path d="M0 0 C8.03501094 -0.78774617 8.03501094 -0.78774617 12.0625 2.5 C12.701875 3.325 13.34125 4.15 14 5 C14.66 3.35 15.32 1.7 16 0 C18.97 0 21.94 0 25 0 C24.20722656 1.10408203 24.20722656 1.10408203 23.3984375 2.23046875 C22.73070313 3.20628906 22.06296875 4.18210937 21.375 5.1875 C20.36566406 6.63189453 20.36566406 6.63189453 19.3359375 8.10546875 C17.68055755 10.90354421 17.68055755 10.90354421 18.65625 13.6953125 C20.20355515 16.34912076 22.06778055 18.61692934 24 21 C24 21.66 24 22.32 24 23 C20.96663814 23.22893297 18.02534949 23.36475845 15 23 C12.9375 21 12.9375 21 12 19 C11.67 19.66 11.34 20.32 11 21 C9 23 9 23 7.01953125 23.265625 C5.01111857 23.25140615 3.00415878 23.13142025 1 23 C2.56641751 18.69235185 4.68336156 14.93828536 7 11 C6.4946875 10.28972656 5.989375 9.57945313 5.46875 8.84765625 C4.49421875 7.46900391 4.49421875 7.46900391 3.5 6.0625 C2.8503125 5.14597656 2.200625 4.22945312 1.53125 3.28515625 C0 1 0 1 0 0 Z " fill="#FF7B00" transform="translate(48,9)"/>
<path d="M0 0 C0 2.31 0 4.62 0 7 C-0.99 7.33 -1.98 7.66 -3 8 C-2.01 8.33 -1.02 8.66 0 9 C0 11.31 0 13.62 0 16 C-1.32 16 -2.64 16 -4 16 C-4 21.28 -4 26.56 -4 32 C-6.31 32 -8.62 32 -11 32 C-11.25689844 28.31388977 -11.4754918 24.62644276 -11.6875 20.9375 C-11.76033203 19.89916016 -11.83316406 18.86082031 -11.90820312 17.79101562 C-12.23920638 11.65772011 -12.14738985 7.35350423 -9 2 C-5.6809041 0.04258447 -3.92381547 0 0 0 Z " fill="#FF7B00" transform="translate(12,0)"/>
<path d="M0 0 C2.64 0 5.28 0 8 0 C8 9.9 8 19.8 8 30 C5.36 30 2.72 30 0 30 C0 20.1 0 10.2 0 0 Z " fill="#FF7C00" transform="translate(14,2)"/>
</svg>
