<svg width="73" height="74" viewBox="0 0 73 74" fill="none" xmlns="http://www.w3.org/2000/svg">
<g id="Frame 7">
<rect y="0.5" width="73" height="73" rx="36.5" fill="white" fill-opacity="0.2"/>
<path id="Vector" d="M36.666 36.1667C33.916 36.1667 31.5618 35.1876 29.6035 33.2292C27.6452 31.2709 26.666 28.9167 26.666 26.1667C26.666 23.4167 27.6452 21.0626 29.6035 19.1042C31.5618 17.1459 33.916 16.1667 36.666 16.1667C39.416 16.1667 41.7702 17.1459 43.7285 19.1042C45.6868 21.0626 46.666 23.4167 46.666 26.1667C46.666 28.9167 45.6868 31.2709 43.7285 33.2292C41.7702 35.1876 39.416 36.1667 36.666 36.1667ZM16.666 56.1667V49.1667C16.666 47.7501 17.031 46.4476 17.761 45.2592C18.4893 44.0726 19.4577 43.1667 20.666 42.5417C23.2493 41.2501 25.8743 40.2809 28.541 39.6342C31.2077 38.9892 33.916 38.6667 36.666 38.6667C39.416 38.6667 42.1243 38.9892 44.791 39.6342C47.4577 40.2809 50.0827 41.2501 52.666 42.5417C53.8743 43.1667 54.8427 44.0726 55.571 45.2592C56.301 46.4476 56.666 47.7501 56.666 49.1667V56.1667H16.666Z" fill="white"/>
</g>
</svg>
