<svg width="40" height="40" viewBox="0 0 40 40" fill="none" xmlns="http://www.w3.org/2000/svg">
<g id="ri:shopping-bag-2-fill">
<path id="Vector" d="M33.3333 36.6666H6.66667C6.22464 36.6666 5.80072 36.491 5.48816 36.1784C5.17559 35.8659 5 35.4419 5 34.9999V4.99992C5 4.55789 5.17559 4.13397 5.48816 3.82141C5.80072 3.50885 6.22464 3.33325 6.66667 3.33325H33.3333C33.7754 3.33325 34.1993 3.50885 34.5118 3.82141C34.8244 4.13397 35 4.55789 35 4.99992V34.9999C35 35.4419 34.8244 35.8659 34.5118 36.1784C34.1993 36.491 33.7754 36.6666 33.3333 36.6666ZM15 9.99992H11.6667V13.3333C11.6667 15.5434 12.5446 17.663 14.1074 19.2258C15.6702 20.7886 17.7899 21.6666 20 21.6666C22.2101 21.6666 24.3298 20.7886 25.8926 19.2258C27.4554 17.663 28.3333 15.5434 28.3333 13.3333V9.99992H25V13.3333C25 14.6593 24.4732 15.9311 23.5355 16.8688C22.5979 17.8065 21.3261 18.3333 20 18.3333C18.6739 18.3333 17.4021 17.8065 16.4645 16.8688C15.5268 15.9311 15 14.6593 15 13.3333V9.99992Z" fill="white"/>
</g>
</svg>
