<svg width="100" height="100" viewBox="0 0 100 100" fill="none" xmlns="http://www.w3.org/2000/svg">
<g id="logos:mastercard" clip-path="url(#clip0_201_1149)">
<path id="Vector" d="M18.1821 99.5031V92.8845C18.1821 90.3468 16.9814 88.6925 14.9233 88.6925C13.8945 88.6925 12.7797 89.1338 12.0078 90.5679C11.4079 89.3544 10.5505 88.6925 9.26423 88.6925C8.40646 88.6925 7.54948 89.0232 6.86319 90.2368V88.9131H5.0625V99.5031H6.86319V93.6564C6.86319 91.7815 7.63502 90.8986 8.83574 90.8986C10.0357 90.8986 10.6364 91.8915 10.6364 93.6564V99.5031H12.4371V93.6564C12.4371 91.7815 13.2941 90.8986 14.4089 90.8986C15.6096 90.8986 16.2096 91.8915 16.2096 93.6564V99.5031H18.1821ZM44.8491 88.9131H41.934V85.7142H40.1333V88.9131H38.5041V91.0086H40.1329V95.8629C40.1329 98.29 40.9048 99.7237 42.9628 99.7237C43.7347 99.7237 44.5917 99.3931 45.1924 98.9518L44.6776 96.9659C44.1632 97.4071 43.5632 97.5177 43.1343 97.5177C42.2769 97.5177 41.934 96.8559 41.934 95.7523V91.0086H44.8491V88.9131ZM60.1123 88.692C59.0835 88.692 58.3976 89.3544 57.9687 90.2368V88.9131H56.168V99.5031H57.9687V93.5463C57.9687 91.7815 58.5687 90.7885 59.6834 90.7885C60.0264 90.7885 60.4553 90.8991 60.7982 91.0091L61.3127 88.8031C60.9697 88.6925 60.4553 88.6925 60.1123 88.6925V88.692ZM37.0464 89.7956C36.1886 89.0232 34.9883 88.6925 33.702 88.6925C31.6443 88.6925 30.2725 90.0162 30.2725 92.1121C30.2725 93.8775 31.3014 94.8699 33.102 95.2011L33.9594 95.3116C34.9027 95.5317 35.4172 95.8629 35.4172 96.4147C35.4172 97.1865 34.7312 97.7383 33.5305 97.7383C32.3302 97.7383 31.3869 97.1865 30.7865 96.6353L29.9292 98.4001C30.8725 99.2825 32.1587 99.7237 33.4446 99.7237C35.8456 99.7237 37.2178 98.29 37.2178 96.3041C37.2178 94.4287 36.1031 93.4358 34.3879 93.1051L33.5305 92.9946C32.7587 92.884 32.1587 92.6639 32.1587 92.0021C32.1587 91.2297 32.7587 90.7885 33.702 90.7885C34.7312 90.7885 35.7601 91.3398 36.2745 91.6709L37.0464 89.7956ZM84.8934 88.6925C83.8642 88.6925 83.1783 89.3544 82.7494 90.2368V88.9131H80.9487V99.5031H82.7494V93.5463C82.7494 91.7815 83.3498 90.7885 84.4642 90.7885C84.8075 90.7885 85.2364 90.8991 85.5794 91.0091L86.0938 88.8031C85.7508 88.6925 85.2364 88.6925 84.8934 88.6925ZM61.913 94.2081C61.913 97.4071 63.6278 99.7237 66.2862 99.7237C67.4866 99.7237 68.3439 99.393 69.2013 98.5106L68.3439 96.6353C67.658 97.2971 66.9721 97.6277 66.2003 97.6277C64.7426 97.6277 63.7137 96.3041 63.7137 94.2081C63.7137 92.2227 64.7426 90.8986 66.2003 90.7885C66.9721 90.7885 67.658 91.1192 68.3439 91.7815L69.2013 89.9061C68.3439 89.0232 67.4866 88.6925 66.2862 88.6925C63.6278 88.6925 61.913 91.0091 61.913 94.2081ZM78.5481 94.2081V88.9131H76.7474V90.2368C76.147 89.2443 75.2897 88.6925 74.1749 88.6925C71.8598 88.6925 70.0591 91.0091 70.0591 94.2081C70.0591 97.4071 71.8598 99.7237 74.1749 99.7237C75.3752 99.7237 76.233 99.1724 76.7474 98.1795V99.5031H78.5481V94.2081ZM71.9453 94.2081C71.9453 92.3327 72.8886 90.7885 74.4319 90.7885C75.8896 90.7885 76.9189 92.2227 76.9189 94.2081C76.9189 96.0835 75.8896 97.6277 74.4319 97.6277C72.8886 97.5172 71.9453 96.0835 71.9453 94.2081ZM50.423 88.6925C48.022 88.6925 46.3068 90.8986 46.3068 94.2081C46.3068 97.5177 48.0216 99.7237 50.5085 99.7237C51.7089 99.7237 52.9096 99.2825 53.8529 98.29L52.9951 96.6353C52.3092 97.2971 51.4519 97.7383 50.5945 97.7383C49.4797 97.7383 48.3649 97.0765 48.1075 95.2006H54.1959V94.3187C54.2818 90.8986 52.7381 88.6925 50.4226 88.6925H50.423ZM50.423 90.678C51.5374 90.678 52.3096 91.5609 52.4807 93.2157H48.1934C48.3649 91.7815 49.1367 90.678 50.423 90.678ZM95.0972 94.2081V84.7212H93.2965V90.2368C92.6962 89.2443 91.8388 88.6925 90.724 88.6925C88.4089 88.6925 86.6082 91.0091 86.6082 94.2081C86.6082 97.4071 88.4089 99.7237 90.724 99.7237C91.9247 99.7237 92.7821 99.1724 93.2965 98.1795V99.5031H95.0972V94.2081ZM88.4948 94.2081C88.4948 92.3327 89.4377 90.7885 90.9814 90.7885C92.4391 90.7885 93.468 92.2227 93.468 94.2081C93.468 96.0835 92.4391 97.6277 90.9814 97.6277C89.4377 97.5172 88.4948 96.0835 88.4948 94.2081ZM28.2999 94.2081V88.9131H26.4993V90.2368C25.8989 89.2443 25.0415 88.6925 23.9267 88.6925C21.6116 88.6925 19.8109 91.0091 19.8109 94.2081C19.8109 97.4071 21.6116 99.7237 23.9267 99.7237C25.1275 99.7237 25.9848 99.1724 26.4993 98.1795V99.5031H28.2999V94.2081ZM21.6116 94.2081C21.6116 92.3327 22.5549 90.7885 24.0982 90.7885C25.556 90.7885 26.5852 92.2227 26.5852 94.2081C26.5852 96.0835 25.556 97.6277 24.0982 97.6277C22.5549 97.5172 21.6116 96.0835 21.6116 94.2081Z" fill="black"/>
<path id="Vector_2" d="M36.4453 8.4939H63.4556V70.9316H36.4453V8.4939Z" fill="#FF5F00"/>
<path id="Vector_3" d="M38.1597 39.7131C38.1597 27.0271 42.7899 15.7749 49.9067 8.49397C44.6766 3.199 38.0742 0 30.8714 0C13.8071 0 0.00195312 17.7603 0.00195312 39.7131C0.00195312 61.6653 13.8071 79.4261 30.871 79.4261C38.0738 79.4261 44.6762 76.2271 49.9067 70.9317C42.7899 63.7613 38.1597 52.399 38.1597 39.7131Z" fill="#EB001B"/>
<path id="Vector_4" d="M99.8989 39.7131C99.8989 61.6653 86.0938 79.4261 69.0299 79.4261C61.8271 79.4261 55.2247 76.2271 49.9941 70.9317C57.1969 63.6513 61.7416 52.399 61.7416 39.7131C61.7416 27.0271 57.111 15.7749 49.9941 8.49397C55.2243 3.199 61.8271 0 69.0299 0C86.0938 0 99.8993 17.8709 99.8993 39.7131H99.8989Z" fill="#F79E1B"/>
</g>
<defs>
<clipPath id="clip0_201_1149">
<rect width="100" height="100" fill="white"/>
</clipPath>
</defs>
</svg>
