<svg width="100" height="100" viewBox="0 0 100 100" fill="none" xmlns="http://www.w3.org/2000/svg">
<g id="fa:send-o" clip-path="url(#clip0_201_164)">
<path id="Vector" d="M98.4346 2.35738C99.6622 3.23458 100.164 4.40417 99.9412 5.86616L85.6562 90.0767C85.4701 91.1366 84.8749 91.959 83.8705 92.5438C83.3497 92.8362 82.7731 92.9824 82.1407 92.9824C81.7315 92.9824 81.2851 92.891 80.8015 92.7083L51.3943 80.921L34.7656 98.8486C34.096 99.6162 33.2217 99.9999 32.1429 99.9999C31.6221 99.9999 31.1943 99.9268 30.8595 99.7806C30.1527 99.5248 29.5947 99.0953 29.1855 98.4923C28.7763 97.8892 28.5716 97.2222 28.5716 96.4912V71.7105L2.23354 61.1293C0.857114 60.6176 0.113099 59.6125 0.0014973 58.114C-0.110105 56.6885 0.485107 55.6103 1.78713 54.8793L94.6401 2.24773C95.9422 1.48019 97.207 1.51674 98.4346 2.35738ZM79.3506 84.5394L91.6827 12.0065L11.6639 57.3464L30.4131 64.8574L78.5694 29.8245L51.8965 73.5197L79.3506 84.5394Z" fill="white"/>
</g>
<defs>
<clipPath id="clip0_201_164">
<rect width="100" height="100" fill="white"/>
</clipPath>
</defs>
</svg>
