<svg width="40" height="40" viewBox="0 0 40 40" fill="none" xmlns="http://www.w3.org/2000/svg">
<g id="mdi:twitter">
<path id="Vector" d="M37.4331 10.0001C36.1497 10.5834 34.7664 10.9667 33.3331 11.1501C34.7997 10.2667 35.9331 8.86675 36.4664 7.18341C35.0831 8.01675 33.5497 8.60008 31.9331 8.93341C30.6164 7.50008 28.7664 6.66675 26.6664 6.66675C22.7497 6.66675 19.5497 9.86675 19.5497 13.8167C19.5497 14.3834 19.6164 14.9334 19.7331 15.4501C13.7997 15.1501 8.51641 12.3001 4.99974 7.98341C4.38307 9.03341 4.03307 10.2667 4.03307 11.5667C4.03307 14.0501 5.28307 16.2501 7.21641 17.5001C6.03307 17.5001 4.93307 17.1667 3.96641 16.6667V16.7167C3.96641 20.1834 6.43307 23.0834 9.69974 23.7334C8.65095 24.0204 7.5499 24.0604 6.48307 23.8501C6.93575 25.2709 7.8223 26.5141 9.0181 27.405C10.2139 28.2958 11.6588 28.7896 13.1497 28.8167C10.6225 30.8175 7.48973 31.8989 4.26641 31.8834C3.69974 31.8834 3.13307 31.8501 2.56641 31.7834C5.73307 33.8167 9.49974 35.0001 13.5331 35.0001C26.6664 35.0001 33.8831 24.1001 33.8831 14.6501C33.8831 14.3334 33.8831 14.0334 33.8664 13.7167C35.2664 12.7167 36.4664 11.4501 37.4331 10.0001Z" fill="black"/>
</g>
</svg>
