<svg width="100" height="100" viewBox="0 0 100 100" fill="none" xmlns="http://www.w3.org/2000/svg">
<g id="tabler:brand-visa">
<path id="Vector" d="M87.5 62.5L83.3333 37.5L72.9167 62.5M37.5 62.5L41.6667 37.5M12.5 37.5H16.6667V62.5H18.75L29.1667 37.5M66.6667 39.5833C66.6667 39.0308 66.4472 38.5009 66.0565 38.1102C65.6658 37.7195 65.1359 37.5 64.5833 37.5H61.4583C58.4542 37.5 55.8875 39.6708 55.3958 42.6375L55.0208 44.8625C54.9155 45.4947 54.9492 46.1423 55.1195 46.7602C55.2899 47.3781 55.5928 47.9515 56.0072 48.4404C56.4216 48.9294 56.9376 49.3222 57.5192 49.5915C58.1008 49.8608 58.7341 50.0002 59.375 50C60.0159 49.9998 60.6492 50.1392 61.2308 50.4085C61.8124 50.6778 62.3284 51.0706 62.7428 51.5596C63.1572 52.0485 63.4601 52.6219 63.6304 53.2398C63.8008 53.8577 63.8345 54.5053 63.7292 55.1375L63.3542 57.3625C63.1146 58.7976 62.3741 60.1013 61.2641 61.0419C60.1541 61.9825 58.7466 62.4992 57.2917 62.5H54.1667C53.6141 62.5 53.0842 62.2805 52.6935 61.8898C52.3028 61.4991 52.0833 60.9692 52.0833 60.4167M75 58.3333H86.25" stroke="black" stroke-width="3.33333" stroke-linecap="round" stroke-linejoin="round"/>
</g>
</svg>
