<svg width="40" height="40" viewBox="0 0 40 40" fill="none" xmlns="http://www.w3.org/2000/svg">
<g id="mingcute:youtube-fill" clip-path="url(#clip0_201_1132)">
<g id="Group">
<path id="Vector" fill-rule="evenodd" clip-rule="evenodd" d="M20.0007 6.66675C21.4257 6.66675 22.8873 6.70341 24.304 6.76341L25.9773 6.84341L27.579 6.93841L29.079 7.04008L30.449 7.14675C31.9357 7.26054 33.3347 7.89499 34.3999 8.93848C35.465 9.98197 36.128 11.3676 36.2723 12.8517L36.339 13.5601L36.464 15.0767C36.5807 16.6484 36.6673 18.3617 36.6673 20.0001C36.6673 21.6384 36.5807 23.3517 36.464 24.9234L36.339 26.4401C36.3173 26.6834 36.2957 26.9184 36.2723 27.1484C36.128 28.6328 35.4647 30.0187 34.3992 31.0622C33.3338 32.1057 31.9344 32.74 30.4473 32.8534L29.0807 32.9584L27.5807 33.0617L25.9773 33.1567L24.304 33.2367C22.8704 33.299 21.4356 33.3313 20.0007 33.3334C18.5657 33.3313 17.1309 33.299 15.6973 33.2367L14.024 33.1567L12.4223 33.0617L10.9223 32.9584L9.55232 32.8534C8.06557 32.7396 6.66657 32.1052 5.60144 31.0617C4.53631 30.0182 3.87327 28.6325 3.72898 27.1484L3.66232 26.4401L3.53732 24.9234C3.40988 23.2853 3.34206 21.6431 3.33398 20.0001C3.33398 18.3617 3.42065 16.6484 3.53732 15.0767L3.66232 13.5601C3.68398 13.3167 3.70565 13.0817 3.72898 12.8517C3.87322 11.3679 4.53601 9.98244 5.6008 8.93899C6.6656 7.89553 8.0642 7.26092 9.55065 7.14675L10.919 7.04008L12.419 6.93841L14.0223 6.84341L15.6957 6.76341C17.1298 6.70114 18.5651 6.66891 20.0007 6.66675ZM16.6673 15.9584V24.0417C16.6673 24.8117 17.5007 25.2917 18.1673 24.9084L25.1673 20.8667C25.3196 20.7791 25.4462 20.6528 25.5341 20.5006C25.6221 20.3485 25.6684 20.1758 25.6684 20.0001C25.6684 19.8243 25.6221 19.6517 25.5341 19.4995C25.4462 19.3474 25.3196 19.2211 25.1673 19.1334L18.1673 15.0934C18.0153 15.0056 17.8427 14.9594 17.6672 14.9594C17.4916 14.9595 17.3191 15.0057 17.167 15.0936C17.015 15.1814 16.8888 15.3077 16.8011 15.4599C16.7133 15.612 16.6672 15.7845 16.6673 15.9601V15.9584Z" fill="black"/>
</g>
</g>
<defs>
<clipPath id="clip0_201_1132">
<rect width="40" height="40" fill="white"/>
</clipPath>
</defs>
</svg>
